M48
; DRILL file {KiCad (5.1.8-0-10_14)} date Tuesday, December 29, 2020 at 02:11:02 PM
; FORMAT={-:-/ absolute / inch / decimal}
; #@! TF.CreationDate,2020-12-29T14:11:02+00:00
; #@! TF.GenerationSoftware,Kicad,Pcbnew,(5.1.8-0-10_14)
; #@! TF.FileFunction,Plated,1,4,PTH
FMAT,2
INCH
T1C0.0157
T2C0.0236
T3C0.0276
T4C0.0315
T5C0.0394
T6C0.0433
T7C0.0579
T8C0.0591
%
G90
G05
T1
X1.4825Y-2.3975
X1.8986Y-2.7611
X1.8989Y-2.0111
X2.0001Y-1.8851
X2.0001Y-2.6351
X2.5744Y-2.1723
X2.615Y-2.1725
X2.6225Y-2.1275
X3.175Y-2.3975
X3.3986Y-2.7611
X3.3989Y-2.0111
X3.5026Y-1.8851
X3.5026Y-2.6351
X2.5829Y-1.118
X2.5829Y-1.1702
X2.6163Y-1.1702
X2.6165Y-1.118
X2.6498Y-1.1702
X2.65Y-1.118
X2.6833Y-1.1702
X2.6835Y-1.118
X2.7167Y-1.1702
X2.7169Y-1.118
X2.7502Y-1.1702
X2.7504Y-1.118
X2.7837Y-1.1702
X2.7839Y-1.118
X2.8171Y-1.1702
X2.8173Y-1.118
T2
X3.7325Y-1.0575
X3.7916Y-1.0575
T3
X2.9625Y-1.15
X3.2625Y-1.15
X2.1475Y-1.15
X2.4475Y-1.15
X3.0496Y-1.0225
X3.2504Y-1.0225
X4.2875Y-1.97
X4.5875Y-1.97
X3.2975Y-1.79
X3.5975Y-1.79
X2.245Y-1.4875
X2.545Y-1.4875
X2.75Y-1.575
X3.05Y-1.575
X2.645Y-1.4875
X2.945Y-1.4875
T4
X3.45Y-2.1975
X3.45Y-2.3975
X3.3891Y-1.005
X3.4875Y-1.005
X3.45Y-2.9475
X3.45Y-3.1475
X1.2Y-2.9475
X1.2Y-3.1475
X4.0225Y-1.34
X4.0225Y-1.54
X2.7675Y-1.265
X2.9675Y-1.265
X1.95Y-2.9475
X1.95Y-3.1475
X2.0475Y-1.3825
X2.0475Y-1.6825
X2.1475Y-1.3825
X2.1475Y-1.6825
X2.2475Y-1.3825
X2.2475Y-1.6825
X2.3475Y-1.3825
X2.3475Y-1.6825
X2.4475Y-1.3825
X2.4475Y-1.6825
X2.5475Y-1.3825
X2.5475Y-1.6825
X2.6475Y-1.3825
X2.6475Y-1.6825
X2.7475Y-1.3825
X2.7475Y-1.6825
X2.8475Y-1.3825
X2.8475Y-1.6825
X2.9475Y-1.3825
X2.9475Y-1.6825
X3.0475Y-1.3825
X3.0475Y-1.6825
X3.1475Y-1.3825
X3.1475Y-1.6825
X3.2475Y-1.3825
X3.2475Y-1.6825
X3.3475Y-1.3825
X3.3475Y-1.6825
X1.8425Y-1.0191
X1.8425Y-1.1175
X1.9525Y-2.1975
X1.9525Y-2.3975
X1.7375Y-1.34
X1.7375Y-1.54
X2.4325Y-1.265
X2.6325Y-1.265
X1.4704Y-1.0475
X1.6625Y-1.0475
X1.29Y-1.0175
X1.29Y-1.1159
X2.7Y-2.9475
X2.7Y-3.1475
X2.7Y-2.1975
X2.7Y-2.3975
X3.39Y-1.105
X3.4884Y-1.105
X1.2Y-2.1975
X1.2Y-2.3975
T5
X3.5563Y-1.3404
X3.5563Y-1.4388
X3.5563Y-1.5372
X4.1272Y-1.3404
X4.1272Y-1.5372
X1.275Y-1.3404
X1.275Y-1.4388
X1.275Y-1.5372
X1.8459Y-1.3404
X1.8459Y-1.5372
X4.3875Y-2.5425
X4.3875Y-2.6425
X4.3875Y-2.7425
X4.4875Y-2.5425
X4.4875Y-2.6425
X4.4875Y-2.7425
T6
X4.31Y-2.0775
X4.31Y-2.2547
X4.5659Y-2.0775
X4.5659Y-2.2547
X4.31Y-1.6875
X4.31Y-1.8647
X4.5659Y-1.6875
X4.5659Y-1.8647
T7
X2.925Y-2.765
X3.175Y-2.665
X2.925Y-2.015
X3.175Y-1.915
X3.925Y-2.665
X1.425Y-2.765
X1.675Y-2.665
X2.175Y-2.015
X2.425Y-1.915
X2.175Y-2.765
X2.425Y-2.665
X1.425Y-2.015
X1.675Y-1.915
X3.675Y-2.765
X3.675Y-2.015
X3.925Y-1.915
T2
G00X2.5297Y-0.9828
M15
G01X2.5297Y-1.0143
M16
G05
G00X2.5297Y-1.102
M15
G01X2.5297Y-1.1611
M16
G05
G00X2.8703Y-0.9828
M15
G01X2.8703Y-1.0143
M16
G05
G00X2.8703Y-1.102
M15
G01X2.8703Y-1.1611
M16
G05
T8
G00X3.826Y-1.2183
M15
G01X3.8772Y-1.2183
M16
G05
G00X3.826Y-1.6593
M15
G01X3.8772Y-1.6593
M16
G05
G00X1.5447Y-1.2183
M15
G01X1.5959Y-1.2183
M16
G05
G00X1.5447Y-1.6593
M15
G01X1.5959Y-1.6593
M16
G05
T0
M30
