M48
; DRILL file {KiCad (5.1.8-0-10_14)} date Tuesday, December 29, 2020 at 02:11:02 PM
; FORMAT={-:-/ absolute / inch / decimal}
; #@! TF.CreationDate,2020-12-29T14:11:02+00:00
; #@! TF.GenerationSoftware,Kicad,Pcbnew,(5.1.8-0-10_14)
; #@! TF.FileFunction,NonPlated,1,4,NPTH
FMAT,2
INCH
T1C0.0689
T2C0.0866
T3C0.1570
%
G90
G05
T1
X3.625Y-2.115
X4.025Y-2.115
X2.125Y-2.865
X2.525Y-2.865
X1.375Y-2.115
X1.775Y-2.115
X2.125Y-2.115
X2.525Y-2.115
X2.875Y-2.115
X3.275Y-2.115
X1.375Y-2.865
X1.775Y-2.865
X2.875Y-2.865
X3.275Y-2.865
X3.625Y-2.865
X4.025Y-2.865
T2
X0.9311Y-1.5176
X0.9311Y-3.0924
X4.4744Y-1.5176
X4.4744Y-3.0924
X0.9311Y-1.1239
X4.4744Y-1.1239
T3
X3.825Y-2.115
X2.325Y-2.865
X1.575Y-2.115
X2.325Y-2.115
X3.075Y-2.115
X1.575Y-2.865
X3.075Y-2.865
X3.825Y-2.865
T0
M30
