%TF.GenerationSoftware,KiCad,Pcbnew,(5.1.8-0-10_14)*%
%TF.CreationDate,2020-12-29T14:10:58+00:00*%
%TF.ProjectId,Draytronics-Daisy-PCB V1,44726179-7472-46f6-9e69-63732d446169,rev?*%
%TF.SameCoordinates,Original*%
%TF.FileFunction,Copper,L1,Top*%
%TF.FilePolarity,Positive*%
%FSLAX46Y46*%
G04 Gerber Fmt 4.6, Leading zero omitted, Abs format (unit mm)*
G04 Created by KiCad (PCBNEW (5.1.8-0-10_14)) date 2020-12-29 14:10:58*
%MOMM*%
%LPD*%
G01*
G04 APERTURE LIST*
%TA.AperFunction,ComponentPad*%
%ADD10C,1.700000*%
%TD*%
%TA.AperFunction,ComponentPad*%
%ADD11C,2.000000*%
%TD*%
%TA.AperFunction,ComponentPad*%
%ADD12O,1.400000X1.400000*%
%TD*%
%TA.AperFunction,ComponentPad*%
%ADD13C,1.400000*%
%TD*%
%TA.AperFunction,ComponentPad*%
%ADD14C,2.250000*%
%TD*%
%TA.AperFunction,ComponentPad*%
%ADD15O,1.600000X1.600000*%
%TD*%
%TA.AperFunction,ComponentPad*%
%ADD16R,1.600000X1.600000*%
%TD*%
%TA.AperFunction,ComponentPad*%
%ADD17C,1.600000*%
%TD*%
%TA.AperFunction,ComponentPad*%
%ADD18C,1.200000*%
%TD*%
%TA.AperFunction,ComponentPad*%
%ADD19R,1.200000X1.200000*%
%TD*%
%TA.AperFunction,ComponentPad*%
%ADD20C,1.500000*%
%TD*%
%TA.AperFunction,ComponentPad*%
%ADD21R,2.000000X2.000000*%
%TD*%
%TA.AperFunction,ComponentPad*%
%ADD22R,3.200000X2.000000*%
%TD*%
%TA.AperFunction,ComponentPad*%
%ADD23O,0.900000X1.700000*%
%TD*%
%TA.AperFunction,ComponentPad*%
%ADD24O,0.900000X2.400000*%
%TD*%
%TA.AperFunction,ComponentPad*%
%ADD25C,0.650000*%
%TD*%
%TA.AperFunction,ViaPad*%
%ADD26C,0.800000*%
%TD*%
%TA.AperFunction,Conductor*%
%ADD27C,0.250000*%
%TD*%
G04 APERTURE END LIST*
D10*
%TO.P,J1-ISP1,6*%
%TO.N,GND*%
X111442500Y-64579500D03*
%TO.P,J1-ISP1,4*%
%TO.N,mosi*%
X111442500Y-67119500D03*
%TO.P,J1-ISP1,2*%
%TO.N,+5V*%
X111442500Y-69659500D03*
%TO.P,J1-ISP1,5*%
%TO.N,reset*%
X113982500Y-64579500D03*
%TO.P,J1-ISP1,3*%
%TO.N,sck*%
X113982500Y-67119500D03*
%TO.P,J1-ISP1,1*%
%TO.N,miso*%
%TA.AperFunction,ComponentPad*%
G36*
G01*
X114832500Y-69059500D02*
X114832500Y-70259500D01*
G75*
G02*
X114582500Y-70509500I-250000J0D01*
G01*
X113382500Y-70509500D01*
G75*
G02*
X113132500Y-70259500I0J250000D01*
G01*
X113132500Y-69059500D01*
G75*
G02*
X113382500Y-68809500I250000J0D01*
G01*
X114582500Y-68809500D01*
G75*
G02*
X114832500Y-69059500I0J-250000D01*
G01*
G37*
%TD.AperFunction*%
%TD*%
D11*
%TO.P,SW4,1*%
%TO.N,GND*%
X115974000Y-42862500D03*
%TO.P,SW4,2*%
%TO.N,boot*%
X115974000Y-47362500D03*
%TO.P,SW4,1*%
%TO.N,GND*%
X109474000Y-42862500D03*
%TO.P,SW4,2*%
%TO.N,boot*%
X109474000Y-47362500D03*
%TD*%
%TO.P,SW3,1*%
%TO.N,GND*%
X115974000Y-52768500D03*
%TO.P,SW3,2*%
%TO.N,reset*%
X115974000Y-57268500D03*
%TO.P,SW3,1*%
%TO.N,GND*%
X109474000Y-52768500D03*
%TO.P,SW3,2*%
%TO.N,reset*%
X109474000Y-57268500D03*
%TD*%
D12*
%TO.P,R1,2*%
%TO.N,reset*%
X116522500Y-50038000D03*
D13*
%TO.P,R1,1*%
%TO.N,+5V*%
X108902500Y-50038000D03*
%TD*%
D14*
%TO.P,MX6,2*%
%TO.N,Net-(D10-Pad2)*%
X61595000Y-67691000D03*
%TO.P,MX6,1*%
%TO.N,col1*%
X55245000Y-70231000D03*
%TD*%
D12*
%TO.P,R7,2*%
%TO.N,ug_DIN*%
X83756500Y-45466000D03*
D13*
%TO.P,R7,1*%
%TO.N,Net-(D13-Pad4)*%
X91376500Y-45466000D03*
%TD*%
D15*
%TO.P,D12,2*%
%TO.N,Net-(D12-Pad2)*%
X87630000Y-74866500D03*
D16*
%TO.P,D12,1*%
%TO.N,row2*%
X87630000Y-79946500D03*
%TD*%
D15*
%TO.P,D11,2*%
%TO.N,Net-(D11-Pad2)*%
X68580000Y-74866500D03*
D16*
%TO.P,D11,1*%
%TO.N,row2*%
X68580000Y-79946500D03*
%TD*%
D15*
%TO.P,D10,2*%
%TO.N,Net-(D10-Pad2)*%
X49530000Y-74866500D03*
D16*
%TO.P,D10,1*%
%TO.N,row2*%
X49530000Y-79946500D03*
%TD*%
D15*
%TO.P,D9,2*%
%TO.N,Net-(D9-Pad2)*%
X30480000Y-74866500D03*
D16*
%TO.P,D9,1*%
%TO.N,row2*%
X30480000Y-79946500D03*
%TD*%
D15*
%TO.P,D8,2*%
%TO.N,Net-(D8-Pad2)*%
X87630000Y-55816500D03*
D16*
%TO.P,D8,1*%
%TO.N,row1*%
X87630000Y-60896500D03*
%TD*%
D15*
%TO.P,D7,2*%
%TO.N,Net-(D7-Pad2)*%
X68580000Y-55816500D03*
D16*
%TO.P,D7,1*%
%TO.N,row1*%
X68580000Y-60896500D03*
%TD*%
D15*
%TO.P,D6,2*%
%TO.N,Net-(D6-Pad2)*%
X49593500Y-55816500D03*
D16*
%TO.P,D6,1*%
%TO.N,row1*%
X49593500Y-60896500D03*
%TD*%
D15*
%TO.P,D5,2*%
%TO.N,Net-(D5-Pad2)*%
X30480000Y-55816500D03*
D16*
%TO.P,D5,1*%
%TO.N,row1*%
X30480000Y-60896500D03*
%TD*%
D15*
%TO.P,D4,2*%
%TO.N,Net-(D4-Pad2)*%
X102171500Y-34036000D03*
D16*
%TO.P,D4,1*%
%TO.N,row0*%
X102171500Y-39116000D03*
%TD*%
D15*
%TO.P,D3,2*%
%TO.N,Net-(D3-Pad2)*%
X44132500Y-34036000D03*
D16*
%TO.P,D3,1*%
%TO.N,row0*%
X44132500Y-39116000D03*
%TD*%
D12*
%TO.P,R6,2*%
%TO.N,Net-(D2-Pad1)*%
X64643000Y-37782500D03*
D13*
%TO.P,R6,1*%
%TO.N,+5V*%
X57023000Y-37782500D03*
%TD*%
D12*
%TO.P,R5,2*%
%TO.N,Net-(D1-Pad1)*%
X69850000Y-40005000D03*
D13*
%TO.P,R5,1*%
%TO.N,D+*%
X77470000Y-40005000D03*
%TD*%
D12*
%TO.P,R4,2*%
%TO.N,Net-(D2-Pad1)*%
X67183000Y-37782500D03*
D13*
%TO.P,R4,1*%
%TO.N,D-*%
X74803000Y-37782500D03*
%TD*%
D12*
%TO.P,R3,2*%
%TO.N,Net-(R3-Pad2)*%
X75247500Y-29210000D03*
D13*
%TO.P,R3,1*%
%TO.N,GND*%
X82867500Y-29210000D03*
%TD*%
D12*
%TO.P,R2,2*%
%TO.N,Net-(R2-Pad2)*%
X62166500Y-29210000D03*
D13*
%TO.P,R2,1*%
%TO.N,GND*%
X54546500Y-29210000D03*
%TD*%
%TO.P,F1,2*%
%TO.N,VCC*%
X77460000Y-25971500D03*
%TO.P,F1,1*%
%TO.N,+5V*%
X82560000Y-25971500D03*
%TD*%
D15*
%TO.P,D2,2*%
%TO.N,GND*%
X75374500Y-32131000D03*
D16*
%TO.P,D2,1*%
%TO.N,Net-(D2-Pad1)*%
X70294500Y-32131000D03*
%TD*%
D15*
%TO.P,D1,2*%
%TO.N,GND*%
X61785500Y-32131000D03*
D16*
%TO.P,D1,1*%
%TO.N,Net-(D1-Pad1)*%
X66865500Y-32131000D03*
%TD*%
D17*
%TO.P,C4,2*%
%TO.N,GND*%
X86082500Y-25527000D03*
%TO.P,C4,1*%
%TO.N,+5V*%
X88582500Y-25527000D03*
%TD*%
%TO.P,C5,2*%
%TO.N,GND*%
X88606000Y-28067000D03*
%TO.P,C5,1*%
%TO.N,+5V*%
X86106000Y-28067000D03*
%TD*%
%TO.P,C2,2*%
%TO.N,GND*%
X32766000Y-28344500D03*
%TO.P,C2,1*%
%TO.N,XTAL2*%
X32766000Y-25844500D03*
%TD*%
%TO.P,C1,2*%
%TO.N,GND*%
X46799500Y-25884500D03*
%TO.P,C1,1*%
%TO.N,XTAL1*%
X46799500Y-28384500D03*
%TD*%
D18*
%TO.P,C3,2*%
%TO.N,GND*%
X94805500Y-26860500D03*
D19*
%TO.P,C3,1*%
%TO.N,+5V*%
X96305500Y-26860500D03*
%TD*%
D20*
%TO.P,Y1,2*%
%TO.N,XTAL2*%
X37347500Y-26606500D03*
%TO.P,Y1,1*%
%TO.N,XTAL1*%
X42227500Y-26606500D03*
%TD*%
D15*
%TO.P,U1,28*%
%TO.N,col3*%
X85026500Y-42735500D03*
%TO.P,U1,14*%
%TO.N,row0*%
X52006500Y-35115500D03*
%TO.P,U1,27*%
%TO.N,col2*%
X82486500Y-42735500D03*
%TO.P,U1,13*%
%TO.N,Net-(U1-Pad13)*%
X54546500Y-35115500D03*
%TO.P,U1,26*%
%TO.N,col1*%
X79946500Y-42735500D03*
%TO.P,U1,12*%
%TO.N,boot*%
X57086500Y-35115500D03*
%TO.P,U1,25*%
%TO.N,col0*%
X77406500Y-42735500D03*
%TO.P,U1,11*%
%TO.N,Net-(U1-Pad11)*%
X59626500Y-35115500D03*
%TO.P,U1,24*%
%TO.N,row2*%
X74866500Y-42735500D03*
%TO.P,U1,10*%
%TO.N,XTAL2*%
X62166500Y-35115500D03*
%TO.P,U1,23*%
%TO.N,row1*%
X72326500Y-42735500D03*
%TO.P,U1,9*%
%TO.N,XTAL1*%
X64706500Y-35115500D03*
%TO.P,U1,22*%
%TO.N,GND*%
X69786500Y-42735500D03*
%TO.P,U1,8*%
X67246500Y-35115500D03*
%TO.P,U1,21*%
%TO.N,Net-(U1-Pad21)*%
X67246500Y-42735500D03*
%TO.P,U1,7*%
%TO.N,+5V*%
X69786500Y-35115500D03*
%TO.P,U1,20*%
X64706500Y-42735500D03*
%TO.P,U1,6*%
%TO.N,ug_DIN*%
X72326500Y-35115500D03*
%TO.P,U1,19*%
%TO.N,sck*%
X62166500Y-42735500D03*
%TO.P,U1,5*%
%TO.N,D-*%
X74866500Y-35115500D03*
%TO.P,U1,18*%
%TO.N,miso*%
X59626500Y-42735500D03*
%TO.P,U1,4*%
%TO.N,D+*%
X77406500Y-35115500D03*
%TO.P,U1,17*%
%TO.N,mosi*%
X57086500Y-42735500D03*
%TO.P,U1,3*%
%TO.N,RC2_B*%
X79946500Y-35115500D03*
%TO.P,U1,16*%
%TO.N,RC1_B*%
X54546500Y-42735500D03*
%TO.P,U1,2*%
%TO.N,RC2_A*%
X82486500Y-35115500D03*
%TO.P,U1,15*%
%TO.N,RC1_A*%
X52006500Y-42735500D03*
D16*
%TO.P,U1,1*%
%TO.N,reset*%
X85026500Y-35115500D03*
%TD*%
D14*
%TO.P,MX4,2*%
%TO.N,Net-(D8-Pad2)*%
X99695000Y-48641000D03*
%TO.P,MX4,1*%
%TO.N,col3*%
X93345000Y-51181000D03*
%TD*%
%TO.P,MX1,2*%
%TO.N,Net-(D5-Pad2)*%
X42545000Y-48641000D03*
%TO.P,MX1,1*%
%TO.N,col0*%
X36195000Y-51181000D03*
%TD*%
%TO.P,MX2,1*%
%TO.N,col1*%
X55245000Y-51181000D03*
%TO.P,MX2,2*%
%TO.N,Net-(D6-Pad2)*%
X61595000Y-48641000D03*
%TD*%
%TO.P,MX3,1*%
%TO.N,col2*%
X74295000Y-51181000D03*
%TO.P,MX3,2*%
%TO.N,Net-(D7-Pad2)*%
X80645000Y-48641000D03*
%TD*%
%TO.P,MX5,1*%
%TO.N,col0*%
X36195000Y-70231000D03*
%TO.P,MX5,2*%
%TO.N,Net-(D9-Pad2)*%
X42545000Y-67691000D03*
%TD*%
%TO.P,MX7,1*%
%TO.N,col2*%
X74295000Y-70231000D03*
%TO.P,MX7,2*%
%TO.N,Net-(D11-Pad2)*%
X80645000Y-67691000D03*
%TD*%
%TO.P,MX8,2*%
%TO.N,Net-(D12-Pad2)*%
X99695000Y-67691000D03*
%TO.P,MX8,1*%
%TO.N,col3*%
X93345000Y-70231000D03*
%TD*%
D21*
%TO.P,SW1,A*%
%TO.N,RC1_A*%
X32385000Y-34046000D03*
D11*
%TO.P,SW1,C*%
%TO.N,GND*%
X32385000Y-36546000D03*
%TO.P,SW1,B*%
%TO.N,RC1_B*%
X32385000Y-39046000D03*
D22*
%TO.P,SW1,MP*%
%TO.N,N/C*%
X39885000Y-30946000D03*
X39885000Y-42146000D03*
D11*
%TO.P,SW1,S2*%
%TO.N,Net-(D3-Pad2)*%
X46885000Y-34046000D03*
%TO.P,SW1,S1*%
%TO.N,col0*%
X46885000Y-39046000D03*
%TD*%
%TO.P,SW2,S1*%
%TO.N,col3*%
X104830000Y-39046000D03*
%TO.P,SW2,S2*%
%TO.N,Net-(D4-Pad2)*%
X104830000Y-34046000D03*
D22*
%TO.P,SW2,MP*%
%TO.N,N/C*%
X97830000Y-42146000D03*
X97830000Y-30946000D03*
D11*
%TO.P,SW2,B*%
%TO.N,RC2_B*%
X90330000Y-39046000D03*
%TO.P,SW2,C*%
%TO.N,GND*%
X90330000Y-36546000D03*
D21*
%TO.P,SW2,A*%
%TO.N,RC2_A*%
X90330000Y-34046000D03*
%TD*%
D23*
%TO.P,USB1,S1*%
%TO.N,GND*%
X72905000Y-25362000D03*
X64255000Y-25362000D03*
D24*
X72905000Y-28742000D03*
X64255000Y-28742000D03*
D25*
%TO.P,USB1,B1*%
X71560000Y-28397000D03*
%TO.P,USB1,B4*%
%TO.N,VCC*%
X70710000Y-28397000D03*
%TO.P,USB1,B5*%
%TO.N,Net-(R3-Pad2)*%
X69860000Y-28397000D03*
%TO.P,USB1,B6*%
%TO.N,Net-(D1-Pad1)*%
X69010000Y-28397000D03*
%TO.P,USB1,B7*%
%TO.N,Net-(D2-Pad1)*%
X68160000Y-28397000D03*
%TO.P,USB1,B8*%
%TO.N,Net-(USB1-PadB8)*%
X67310000Y-28397000D03*
%TO.P,USB1,B9*%
%TO.N,VCC*%
X66460000Y-28397000D03*
%TO.P,USB1,B12*%
%TO.N,GND*%
X65605000Y-28397000D03*
%TO.P,USB1,A12*%
X71555000Y-29722000D03*
%TO.P,USB1,A9*%
%TO.N,VCC*%
X70705000Y-29722000D03*
%TO.P,USB1,A8*%
%TO.N,Net-(USB1-PadA8)*%
X69855000Y-29722000D03*
%TO.P,USB1,A7*%
%TO.N,Net-(D2-Pad1)*%
X69005000Y-29722000D03*
%TO.P,USB1,A6*%
%TO.N,Net-(D1-Pad1)*%
X68155000Y-29722000D03*
%TO.P,USB1,A4*%
%TO.N,VCC*%
X66455000Y-29722000D03*
%TO.P,USB1,A1*%
%TO.N,GND*%
X65605000Y-29722000D03*
%TO.P,USB1,A5*%
%TO.N,Net-(R2-Pad2)*%
X67305000Y-29722000D03*
%TD*%
D26*
%TO.N,GND*%
X88966500Y-47882000D03*
X88966500Y-66932000D03*
X50803000Y-66932000D03*
X50803000Y-47882000D03*
%TO.N,+5V*%
X86332000Y-51082000D03*
X86324500Y-70132000D03*
X48224500Y-70132000D03*
X48232000Y-51082000D03*
%TO.N,row1*%
X37655500Y-60896500D03*
X80645000Y-60896500D03*
%TO.N,miso*%
X66421000Y-55181500D03*
%TO.N,sck*%
X66611500Y-54038500D03*
%TO.N,mosi*%
X65389473Y-55175293D03*
%TD*%
D27*
%TO.N,Net-(D1-Pad1)*%
X69010000Y-28754998D02*
X69010000Y-28397000D01*
X68155000Y-29609998D02*
X69010000Y-28754998D01*
X68155000Y-29722000D02*
X68155000Y-29609998D01*
%TO.N,Net-(D2-Pad1)*%
X64643000Y-37782500D02*
X67183000Y-37782500D01*
%TO.N,Net-(D3-Pad2)*%
X46875000Y-34036000D02*
X46885000Y-34046000D01*
X44132500Y-34036000D02*
X46875000Y-34036000D01*
%TO.N,row0*%
X48133000Y-35115500D02*
X52006500Y-35115500D01*
X44132500Y-39116000D02*
X48133000Y-35115500D01*
%TO.N,Net-(D4-Pad2)*%
X104820000Y-34036000D02*
X104830000Y-34046000D01*
X102171500Y-34036000D02*
X104820000Y-34036000D01*
%TO.N,row1*%
X49593500Y-60896500D02*
X37655500Y-60896500D01*
X37655500Y-60896500D02*
X37655500Y-60896500D01*
X80645000Y-60896500D02*
X87630000Y-60896500D01*
%TO.N,row2*%
X80486501Y-41610499D02*
X75991501Y-41610499D01*
X75991501Y-41610499D02*
X74866500Y-42735500D01*
X81071501Y-42195499D02*
X80486501Y-41610499D01*
X81071501Y-43275501D02*
X81071501Y-42195499D01*
X80486501Y-43860501D02*
X81071501Y-43275501D01*
X71675491Y-51642919D02*
X79457909Y-43860501D01*
X71675491Y-76851009D02*
X71675491Y-51642919D01*
X79457909Y-43860501D02*
X80486501Y-43860501D01*
X68580000Y-79946500D02*
X71675491Y-76851009D01*
%TO.N,VCC*%
X70705000Y-28402000D02*
X70710000Y-28397000D01*
X70705000Y-29722000D02*
X70705000Y-28402000D01*
X66460000Y-28284998D02*
X66460000Y-28397000D01*
X70519618Y-27746999D02*
X66997999Y-27746999D01*
X70710000Y-27937381D02*
X70519618Y-27746999D01*
X66997999Y-27746999D02*
X66460000Y-28284998D01*
X70710000Y-28397000D02*
X70710000Y-27937381D01*
X66460000Y-29717000D02*
X66455000Y-29722000D01*
X66460000Y-28397000D02*
X66460000Y-29717000D01*
%TO.N,miso*%
X113919000Y-69659500D02*
X113982500Y-69659500D01*
X67374910Y-81597500D02*
X102044500Y-81597500D01*
X66421000Y-80643590D02*
X67374910Y-81597500D01*
X102044500Y-81597500D02*
X113982500Y-69659500D01*
X66421000Y-55181500D02*
X66421000Y-80643590D01*
%TO.N,sck*%
X112807499Y-65944499D02*
X113982500Y-67119500D01*
X110839501Y-65944499D02*
X112807499Y-65944499D01*
X95694500Y-81089500D02*
X110839501Y-65944499D01*
X67537998Y-81089500D02*
X95694500Y-81089500D01*
X67146001Y-80697503D02*
X67537998Y-81089500D01*
X67146001Y-54573001D02*
X67146001Y-80697503D01*
X66611500Y-54038500D02*
X67146001Y-54573001D01*
%TO.N,mosi*%
X112617501Y-68294501D02*
X111442500Y-67119500D01*
X114630691Y-68294501D02*
X112617501Y-68294501D01*
X115157510Y-68821320D02*
X114630691Y-68294501D01*
X115157510Y-70497680D02*
X115157510Y-68821320D01*
X103549690Y-82105500D02*
X115157510Y-70497680D01*
X67246500Y-82105500D02*
X103549690Y-82105500D01*
X65389473Y-80248473D02*
X67246500Y-82105500D01*
X65389473Y-55175293D02*
X65389473Y-80248473D01*
%TO.N,reset*%
X117299001Y-55943499D02*
X115974000Y-57268500D01*
X117299001Y-50814501D02*
X117299001Y-55943499D01*
X116522500Y-50038000D02*
X117299001Y-50814501D01*
X109474000Y-57268500D02*
X115974000Y-57268500D01*
X115974000Y-62588000D02*
X113982500Y-64579500D01*
X115974000Y-57268500D02*
X115974000Y-62588000D01*
%TO.N,col0*%
X40635010Y-46740990D02*
X36195000Y-51181000D01*
X73401010Y-46740990D02*
X40635010Y-46740990D01*
X77406500Y-42735500D02*
X73401010Y-46740990D01*
X46885000Y-40491000D02*
X36195000Y-51181000D01*
X46885000Y-39046000D02*
X46885000Y-40491000D01*
X36195000Y-51181000D02*
X36195000Y-70231000D01*
%TO.N,col1*%
X75491001Y-47190999D02*
X59235001Y-47190999D01*
X59235001Y-47190999D02*
X55245000Y-51181000D01*
X79946500Y-42735500D02*
X75491001Y-47190999D01*
X55245000Y-51181000D02*
X55245000Y-70231000D01*
%TO.N,RC2_B*%
X91655001Y-37720999D02*
X90330000Y-39046000D01*
X91655001Y-32785999D02*
X91655001Y-37720999D01*
X91590001Y-32720999D02*
X91655001Y-32785999D01*
X82341001Y-32720999D02*
X91590001Y-32720999D01*
X79946500Y-35115500D02*
X82341001Y-32720999D01*
%TO.N,RC2_A*%
X90274499Y-33990499D02*
X90330000Y-34046000D01*
X83611501Y-33990499D02*
X90274499Y-33990499D01*
X82486500Y-35115500D02*
X83611501Y-33990499D01*
%TO.N,ug_DIN*%
X83756500Y-42340498D02*
X83756500Y-45466000D01*
X77656503Y-36240501D02*
X83756500Y-42340498D01*
X73451501Y-36240501D02*
X77656503Y-36240501D01*
X72326500Y-35115500D02*
X73451501Y-36240501D01*
%TO.N,col2*%
X74295000Y-50927000D02*
X74295000Y-51181000D01*
X82486500Y-42735500D02*
X74295000Y-50927000D01*
X74295000Y-51181000D02*
X74295000Y-70231000D01*
%TO.N,col3*%
X100340501Y-43535499D02*
X104830000Y-39046000D01*
X85826499Y-43535499D02*
X100340501Y-43535499D01*
X85026500Y-42735500D02*
X85826499Y-43535499D01*
X93345000Y-50531000D02*
X93345000Y-51181000D01*
X104830000Y-39046000D02*
X93345000Y-50531000D01*
X93345000Y-51181000D02*
X93345000Y-70231000D01*
%TO.N,boot*%
X57086500Y-35115500D02*
X58945999Y-33256001D01*
X91776401Y-32270989D02*
X97226411Y-37720999D01*
X58945999Y-33256001D02*
X81169589Y-33256001D01*
X81169589Y-33256001D02*
X82154601Y-32270989D01*
X82154601Y-32270989D02*
X91776401Y-32270989D01*
X108148999Y-46037499D02*
X109474000Y-47362500D01*
X108148999Y-40403997D02*
X108148999Y-46037499D01*
X105466001Y-37720999D02*
X108148999Y-40403997D01*
X97226411Y-37720999D02*
X105466001Y-37720999D01*
X109474000Y-47362500D02*
X115974000Y-47362500D01*
%TD*%
M02*
