%TF.GenerationSoftware,KiCad,Pcbnew,(5.1.8-0-10_14)*%
%TF.CreationDate,2020-12-29T14:10:58+00:00*%
%TF.ProjectId,Draytronics-Daisy-PCB V1,44726179-7472-46f6-9e69-63732d446169,rev?*%
%TF.SameCoordinates,Original*%
%TF.FileFunction,Legend,Bot*%
%TF.FilePolarity,Positive*%
%FSLAX46Y46*%
G04 Gerber Fmt 4.6, Leading zero omitted, Abs format (unit mm)*
G04 Created by KiCad (PCBNEW (5.1.8-0-10_14)) date 2020-12-29 14:10:58*
%MOMM*%
%LPD*%
G01*
G04 APERTURE LIST*
%ADD10C,0.010000*%
%ADD11C,0.120000*%
%ADD12C,0.150000*%
G04 APERTURE END LIST*
D10*
%TO.C,G\u002A\u002A\u002A*%
G36*
X23662929Y-65025439D02*
G01*
X23672521Y-65051064D01*
X23694812Y-65074806D01*
X23733178Y-65098914D01*
X23790998Y-65125635D01*
X23871649Y-65157216D01*
X23978509Y-65195905D01*
X24074302Y-65229680D01*
X24181144Y-65267536D01*
X24276494Y-65301967D01*
X24355971Y-65331339D01*
X24415195Y-65354016D01*
X24449786Y-65368363D01*
X24457001Y-65372533D01*
X24441684Y-65380127D01*
X24398647Y-65396957D01*
X24332260Y-65421432D01*
X24246893Y-65451961D01*
X24146914Y-65486953D01*
X24069241Y-65513708D01*
X23681482Y-65646416D01*
X23671033Y-65702118D01*
X23668837Y-65756209D01*
X23677905Y-65803380D01*
X23695806Y-65835198D01*
X23721005Y-65840356D01*
X23733313Y-65837255D01*
X23775289Y-65823433D01*
X23841776Y-65800367D01*
X23928726Y-65769546D01*
X24032091Y-65732457D01*
X24147823Y-65690590D01*
X24271872Y-65645433D01*
X24400191Y-65598475D01*
X24528733Y-65551203D01*
X24653447Y-65505107D01*
X24770287Y-65461675D01*
X24875203Y-65422395D01*
X24964149Y-65388756D01*
X25033074Y-65362247D01*
X25077932Y-65344356D01*
X25094483Y-65336771D01*
X25109158Y-65308743D01*
X25116741Y-65263100D01*
X25117220Y-65212157D01*
X25110581Y-65168223D01*
X25096811Y-65143611D01*
X25094690Y-65142545D01*
X25070351Y-65144919D01*
X25022313Y-65158181D01*
X24958073Y-65180036D01*
X24901252Y-65201692D01*
X24824748Y-65231560D01*
X24772265Y-65249714D01*
X24736631Y-65257630D01*
X24710673Y-65256781D01*
X24687219Y-65248643D01*
X24682862Y-65246591D01*
X24642075Y-65228797D01*
X24578162Y-65203172D01*
X24495835Y-65171419D01*
X24399805Y-65135239D01*
X24294785Y-65096336D01*
X24185486Y-65056413D01*
X24076621Y-65017171D01*
X23972899Y-64980313D01*
X23879035Y-64947543D01*
X23799739Y-64920563D01*
X23739722Y-64901074D01*
X23703698Y-64890781D01*
X23695437Y-64889787D01*
X23682003Y-64911635D01*
X23669762Y-64952431D01*
X23668328Y-64959556D01*
X23662657Y-64995686D01*
X23662929Y-65025439D01*
G37*
X23662929Y-65025439D02*
X23672521Y-65051064D01*
X23694812Y-65074806D01*
X23733178Y-65098914D01*
X23790998Y-65125635D01*
X23871649Y-65157216D01*
X23978509Y-65195905D01*
X24074302Y-65229680D01*
X24181144Y-65267536D01*
X24276494Y-65301967D01*
X24355971Y-65331339D01*
X24415195Y-65354016D01*
X24449786Y-65368363D01*
X24457001Y-65372533D01*
X24441684Y-65380127D01*
X24398647Y-65396957D01*
X24332260Y-65421432D01*
X24246893Y-65451961D01*
X24146914Y-65486953D01*
X24069241Y-65513708D01*
X23681482Y-65646416D01*
X23671033Y-65702118D01*
X23668837Y-65756209D01*
X23677905Y-65803380D01*
X23695806Y-65835198D01*
X23721005Y-65840356D01*
X23733313Y-65837255D01*
X23775289Y-65823433D01*
X23841776Y-65800367D01*
X23928726Y-65769546D01*
X24032091Y-65732457D01*
X24147823Y-65690590D01*
X24271872Y-65645433D01*
X24400191Y-65598475D01*
X24528733Y-65551203D01*
X24653447Y-65505107D01*
X24770287Y-65461675D01*
X24875203Y-65422395D01*
X24964149Y-65388756D01*
X25033074Y-65362247D01*
X25077932Y-65344356D01*
X25094483Y-65336771D01*
X25109158Y-65308743D01*
X25116741Y-65263100D01*
X25117220Y-65212157D01*
X25110581Y-65168223D01*
X25096811Y-65143611D01*
X25094690Y-65142545D01*
X25070351Y-65144919D01*
X25022313Y-65158181D01*
X24958073Y-65180036D01*
X24901252Y-65201692D01*
X24824748Y-65231560D01*
X24772265Y-65249714D01*
X24736631Y-65257630D01*
X24710673Y-65256781D01*
X24687219Y-65248643D01*
X24682862Y-65246591D01*
X24642075Y-65228797D01*
X24578162Y-65203172D01*
X24495835Y-65171419D01*
X24399805Y-65135239D01*
X24294785Y-65096336D01*
X24185486Y-65056413D01*
X24076621Y-65017171D01*
X23972899Y-64980313D01*
X23879035Y-64947543D01*
X23799739Y-64920563D01*
X23739722Y-64901074D01*
X23703698Y-64890781D01*
X23695437Y-64889787D01*
X23682003Y-64911635D01*
X23669762Y-64952431D01*
X23668328Y-64959556D01*
X23662657Y-64995686D01*
X23662929Y-65025439D01*
G36*
X23292306Y-67236048D02*
G01*
X23311215Y-67339749D01*
X23323457Y-67379133D01*
X23378836Y-67484408D01*
X23460385Y-67579016D01*
X23560548Y-67655387D01*
X23637534Y-67693878D01*
X23680613Y-67709650D01*
X23722086Y-67720672D01*
X23769405Y-67727792D01*
X23830023Y-67731858D01*
X23911394Y-67733719D01*
X23991534Y-67734180D01*
X24120841Y-67732400D01*
X24223364Y-67725476D01*
X24305979Y-67711975D01*
X24375564Y-67690469D01*
X24438995Y-67659525D01*
X24482652Y-67632005D01*
X24522454Y-67606720D01*
X24550238Y-67592198D01*
X24555319Y-67590832D01*
X24571519Y-67604391D01*
X24599618Y-67640270D01*
X24634781Y-67691346D01*
X24672171Y-67750498D01*
X24706955Y-67810601D01*
X24716219Y-67827866D01*
X24762297Y-67892160D01*
X24816721Y-67924093D01*
X24880899Y-67924453D01*
X24886622Y-67923109D01*
X24917535Y-67907589D01*
X24929743Y-67878681D01*
X24922891Y-67832633D01*
X24896626Y-67765695D01*
X24865842Y-67703130D01*
X24825914Y-67631643D01*
X24781592Y-67560949D01*
X24741804Y-67505199D01*
X24738121Y-67500628D01*
X24675890Y-67424683D01*
X24712205Y-67317241D01*
X24739036Y-67198657D01*
X24744604Y-67072586D01*
X24730403Y-66946602D01*
X24697931Y-66828278D01*
X24648683Y-66725187D01*
X24584154Y-66644902D01*
X24578358Y-66639674D01*
X24477353Y-66571588D01*
X24354143Y-66521433D01*
X24215363Y-66489384D01*
X24076903Y-66476480D01*
X24076903Y-66694145D01*
X24202047Y-66709231D01*
X24316259Y-66739850D01*
X24411941Y-66785776D01*
X24454576Y-66818080D01*
X24512183Y-66892115D01*
X24548489Y-66985438D01*
X24562494Y-67090230D01*
X24553200Y-67198673D01*
X24519608Y-67302948D01*
X24517173Y-67308122D01*
X24464027Y-67381825D01*
X24384916Y-67442454D01*
X24285528Y-67488984D01*
X24171546Y-67520391D01*
X24048659Y-67535650D01*
X23922551Y-67533736D01*
X23798909Y-67513624D01*
X23683419Y-67474291D01*
X23659217Y-67462727D01*
X23573915Y-67402155D01*
X23511699Y-67322456D01*
X23472927Y-67229610D01*
X23457960Y-67129601D01*
X23467156Y-67028410D01*
X23500876Y-66932018D01*
X23559479Y-66846408D01*
X23619000Y-66793570D01*
X23711877Y-66744302D01*
X23824219Y-66711457D01*
X23948428Y-66694812D01*
X24076903Y-66694145D01*
X24076903Y-66476480D01*
X24067647Y-66475617D01*
X23917629Y-66480308D01*
X23771943Y-66503633D01*
X23637224Y-66545765D01*
X23520105Y-66606881D01*
X23513266Y-66611511D01*
X23443064Y-66674869D01*
X23378497Y-66760349D01*
X23327537Y-66856288D01*
X23307074Y-66913107D01*
X23289736Y-67008524D01*
X23284979Y-67120905D01*
X23292306Y-67236048D01*
G37*
X23292306Y-67236048D02*
X23311215Y-67339749D01*
X23323457Y-67379133D01*
X23378836Y-67484408D01*
X23460385Y-67579016D01*
X23560548Y-67655387D01*
X23637534Y-67693878D01*
X23680613Y-67709650D01*
X23722086Y-67720672D01*
X23769405Y-67727792D01*
X23830023Y-67731858D01*
X23911394Y-67733719D01*
X23991534Y-67734180D01*
X24120841Y-67732400D01*
X24223364Y-67725476D01*
X24305979Y-67711975D01*
X24375564Y-67690469D01*
X24438995Y-67659525D01*
X24482652Y-67632005D01*
X24522454Y-67606720D01*
X24550238Y-67592198D01*
X24555319Y-67590832D01*
X24571519Y-67604391D01*
X24599618Y-67640270D01*
X24634781Y-67691346D01*
X24672171Y-67750498D01*
X24706955Y-67810601D01*
X24716219Y-67827866D01*
X24762297Y-67892160D01*
X24816721Y-67924093D01*
X24880899Y-67924453D01*
X24886622Y-67923109D01*
X24917535Y-67907589D01*
X24929743Y-67878681D01*
X24922891Y-67832633D01*
X24896626Y-67765695D01*
X24865842Y-67703130D01*
X24825914Y-67631643D01*
X24781592Y-67560949D01*
X24741804Y-67505199D01*
X24738121Y-67500628D01*
X24675890Y-67424683D01*
X24712205Y-67317241D01*
X24739036Y-67198657D01*
X24744604Y-67072586D01*
X24730403Y-66946602D01*
X24697931Y-66828278D01*
X24648683Y-66725187D01*
X24584154Y-66644902D01*
X24578358Y-66639674D01*
X24477353Y-66571588D01*
X24354143Y-66521433D01*
X24215363Y-66489384D01*
X24076903Y-66476480D01*
X24076903Y-66694145D01*
X24202047Y-66709231D01*
X24316259Y-66739850D01*
X24411941Y-66785776D01*
X24454576Y-66818080D01*
X24512183Y-66892115D01*
X24548489Y-66985438D01*
X24562494Y-67090230D01*
X24553200Y-67198673D01*
X24519608Y-67302948D01*
X24517173Y-67308122D01*
X24464027Y-67381825D01*
X24384916Y-67442454D01*
X24285528Y-67488984D01*
X24171546Y-67520391D01*
X24048659Y-67535650D01*
X23922551Y-67533736D01*
X23798909Y-67513624D01*
X23683419Y-67474291D01*
X23659217Y-67462727D01*
X23573915Y-67402155D01*
X23511699Y-67322456D01*
X23472927Y-67229610D01*
X23457960Y-67129601D01*
X23467156Y-67028410D01*
X23500876Y-66932018D01*
X23559479Y-66846408D01*
X23619000Y-66793570D01*
X23711877Y-66744302D01*
X23824219Y-66711457D01*
X23948428Y-66694812D01*
X24076903Y-66694145D01*
X24076903Y-66476480D01*
X24067647Y-66475617D01*
X23917629Y-66480308D01*
X23771943Y-66503633D01*
X23637224Y-66545765D01*
X23520105Y-66606881D01*
X23513266Y-66611511D01*
X23443064Y-66674869D01*
X23378497Y-66760349D01*
X23327537Y-66856288D01*
X23307074Y-66913107D01*
X23289736Y-67008524D01*
X23284979Y-67120905D01*
X23292306Y-67236048D01*
G36*
X23668247Y-57024944D02*
G01*
X23679737Y-57090179D01*
X23680986Y-57094530D01*
X23715760Y-57167803D01*
X23771723Y-57241147D01*
X23838501Y-57302352D01*
X23879469Y-57328181D01*
X23994307Y-57370676D01*
X24122007Y-57390864D01*
X24254194Y-57389429D01*
X24382489Y-57367061D01*
X24498514Y-57324447D01*
X24584311Y-57270340D01*
X24656345Y-57195827D01*
X24704840Y-57106359D01*
X24732006Y-56996747D01*
X24739495Y-56905866D01*
X24740026Y-56833939D01*
X24737366Y-56770502D01*
X24732070Y-56726675D01*
X24730209Y-56719490D01*
X24677507Y-56606723D01*
X24601297Y-56518123D01*
X24502079Y-56453967D01*
X24380350Y-56414533D01*
X24236611Y-56400097D01*
X24188475Y-56401367D01*
X24188475Y-56604293D01*
X24302216Y-56612655D01*
X24325412Y-56617005D01*
X24421924Y-56648033D01*
X24495089Y-56698349D01*
X24544711Y-56760431D01*
X24566851Y-56821118D01*
X24573004Y-56897396D01*
X24563800Y-56975348D01*
X24539869Y-57041053D01*
X24531423Y-57054260D01*
X24496620Y-57088750D01*
X24445141Y-57125362D01*
X24413987Y-57142933D01*
X24363688Y-57165323D01*
X24315401Y-57177905D01*
X24256435Y-57182975D01*
X24191748Y-57183147D01*
X24066421Y-57171454D01*
X23968061Y-57140340D01*
X23895586Y-57089363D01*
X23864208Y-57049272D01*
X23835604Y-56974817D01*
X23828425Y-56887472D01*
X23842852Y-56800724D01*
X23860228Y-56757839D01*
X23910904Y-56695151D01*
X23986630Y-56647415D01*
X24081217Y-56616504D01*
X24188475Y-56604293D01*
X24188475Y-56401367D01*
X24160198Y-56402114D01*
X24016344Y-56423969D01*
X23894474Y-56469709D01*
X23795853Y-56538503D01*
X23721744Y-56629519D01*
X23680912Y-56717893D01*
X23668948Y-56776262D01*
X23662850Y-56855331D01*
X23662618Y-56942443D01*
X23668247Y-57024944D01*
G37*
X23668247Y-57024944D02*
X23679737Y-57090179D01*
X23680986Y-57094530D01*
X23715760Y-57167803D01*
X23771723Y-57241147D01*
X23838501Y-57302352D01*
X23879469Y-57328181D01*
X23994307Y-57370676D01*
X24122007Y-57390864D01*
X24254194Y-57389429D01*
X24382489Y-57367061D01*
X24498514Y-57324447D01*
X24584311Y-57270340D01*
X24656345Y-57195827D01*
X24704840Y-57106359D01*
X24732006Y-56996747D01*
X24739495Y-56905866D01*
X24740026Y-56833939D01*
X24737366Y-56770502D01*
X24732070Y-56726675D01*
X24730209Y-56719490D01*
X24677507Y-56606723D01*
X24601297Y-56518123D01*
X24502079Y-56453967D01*
X24380350Y-56414533D01*
X24236611Y-56400097D01*
X24188475Y-56401367D01*
X24188475Y-56604293D01*
X24302216Y-56612655D01*
X24325412Y-56617005D01*
X24421924Y-56648033D01*
X24495089Y-56698349D01*
X24544711Y-56760431D01*
X24566851Y-56821118D01*
X24573004Y-56897396D01*
X24563800Y-56975348D01*
X24539869Y-57041053D01*
X24531423Y-57054260D01*
X24496620Y-57088750D01*
X24445141Y-57125362D01*
X24413987Y-57142933D01*
X24363688Y-57165323D01*
X24315401Y-57177905D01*
X24256435Y-57182975D01*
X24191748Y-57183147D01*
X24066421Y-57171454D01*
X23968061Y-57140340D01*
X23895586Y-57089363D01*
X23864208Y-57049272D01*
X23835604Y-56974817D01*
X23828425Y-56887472D01*
X23842852Y-56800724D01*
X23860228Y-56757839D01*
X23910904Y-56695151D01*
X23986630Y-56647415D01*
X24081217Y-56616504D01*
X24188475Y-56604293D01*
X24188475Y-56401367D01*
X24160198Y-56402114D01*
X24016344Y-56423969D01*
X23894474Y-56469709D01*
X23795853Y-56538503D01*
X23721744Y-56629519D01*
X23680912Y-56717893D01*
X23668948Y-56776262D01*
X23662850Y-56855331D01*
X23662618Y-56942443D01*
X23668247Y-57024944D01*
G36*
X23664294Y-59698733D02*
G01*
X23679091Y-59786946D01*
X23710132Y-59859377D01*
X23749394Y-59912811D01*
X23815702Y-59975753D01*
X23888465Y-60016704D01*
X23976149Y-60039029D01*
X24084667Y-60046079D01*
X24228600Y-60047000D01*
X24233183Y-59693525D01*
X24237767Y-59340050D01*
X24309383Y-59351350D01*
X24404824Y-59377881D01*
X24484852Y-59422582D01*
X24532155Y-59469054D01*
X24559073Y-59527831D01*
X24573102Y-59608920D01*
X24574030Y-59703228D01*
X24561641Y-59801662D01*
X24541774Y-59877944D01*
X24521423Y-59947037D01*
X24517475Y-59990409D01*
X24532101Y-60013073D01*
X24567474Y-60020042D01*
X24602706Y-60018521D01*
X24641759Y-60012885D01*
X24666059Y-59998407D01*
X24684928Y-59966472D01*
X24700145Y-59928466D01*
X24723691Y-59841140D01*
X24737425Y-59736503D01*
X24741008Y-59626591D01*
X24734101Y-59523441D01*
X24716364Y-59439089D01*
X24714136Y-59432584D01*
X24664441Y-59332761D01*
X24593726Y-59255890D01*
X24499537Y-59200209D01*
X24379423Y-59163953D01*
X24328175Y-59155146D01*
X24179895Y-59146089D01*
X24101600Y-59155042D01*
X24101600Y-59343621D01*
X24101600Y-59872969D01*
X24038100Y-59861338D01*
X23943654Y-59830597D01*
X23874193Y-59778772D01*
X23831514Y-59708031D01*
X23817410Y-59620542D01*
X23818569Y-59596196D01*
X23840878Y-59506163D01*
X23890870Y-59435325D01*
X23968789Y-59383432D01*
X24055034Y-59354526D01*
X24101600Y-59343621D01*
X24101600Y-59155042D01*
X24042749Y-59161773D01*
X23920739Y-59200791D01*
X23817864Y-59261738D01*
X23738124Y-59343211D01*
X23721208Y-59368337D01*
X23693483Y-59418430D01*
X23676804Y-59465877D01*
X23667747Y-59523668D01*
X23663657Y-59586809D01*
X23664294Y-59698733D01*
G37*
X23664294Y-59698733D02*
X23679091Y-59786946D01*
X23710132Y-59859377D01*
X23749394Y-59912811D01*
X23815702Y-59975753D01*
X23888465Y-60016704D01*
X23976149Y-60039029D01*
X24084667Y-60046079D01*
X24228600Y-60047000D01*
X24233183Y-59693525D01*
X24237767Y-59340050D01*
X24309383Y-59351350D01*
X24404824Y-59377881D01*
X24484852Y-59422582D01*
X24532155Y-59469054D01*
X24559073Y-59527831D01*
X24573102Y-59608920D01*
X24574030Y-59703228D01*
X24561641Y-59801662D01*
X24541774Y-59877944D01*
X24521423Y-59947037D01*
X24517475Y-59990409D01*
X24532101Y-60013073D01*
X24567474Y-60020042D01*
X24602706Y-60018521D01*
X24641759Y-60012885D01*
X24666059Y-59998407D01*
X24684928Y-59966472D01*
X24700145Y-59928466D01*
X24723691Y-59841140D01*
X24737425Y-59736503D01*
X24741008Y-59626591D01*
X24734101Y-59523441D01*
X24716364Y-59439089D01*
X24714136Y-59432584D01*
X24664441Y-59332761D01*
X24593726Y-59255890D01*
X24499537Y-59200209D01*
X24379423Y-59163953D01*
X24328175Y-59155146D01*
X24179895Y-59146089D01*
X24101600Y-59155042D01*
X24101600Y-59343621D01*
X24101600Y-59872969D01*
X24038100Y-59861338D01*
X23943654Y-59830597D01*
X23874193Y-59778772D01*
X23831514Y-59708031D01*
X23817410Y-59620542D01*
X23818569Y-59596196D01*
X23840878Y-59506163D01*
X23890870Y-59435325D01*
X23968789Y-59383432D01*
X24055034Y-59354526D01*
X24101600Y-59343621D01*
X24101600Y-59155042D01*
X24042749Y-59161773D01*
X23920739Y-59200791D01*
X23817864Y-59261738D01*
X23738124Y-59343211D01*
X23721208Y-59368337D01*
X23693483Y-59418430D01*
X23676804Y-59465877D01*
X23667747Y-59523668D01*
X23663657Y-59586809D01*
X23664294Y-59698733D01*
G36*
X23666315Y-61574096D02*
G01*
X23682683Y-61655319D01*
X23713782Y-61722364D01*
X23762701Y-61784523D01*
X23768170Y-61790286D01*
X23856868Y-61858552D01*
X23965381Y-61900665D01*
X24090874Y-61915650D01*
X24130121Y-61914778D01*
X24228600Y-61909666D01*
X24237768Y-61202426D01*
X24316380Y-61213201D01*
X24418965Y-61241563D01*
X24499901Y-61295150D01*
X24531344Y-61330559D01*
X24558929Y-61390500D01*
X24573220Y-61472663D01*
X24573991Y-61568025D01*
X24561017Y-61667566D01*
X24541618Y-61741081D01*
X24521652Y-61808760D01*
X24517761Y-61851226D01*
X24531946Y-61874064D01*
X24566205Y-61882864D01*
X24592667Y-61883748D01*
X24633102Y-61879089D01*
X24662206Y-61861014D01*
X24685073Y-61823375D01*
X24706798Y-61760022D01*
X24712862Y-61738673D01*
X24737467Y-61610412D01*
X24743089Y-61479459D01*
X24729728Y-61357672D01*
X24712863Y-61294692D01*
X24662305Y-61192851D01*
X24588307Y-61113663D01*
X24489924Y-61056539D01*
X24366212Y-61020892D01*
X24251706Y-61007629D01*
X24101600Y-61010996D01*
X24101600Y-61204242D01*
X24101600Y-61719337D01*
X24026947Y-61710923D01*
X23938598Y-61686488D01*
X23872207Y-61637719D01*
X23830469Y-61568135D01*
X23816078Y-61481256D01*
X23818995Y-61439258D01*
X23846436Y-61353436D01*
X23901648Y-61284533D01*
X23981489Y-61235635D01*
X24046567Y-61215732D01*
X24101600Y-61204242D01*
X24101600Y-61010996D01*
X24099906Y-61011034D01*
X23967883Y-61038841D01*
X23857289Y-61089756D01*
X23769777Y-61162487D01*
X23706997Y-61255741D01*
X23670603Y-61368226D01*
X23661593Y-61469400D01*
X23666315Y-61574096D01*
G37*
X23666315Y-61574096D02*
X23682683Y-61655319D01*
X23713782Y-61722364D01*
X23762701Y-61784523D01*
X23768170Y-61790286D01*
X23856868Y-61858552D01*
X23965381Y-61900665D01*
X24090874Y-61915650D01*
X24130121Y-61914778D01*
X24228600Y-61909666D01*
X24237768Y-61202426D01*
X24316380Y-61213201D01*
X24418965Y-61241563D01*
X24499901Y-61295150D01*
X24531344Y-61330559D01*
X24558929Y-61390500D01*
X24573220Y-61472663D01*
X24573991Y-61568025D01*
X24561017Y-61667566D01*
X24541618Y-61741081D01*
X24521652Y-61808760D01*
X24517761Y-61851226D01*
X24531946Y-61874064D01*
X24566205Y-61882864D01*
X24592667Y-61883748D01*
X24633102Y-61879089D01*
X24662206Y-61861014D01*
X24685073Y-61823375D01*
X24706798Y-61760022D01*
X24712862Y-61738673D01*
X24737467Y-61610412D01*
X24743089Y-61479459D01*
X24729728Y-61357672D01*
X24712863Y-61294692D01*
X24662305Y-61192851D01*
X24588307Y-61113663D01*
X24489924Y-61056539D01*
X24366212Y-61020892D01*
X24251706Y-61007629D01*
X24101600Y-61010996D01*
X24101600Y-61204242D01*
X24101600Y-61719337D01*
X24026947Y-61710923D01*
X23938598Y-61686488D01*
X23872207Y-61637719D01*
X23830469Y-61568135D01*
X23816078Y-61481256D01*
X23818995Y-61439258D01*
X23846436Y-61353436D01*
X23901648Y-61284533D01*
X23981489Y-61235635D01*
X24046567Y-61215732D01*
X24101600Y-61204242D01*
X24101600Y-61010996D01*
X24099906Y-61011034D01*
X23967883Y-61038841D01*
X23857289Y-61089756D01*
X23769777Y-61162487D01*
X23706997Y-61255741D01*
X23670603Y-61368226D01*
X23661593Y-61469400D01*
X23666315Y-61574096D01*
G36*
X24719667Y-63027266D02*
G01*
X24729989Y-62866400D01*
X24589782Y-62866400D01*
X24647155Y-62785966D01*
X24696419Y-62711436D01*
X24726251Y-62649290D01*
X24740894Y-62587697D01*
X24744593Y-62514825D01*
X24744590Y-62514236D01*
X24731519Y-62409116D01*
X24705537Y-62341466D01*
X24643429Y-62255257D01*
X24555293Y-62190617D01*
X24441098Y-62147534D01*
X24300813Y-62125995D01*
X24195172Y-62125293D01*
X24195172Y-62333000D01*
X24287245Y-62334887D01*
X24354749Y-62341361D01*
X24406815Y-62353639D01*
X24436423Y-62365183D01*
X24510380Y-62413542D01*
X24556562Y-62476907D01*
X24573108Y-62550523D01*
X24558155Y-62629637D01*
X24548468Y-62651340D01*
X24519849Y-62696655D01*
X24479161Y-62748306D01*
X24460364Y-62769033D01*
X24399527Y-62832533D01*
X24207634Y-62832533D01*
X24111078Y-62831170D01*
X24040966Y-62825096D01*
X23989923Y-62811332D01*
X23950572Y-62786899D01*
X23915535Y-62748818D01*
X23882007Y-62701036D01*
X23840807Y-62615782D01*
X23832659Y-62536075D01*
X23857123Y-62463874D01*
X23913755Y-62401139D01*
X23956142Y-62372696D01*
X23993401Y-62353880D01*
X24031723Y-62342064D01*
X24080416Y-62335702D01*
X24148792Y-62333246D01*
X24195172Y-62333000D01*
X24195172Y-62125293D01*
X24152476Y-62125008D01*
X24003542Y-62143185D01*
X23881302Y-62181917D01*
X23785876Y-62241099D01*
X23717388Y-62320630D01*
X23675958Y-62420406D01*
X23661709Y-62540323D01*
X23661705Y-62541107D01*
X23671973Y-62642020D01*
X23701630Y-62728465D01*
X23747849Y-62792680D01*
X23755895Y-62799799D01*
X23763217Y-62808788D01*
X23757778Y-62815622D01*
X23735560Y-62820814D01*
X23692544Y-62824876D01*
X23624708Y-62828319D01*
X23528034Y-62831656D01*
X23498900Y-62832533D01*
X23212600Y-62841000D01*
X23212600Y-63027266D01*
X24719667Y-63027266D01*
G37*
X24719667Y-63027266D02*
X24729989Y-62866400D01*
X24589782Y-62866400D01*
X24647155Y-62785966D01*
X24696419Y-62711436D01*
X24726251Y-62649290D01*
X24740894Y-62587697D01*
X24744593Y-62514825D01*
X24744590Y-62514236D01*
X24731519Y-62409116D01*
X24705537Y-62341466D01*
X24643429Y-62255257D01*
X24555293Y-62190617D01*
X24441098Y-62147534D01*
X24300813Y-62125995D01*
X24195172Y-62125293D01*
X24195172Y-62333000D01*
X24287245Y-62334887D01*
X24354749Y-62341361D01*
X24406815Y-62353639D01*
X24436423Y-62365183D01*
X24510380Y-62413542D01*
X24556562Y-62476907D01*
X24573108Y-62550523D01*
X24558155Y-62629637D01*
X24548468Y-62651340D01*
X24519849Y-62696655D01*
X24479161Y-62748306D01*
X24460364Y-62769033D01*
X24399527Y-62832533D01*
X24207634Y-62832533D01*
X24111078Y-62831170D01*
X24040966Y-62825096D01*
X23989923Y-62811332D01*
X23950572Y-62786899D01*
X23915535Y-62748818D01*
X23882007Y-62701036D01*
X23840807Y-62615782D01*
X23832659Y-62536075D01*
X23857123Y-62463874D01*
X23913755Y-62401139D01*
X23956142Y-62372696D01*
X23993401Y-62353880D01*
X24031723Y-62342064D01*
X24080416Y-62335702D01*
X24148792Y-62333246D01*
X24195172Y-62333000D01*
X24195172Y-62125293D01*
X24152476Y-62125008D01*
X24003542Y-62143185D01*
X23881302Y-62181917D01*
X23785876Y-62241099D01*
X23717388Y-62320630D01*
X23675958Y-62420406D01*
X23661709Y-62540323D01*
X23661705Y-62541107D01*
X23671973Y-62642020D01*
X23701630Y-62728465D01*
X23747849Y-62792680D01*
X23755895Y-62799799D01*
X23763217Y-62808788D01*
X23757778Y-62815622D01*
X23735560Y-62820814D01*
X23692544Y-62824876D01*
X23624708Y-62828319D01*
X23528034Y-62831656D01*
X23498900Y-62832533D01*
X23212600Y-62841000D01*
X23212600Y-63027266D01*
X24719667Y-63027266D01*
G36*
X23197479Y-64024948D02*
G01*
X23205334Y-64034759D01*
X23223331Y-64041890D01*
X23256103Y-64046747D01*
X23308288Y-64049736D01*
X23384521Y-64051261D01*
X23489438Y-64051729D01*
X23503784Y-64051733D01*
X23799811Y-64051733D01*
X23753406Y-64106766D01*
X23699648Y-64185483D01*
X23670337Y-64269851D01*
X23661335Y-64371855D01*
X23661333Y-64373466D01*
X23669547Y-64473613D01*
X23696729Y-64553420D01*
X23746697Y-64622833D01*
X23763623Y-64640144D01*
X23842783Y-64699510D01*
X23940595Y-64739802D01*
X24061137Y-64762282D01*
X24177800Y-64768296D01*
X24320220Y-64761982D01*
X24437278Y-64739944D01*
X24534346Y-64700686D01*
X24611363Y-64647429D01*
X24685271Y-64563316D01*
X24730887Y-64465180D01*
X24747178Y-64359091D01*
X24733112Y-64251124D01*
X24694461Y-64158784D01*
X24663842Y-64109184D01*
X24636690Y-64071641D01*
X24622653Y-64057293D01*
X24620123Y-64045812D01*
X24650760Y-64036438D01*
X24660400Y-64034909D01*
X24695489Y-64028203D01*
X24712978Y-64014951D01*
X24718994Y-63985508D01*
X24719667Y-63941666D01*
X24719667Y-63856999D01*
X24004313Y-63852730D01*
X24004313Y-64051733D01*
X24402459Y-64051733D01*
X24465264Y-64121250D01*
X24531733Y-64207561D01*
X24566617Y-64285576D01*
X24570466Y-64357686D01*
X24543831Y-64426283D01*
X24537634Y-64435841D01*
X24478862Y-64493778D01*
X24395277Y-64536068D01*
X24292947Y-64560965D01*
X24177940Y-64566724D01*
X24105176Y-64560238D01*
X23997359Y-64534934D01*
X23914486Y-64493975D01*
X23858792Y-64439095D01*
X23832507Y-64372030D01*
X23830667Y-64346885D01*
X23837836Y-64280671D01*
X23862490Y-64220294D01*
X23909348Y-64155756D01*
X23933955Y-64128063D01*
X24004313Y-64051733D01*
X24004313Y-63852730D01*
X23974600Y-63852552D01*
X23795481Y-63851564D01*
X23647223Y-63851001D01*
X23526821Y-63850956D01*
X23431270Y-63851527D01*
X23357566Y-63852809D01*
X23302705Y-63854897D01*
X23263683Y-63857888D01*
X23237493Y-63861876D01*
X23221133Y-63866958D01*
X23211598Y-63873229D01*
X23208367Y-63876955D01*
X23191200Y-63921940D01*
X23188118Y-63979788D01*
X23197479Y-64024948D01*
G37*
X23197479Y-64024948D02*
X23205334Y-64034759D01*
X23223331Y-64041890D01*
X23256103Y-64046747D01*
X23308288Y-64049736D01*
X23384521Y-64051261D01*
X23489438Y-64051729D01*
X23503784Y-64051733D01*
X23799811Y-64051733D01*
X23753406Y-64106766D01*
X23699648Y-64185483D01*
X23670337Y-64269851D01*
X23661335Y-64371855D01*
X23661333Y-64373466D01*
X23669547Y-64473613D01*
X23696729Y-64553420D01*
X23746697Y-64622833D01*
X23763623Y-64640144D01*
X23842783Y-64699510D01*
X23940595Y-64739802D01*
X24061137Y-64762282D01*
X24177800Y-64768296D01*
X24320220Y-64761982D01*
X24437278Y-64739944D01*
X24534346Y-64700686D01*
X24611363Y-64647429D01*
X24685271Y-64563316D01*
X24730887Y-64465180D01*
X24747178Y-64359091D01*
X24733112Y-64251124D01*
X24694461Y-64158784D01*
X24663842Y-64109184D01*
X24636690Y-64071641D01*
X24622653Y-64057293D01*
X24620123Y-64045812D01*
X24650760Y-64036438D01*
X24660400Y-64034909D01*
X24695489Y-64028203D01*
X24712978Y-64014951D01*
X24718994Y-63985508D01*
X24719667Y-63941666D01*
X24719667Y-63856999D01*
X24004313Y-63852730D01*
X24004313Y-64051733D01*
X24402459Y-64051733D01*
X24465264Y-64121250D01*
X24531733Y-64207561D01*
X24566617Y-64285576D01*
X24570466Y-64357686D01*
X24543831Y-64426283D01*
X24537634Y-64435841D01*
X24478862Y-64493778D01*
X24395277Y-64536068D01*
X24292947Y-64560965D01*
X24177940Y-64566724D01*
X24105176Y-64560238D01*
X23997359Y-64534934D01*
X23914486Y-64493975D01*
X23858792Y-64439095D01*
X23832507Y-64372030D01*
X23830667Y-64346885D01*
X23837836Y-64280671D01*
X23862490Y-64220294D01*
X23909348Y-64155756D01*
X23933955Y-64128063D01*
X24004313Y-64051733D01*
X24004313Y-63852730D01*
X23974600Y-63852552D01*
X23795481Y-63851564D01*
X23647223Y-63851001D01*
X23526821Y-63850956D01*
X23431270Y-63851527D01*
X23357566Y-63852809D01*
X23302705Y-63854897D01*
X23263683Y-63857888D01*
X23237493Y-63861876D01*
X23221133Y-63866958D01*
X23211598Y-63873229D01*
X23208367Y-63876955D01*
X23191200Y-63921940D01*
X23188118Y-63979788D01*
X23197479Y-64024948D01*
G36*
X23306004Y-55726414D02*
G01*
X23309356Y-55813607D01*
X23315073Y-55891502D01*
X23323117Y-55952919D01*
X23329107Y-55979082D01*
X23376934Y-56085679D01*
X23448139Y-56168143D01*
X23541033Y-56225115D01*
X23653932Y-56255240D01*
X23675244Y-56257616D01*
X23804482Y-56254713D01*
X23919692Y-56221782D01*
X24019175Y-56159404D01*
X24051138Y-56129513D01*
X24114189Y-56049848D01*
X24156179Y-55959845D01*
X24179427Y-55852602D01*
X24186267Y-55727485D01*
X24186267Y-55585926D01*
X24719667Y-55576600D01*
X24724661Y-55491282D01*
X24725324Y-55439968D01*
X24721489Y-55403486D01*
X24717605Y-55393916D01*
X24698576Y-55391287D01*
X24649344Y-55388856D01*
X24573573Y-55386687D01*
X24474927Y-55384843D01*
X24357068Y-55383388D01*
X24223661Y-55382386D01*
X24078369Y-55381902D01*
X24025965Y-55381866D01*
X24020409Y-55381874D01*
X24020409Y-55585066D01*
X24014438Y-55727770D01*
X24009100Y-55807290D01*
X23999750Y-55861909D01*
X23984468Y-55900529D01*
X23973554Y-55917224D01*
X23917467Y-55980054D01*
X23858033Y-56016492D01*
X23784024Y-56032086D01*
X23737534Y-56033800D01*
X23642315Y-56023458D01*
X23569999Y-55991229D01*
X23519093Y-55935305D01*
X23488102Y-55853882D01*
X23475535Y-55745152D01*
X23475093Y-55716300D01*
X23475067Y-55585066D01*
X24020409Y-55585066D01*
X24020409Y-55381874D01*
X23843165Y-55382146D01*
X23692004Y-55383027D01*
X23570261Y-55384574D01*
X23475711Y-55386852D01*
X23406132Y-55389925D01*
X23359301Y-55393859D01*
X23332996Y-55398716D01*
X23326054Y-55402186D01*
X23317009Y-55428208D01*
X23310520Y-55480819D01*
X23306548Y-55552843D01*
X23305056Y-55637100D01*
X23306004Y-55726414D01*
G37*
X23306004Y-55726414D02*
X23309356Y-55813607D01*
X23315073Y-55891502D01*
X23323117Y-55952919D01*
X23329107Y-55979082D01*
X23376934Y-56085679D01*
X23448139Y-56168143D01*
X23541033Y-56225115D01*
X23653932Y-56255240D01*
X23675244Y-56257616D01*
X23804482Y-56254713D01*
X23919692Y-56221782D01*
X24019175Y-56159404D01*
X24051138Y-56129513D01*
X24114189Y-56049848D01*
X24156179Y-55959845D01*
X24179427Y-55852602D01*
X24186267Y-55727485D01*
X24186267Y-55585926D01*
X24719667Y-55576600D01*
X24724661Y-55491282D01*
X24725324Y-55439968D01*
X24721489Y-55403486D01*
X24717605Y-55393916D01*
X24698576Y-55391287D01*
X24649344Y-55388856D01*
X24573573Y-55386687D01*
X24474927Y-55384843D01*
X24357068Y-55383388D01*
X24223661Y-55382386D01*
X24078369Y-55381902D01*
X24025965Y-55381866D01*
X24020409Y-55381874D01*
X24020409Y-55585066D01*
X24014438Y-55727770D01*
X24009100Y-55807290D01*
X23999750Y-55861909D01*
X23984468Y-55900529D01*
X23973554Y-55917224D01*
X23917467Y-55980054D01*
X23858033Y-56016492D01*
X23784024Y-56032086D01*
X23737534Y-56033800D01*
X23642315Y-56023458D01*
X23569999Y-55991229D01*
X23519093Y-55935305D01*
X23488102Y-55853882D01*
X23475535Y-55745152D01*
X23475093Y-55716300D01*
X23475067Y-55585066D01*
X24020409Y-55585066D01*
X24020409Y-55381874D01*
X23843165Y-55382146D01*
X23692004Y-55383027D01*
X23570261Y-55384574D01*
X23475711Y-55386852D01*
X23406132Y-55389925D01*
X23359301Y-55393859D01*
X23332996Y-55398716D01*
X23326054Y-55402186D01*
X23317009Y-55428208D01*
X23310520Y-55480819D01*
X23306548Y-55552843D01*
X23305056Y-55637100D01*
X23306004Y-55726414D01*
G36*
X23668093Y-57679919D02*
G01*
X23682500Y-57705095D01*
X23704932Y-57718079D01*
X23754501Y-57737996D01*
X23825663Y-57762901D01*
X23912871Y-57790852D01*
X24008467Y-57819301D01*
X24111540Y-57849029D01*
X24209451Y-57877562D01*
X24295115Y-57902811D01*
X24361446Y-57922692D01*
X24397883Y-57933985D01*
X24482500Y-57961233D01*
X24086861Y-58067716D01*
X23976427Y-58097668D01*
X23877217Y-58125013D01*
X23793806Y-58148454D01*
X23730771Y-58166695D01*
X23692686Y-58178440D01*
X23683321Y-58182101D01*
X23671603Y-58211198D01*
X23666743Y-58257979D01*
X23668940Y-58306924D01*
X23678394Y-58342513D01*
X23681210Y-58346706D01*
X23703471Y-58358964D01*
X23753538Y-58378501D01*
X23826549Y-58403677D01*
X23917639Y-58432853D01*
X24021944Y-58464386D01*
X24080434Y-58481355D01*
X24187352Y-58512314D01*
X24282481Y-58540593D01*
X24361279Y-58564784D01*
X24419207Y-58583474D01*
X24451725Y-58595255D01*
X24457154Y-58598381D01*
X24441592Y-58605459D01*
X24397961Y-58620264D01*
X24330805Y-58641389D01*
X24244665Y-58667423D01*
X24144083Y-58696957D01*
X24080387Y-58715287D01*
X23967328Y-58748466D01*
X23867091Y-58779584D01*
X23784169Y-58807124D01*
X23723055Y-58829566D01*
X23688241Y-58845394D01*
X23682500Y-58849757D01*
X23664306Y-58890255D01*
X23660560Y-58938517D01*
X23669536Y-58983608D01*
X23689507Y-59014598D01*
X23709712Y-59022040D01*
X23734780Y-59016918D01*
X23786500Y-59002939D01*
X23859970Y-58981647D01*
X23950288Y-58954586D01*
X24052552Y-58923302D01*
X24161860Y-58889338D01*
X24273308Y-58854239D01*
X24381996Y-58819549D01*
X24483022Y-58786813D01*
X24571482Y-58757575D01*
X24642475Y-58733379D01*
X24691098Y-58715770D01*
X24712450Y-58706292D01*
X24712724Y-58706049D01*
X24720898Y-58681205D01*
X24725147Y-58633512D01*
X24724773Y-58580546D01*
X24719667Y-58472199D01*
X24368213Y-58371322D01*
X24266649Y-58341429D01*
X24178528Y-58314062D01*
X24108185Y-58290687D01*
X24059957Y-58272773D01*
X24038179Y-58261787D01*
X24038013Y-58259566D01*
X24060458Y-58252046D01*
X24110217Y-58237620D01*
X24181800Y-58217806D01*
X24269719Y-58194124D01*
X24368486Y-58168091D01*
X24372534Y-58167035D01*
X24471651Y-58140667D01*
X24560119Y-58116121D01*
X24632444Y-58095006D01*
X24683130Y-58078926D01*
X24706685Y-58069487D01*
X24706967Y-58069284D01*
X24717311Y-58045795D01*
X24724499Y-58000772D01*
X24728143Y-57945480D01*
X24727849Y-57891184D01*
X24723228Y-57849151D01*
X24715226Y-57831221D01*
X24692277Y-57822102D01*
X24641960Y-57805135D01*
X24569301Y-57781828D01*
X24479329Y-57753694D01*
X24377071Y-57722242D01*
X24267554Y-57688983D01*
X24155806Y-57655428D01*
X24046854Y-57623088D01*
X23945726Y-57593473D01*
X23857449Y-57568094D01*
X23787051Y-57548462D01*
X23739559Y-57536087D01*
X23720752Y-57532399D01*
X23687478Y-57546893D01*
X23666053Y-57583343D01*
X23658812Y-57631200D01*
X23668093Y-57679919D01*
G37*
X23668093Y-57679919D02*
X23682500Y-57705095D01*
X23704932Y-57718079D01*
X23754501Y-57737996D01*
X23825663Y-57762901D01*
X23912871Y-57790852D01*
X24008467Y-57819301D01*
X24111540Y-57849029D01*
X24209451Y-57877562D01*
X24295115Y-57902811D01*
X24361446Y-57922692D01*
X24397883Y-57933985D01*
X24482500Y-57961233D01*
X24086861Y-58067716D01*
X23976427Y-58097668D01*
X23877217Y-58125013D01*
X23793806Y-58148454D01*
X23730771Y-58166695D01*
X23692686Y-58178440D01*
X23683321Y-58182101D01*
X23671603Y-58211198D01*
X23666743Y-58257979D01*
X23668940Y-58306924D01*
X23678394Y-58342513D01*
X23681210Y-58346706D01*
X23703471Y-58358964D01*
X23753538Y-58378501D01*
X23826549Y-58403677D01*
X23917639Y-58432853D01*
X24021944Y-58464386D01*
X24080434Y-58481355D01*
X24187352Y-58512314D01*
X24282481Y-58540593D01*
X24361279Y-58564784D01*
X24419207Y-58583474D01*
X24451725Y-58595255D01*
X24457154Y-58598381D01*
X24441592Y-58605459D01*
X24397961Y-58620264D01*
X24330805Y-58641389D01*
X24244665Y-58667423D01*
X24144083Y-58696957D01*
X24080387Y-58715287D01*
X23967328Y-58748466D01*
X23867091Y-58779584D01*
X23784169Y-58807124D01*
X23723055Y-58829566D01*
X23688241Y-58845394D01*
X23682500Y-58849757D01*
X23664306Y-58890255D01*
X23660560Y-58938517D01*
X23669536Y-58983608D01*
X23689507Y-59014598D01*
X23709712Y-59022040D01*
X23734780Y-59016918D01*
X23786500Y-59002939D01*
X23859970Y-58981647D01*
X23950288Y-58954586D01*
X24052552Y-58923302D01*
X24161860Y-58889338D01*
X24273308Y-58854239D01*
X24381996Y-58819549D01*
X24483022Y-58786813D01*
X24571482Y-58757575D01*
X24642475Y-58733379D01*
X24691098Y-58715770D01*
X24712450Y-58706292D01*
X24712724Y-58706049D01*
X24720898Y-58681205D01*
X24725147Y-58633512D01*
X24724773Y-58580546D01*
X24719667Y-58472199D01*
X24368213Y-58371322D01*
X24266649Y-58341429D01*
X24178528Y-58314062D01*
X24108185Y-58290687D01*
X24059957Y-58272773D01*
X24038179Y-58261787D01*
X24038013Y-58259566D01*
X24060458Y-58252046D01*
X24110217Y-58237620D01*
X24181800Y-58217806D01*
X24269719Y-58194124D01*
X24368486Y-58168091D01*
X24372534Y-58167035D01*
X24471651Y-58140667D01*
X24560119Y-58116121D01*
X24632444Y-58095006D01*
X24683130Y-58078926D01*
X24706685Y-58069487D01*
X24706967Y-58069284D01*
X24717311Y-58045795D01*
X24724499Y-58000772D01*
X24728143Y-57945480D01*
X24727849Y-57891184D01*
X24723228Y-57849151D01*
X24715226Y-57831221D01*
X24692277Y-57822102D01*
X24641960Y-57805135D01*
X24569301Y-57781828D01*
X24479329Y-57753694D01*
X24377071Y-57722242D01*
X24267554Y-57688983D01*
X24155806Y-57655428D01*
X24046854Y-57623088D01*
X23945726Y-57593473D01*
X23857449Y-57568094D01*
X23787051Y-57548462D01*
X23739559Y-57536087D01*
X23720752Y-57532399D01*
X23687478Y-57546893D01*
X23666053Y-57583343D01*
X23658812Y-57631200D01*
X23668093Y-57679919D01*
G36*
X23663093Y-60829354D02*
G01*
X23671917Y-60871478D01*
X23693118Y-60893175D01*
X23732012Y-60901140D01*
X23774053Y-60902133D01*
X23866215Y-60902133D01*
X23855267Y-60804766D01*
X23853103Y-60737570D01*
X23866783Y-60683643D01*
X23900746Y-60634871D01*
X23959432Y-60583138D01*
X23988270Y-60561644D01*
X24055881Y-60512666D01*
X24728134Y-60512666D01*
X24728134Y-60326400D01*
X23678912Y-60326400D01*
X23668287Y-60368733D01*
X23664063Y-60419816D01*
X23668287Y-60453400D01*
X23679824Y-60480611D01*
X23703310Y-60493033D01*
X23749526Y-60496288D01*
X23750556Y-60496296D01*
X23822200Y-60496860D01*
X23780855Y-60531272D01*
X23712812Y-60600158D01*
X23674314Y-60671831D01*
X23661384Y-60753903D01*
X23661334Y-60760104D01*
X23663093Y-60829354D01*
G37*
X23663093Y-60829354D02*
X23671917Y-60871478D01*
X23693118Y-60893175D01*
X23732012Y-60901140D01*
X23774053Y-60902133D01*
X23866215Y-60902133D01*
X23855267Y-60804766D01*
X23853103Y-60737570D01*
X23866783Y-60683643D01*
X23900746Y-60634871D01*
X23959432Y-60583138D01*
X23988270Y-60561644D01*
X24055881Y-60512666D01*
X24728134Y-60512666D01*
X24728134Y-60326400D01*
X23678912Y-60326400D01*
X23668287Y-60368733D01*
X23664063Y-60419816D01*
X23668287Y-60453400D01*
X23679824Y-60480611D01*
X23703310Y-60493033D01*
X23749526Y-60496288D01*
X23750556Y-60496296D01*
X23822200Y-60496860D01*
X23780855Y-60531272D01*
X23712812Y-60600158D01*
X23674314Y-60671831D01*
X23661384Y-60753903D01*
X23661334Y-60760104D01*
X23663093Y-60829354D01*
G36*
X23309158Y-69525520D02*
G01*
X23319583Y-69573369D01*
X23328869Y-69587053D01*
X23346740Y-69592256D01*
X23387651Y-69596378D01*
X23453351Y-69599456D01*
X23545590Y-69601525D01*
X23666118Y-69602624D01*
X23816683Y-69602788D01*
X23999035Y-69602055D01*
X24035836Y-69601827D01*
X24719667Y-69597400D01*
X24719667Y-69411133D01*
X24121387Y-69402666D01*
X23523107Y-69394200D01*
X24125620Y-69150865D01*
X24728134Y-68907531D01*
X24728134Y-68728157D01*
X24512234Y-68644447D01*
X24432083Y-68613445D01*
X24328310Y-68573420D01*
X24208920Y-68527453D01*
X24081921Y-68478626D01*
X23955319Y-68430019D01*
X23903640Y-68410201D01*
X23510947Y-68259666D01*
X24119540Y-68255222D01*
X24728134Y-68250777D01*
X24728134Y-68160677D01*
X24726166Y-68108040D01*
X24721119Y-68070310D01*
X24716845Y-68059288D01*
X24697026Y-68055964D01*
X24647786Y-68053235D01*
X24573562Y-68051085D01*
X24478794Y-68049496D01*
X24367921Y-68048453D01*
X24245382Y-68047936D01*
X24115616Y-68047931D01*
X23983062Y-68048419D01*
X23852159Y-68049384D01*
X23727345Y-68050809D01*
X23613061Y-68052677D01*
X23513744Y-68054970D01*
X23433835Y-68057673D01*
X23377771Y-68060768D01*
X23349993Y-68064237D01*
X23349169Y-68064514D01*
X23326854Y-68075175D01*
X23313869Y-68091468D01*
X23307701Y-68121586D01*
X23305837Y-68173724D01*
X23305733Y-68206163D01*
X23308019Y-68279779D01*
X23316094Y-68329170D01*
X23331785Y-68363747D01*
X23338006Y-68372327D01*
X23358364Y-68388925D01*
X23399182Y-68411818D01*
X23462550Y-68441930D01*
X23550559Y-68480188D01*
X23665297Y-68527515D01*
X23808854Y-68584840D01*
X23887929Y-68615910D01*
X24012192Y-68664781D01*
X24125750Y-68709918D01*
X24224912Y-68749816D01*
X24305984Y-68782969D01*
X24365275Y-68807873D01*
X24399092Y-68823023D01*
X24405664Y-68826933D01*
X24390607Y-68835142D01*
X24347844Y-68854517D01*
X24281054Y-68883490D01*
X24193912Y-68920496D01*
X24090096Y-68963967D01*
X23973284Y-69012338D01*
X23893841Y-69044962D01*
X23768435Y-69096874D01*
X23651813Y-69146239D01*
X23548040Y-69191255D01*
X23461176Y-69230118D01*
X23395283Y-69261024D01*
X23354423Y-69282169D01*
X23343833Y-69289214D01*
X23323419Y-69312522D01*
X23311833Y-69342243D01*
X23306728Y-69388021D01*
X23305733Y-69445878D01*
X23309158Y-69525520D01*
G37*
X23309158Y-69525520D02*
X23319583Y-69573369D01*
X23328869Y-69587053D01*
X23346740Y-69592256D01*
X23387651Y-69596378D01*
X23453351Y-69599456D01*
X23545590Y-69601525D01*
X23666118Y-69602624D01*
X23816683Y-69602788D01*
X23999035Y-69602055D01*
X24035836Y-69601827D01*
X24719667Y-69597400D01*
X24719667Y-69411133D01*
X24121387Y-69402666D01*
X23523107Y-69394200D01*
X24125620Y-69150865D01*
X24728134Y-68907531D01*
X24728134Y-68728157D01*
X24512234Y-68644447D01*
X24432083Y-68613445D01*
X24328310Y-68573420D01*
X24208920Y-68527453D01*
X24081921Y-68478626D01*
X23955319Y-68430019D01*
X23903640Y-68410201D01*
X23510947Y-68259666D01*
X24119540Y-68255222D01*
X24728134Y-68250777D01*
X24728134Y-68160677D01*
X24726166Y-68108040D01*
X24721119Y-68070310D01*
X24716845Y-68059288D01*
X24697026Y-68055964D01*
X24647786Y-68053235D01*
X24573562Y-68051085D01*
X24478794Y-68049496D01*
X24367921Y-68048453D01*
X24245382Y-68047936D01*
X24115616Y-68047931D01*
X23983062Y-68048419D01*
X23852159Y-68049384D01*
X23727345Y-68050809D01*
X23613061Y-68052677D01*
X23513744Y-68054970D01*
X23433835Y-68057673D01*
X23377771Y-68060768D01*
X23349993Y-68064237D01*
X23349169Y-68064514D01*
X23326854Y-68075175D01*
X23313869Y-68091468D01*
X23307701Y-68121586D01*
X23305837Y-68173724D01*
X23305733Y-68206163D01*
X23308019Y-68279779D01*
X23316094Y-68329170D01*
X23331785Y-68363747D01*
X23338006Y-68372327D01*
X23358364Y-68388925D01*
X23399182Y-68411818D01*
X23462550Y-68441930D01*
X23550559Y-68480188D01*
X23665297Y-68527515D01*
X23808854Y-68584840D01*
X23887929Y-68615910D01*
X24012192Y-68664781D01*
X24125750Y-68709918D01*
X24224912Y-68749816D01*
X24305984Y-68782969D01*
X24365275Y-68807873D01*
X24399092Y-68823023D01*
X24405664Y-68826933D01*
X24390607Y-68835142D01*
X24347844Y-68854517D01*
X24281054Y-68883490D01*
X24193912Y-68920496D01*
X24090096Y-68963967D01*
X23973284Y-69012338D01*
X23893841Y-69044962D01*
X23768435Y-69096874D01*
X23651813Y-69146239D01*
X23548040Y-69191255D01*
X23461176Y-69230118D01*
X23395283Y-69261024D01*
X23354423Y-69282169D01*
X23343833Y-69289214D01*
X23323419Y-69312522D01*
X23311833Y-69342243D01*
X23306728Y-69388021D01*
X23305733Y-69445878D01*
X23309158Y-69525520D01*
G36*
X23293630Y-70799969D02*
G01*
X23309230Y-70846327D01*
X23311307Y-70849374D01*
X23323041Y-70862200D01*
X23337317Y-70867798D01*
X23357317Y-70864127D01*
X23386225Y-70849144D01*
X23427223Y-70820809D01*
X23483494Y-70777081D01*
X23558221Y-70715917D01*
X23654586Y-70635276D01*
X23684905Y-70609750D01*
X23766388Y-70542222D01*
X23839883Y-70483442D01*
X23901266Y-70436535D01*
X23946411Y-70404628D01*
X23971194Y-70390848D01*
X23973920Y-70390662D01*
X23992509Y-70402655D01*
X24034075Y-70432254D01*
X24094653Y-70476545D01*
X24170277Y-70532612D01*
X24256982Y-70597542D01*
X24320623Y-70645551D01*
X24441091Y-70735328D01*
X24539231Y-70805527D01*
X24614139Y-70855541D01*
X24664913Y-70884762D01*
X24688582Y-70892800D01*
X24711046Y-70890843D01*
X24722831Y-70879750D01*
X24726646Y-70851687D01*
X24725204Y-70798821D01*
X24724708Y-70788397D01*
X24719667Y-70683994D01*
X24014631Y-70165360D01*
X24719667Y-70156200D01*
X24724661Y-70070882D01*
X24725324Y-70019568D01*
X24721489Y-69983086D01*
X24717605Y-69973516D01*
X24698606Y-69970923D01*
X24649349Y-69968521D01*
X24573445Y-69966372D01*
X24474504Y-69964537D01*
X24356135Y-69963077D01*
X24221948Y-69962052D01*
X24075553Y-69961525D01*
X24006412Y-69961466D01*
X23307268Y-69961466D01*
X23296170Y-70020622D01*
X23291466Y-70074144D01*
X23295499Y-70121292D01*
X23295726Y-70122222D01*
X23306379Y-70164666D01*
X23937747Y-70164666D01*
X23625973Y-70412083D01*
X23537117Y-70483364D01*
X23457133Y-70548988D01*
X23389903Y-70605651D01*
X23339312Y-70650047D01*
X23309241Y-70678871D01*
X23302690Y-70687249D01*
X23291140Y-70741107D01*
X23293630Y-70799969D01*
G37*
X23293630Y-70799969D02*
X23309230Y-70846327D01*
X23311307Y-70849374D01*
X23323041Y-70862200D01*
X23337317Y-70867798D01*
X23357317Y-70864127D01*
X23386225Y-70849144D01*
X23427223Y-70820809D01*
X23483494Y-70777081D01*
X23558221Y-70715917D01*
X23654586Y-70635276D01*
X23684905Y-70609750D01*
X23766388Y-70542222D01*
X23839883Y-70483442D01*
X23901266Y-70436535D01*
X23946411Y-70404628D01*
X23971194Y-70390848D01*
X23973920Y-70390662D01*
X23992509Y-70402655D01*
X24034075Y-70432254D01*
X24094653Y-70476545D01*
X24170277Y-70532612D01*
X24256982Y-70597542D01*
X24320623Y-70645551D01*
X24441091Y-70735328D01*
X24539231Y-70805527D01*
X24614139Y-70855541D01*
X24664913Y-70884762D01*
X24688582Y-70892800D01*
X24711046Y-70890843D01*
X24722831Y-70879750D01*
X24726646Y-70851687D01*
X24725204Y-70798821D01*
X24724708Y-70788397D01*
X24719667Y-70683994D01*
X24014631Y-70165360D01*
X24719667Y-70156200D01*
X24724661Y-70070882D01*
X24725324Y-70019568D01*
X24721489Y-69983086D01*
X24717605Y-69973516D01*
X24698606Y-69970923D01*
X24649349Y-69968521D01*
X24573445Y-69966372D01*
X24474504Y-69964537D01*
X24356135Y-69963077D01*
X24221948Y-69962052D01*
X24075553Y-69961525D01*
X24006412Y-69961466D01*
X23307268Y-69961466D01*
X23296170Y-70020622D01*
X23291466Y-70074144D01*
X23295499Y-70121292D01*
X23295726Y-70122222D01*
X23306379Y-70164666D01*
X23937747Y-70164666D01*
X23625973Y-70412083D01*
X23537117Y-70483364D01*
X23457133Y-70548988D01*
X23389903Y-70605651D01*
X23339312Y-70650047D01*
X23309241Y-70678871D01*
X23302690Y-70687249D01*
X23291140Y-70741107D01*
X23293630Y-70799969D01*
G36*
X29053816Y-45062159D02*
G01*
X29057451Y-45128252D01*
X29062972Y-45176635D01*
X29071884Y-45214995D01*
X29085694Y-45251020D01*
X29094442Y-45269614D01*
X29139715Y-45339941D01*
X29198461Y-45390403D01*
X29254500Y-45417717D01*
X29277955Y-45423212D01*
X29317839Y-45427844D01*
X29375931Y-45431704D01*
X29454009Y-45434881D01*
X29553851Y-45437469D01*
X29677235Y-45439556D01*
X29683125Y-45439636D01*
X30067300Y-45444830D01*
X30067300Y-45226700D01*
X29988842Y-45226700D01*
X30021232Y-45188205D01*
X30047018Y-45148909D01*
X30065864Y-45105488D01*
X30066741Y-45102480D01*
X30076465Y-45043102D01*
X30078368Y-44971963D01*
X30072696Y-44901389D01*
X30061718Y-44849817D01*
X30025090Y-44767813D01*
X29972710Y-44701446D01*
X29907610Y-44654027D01*
X29866946Y-44637053D01*
X29796711Y-44626080D01*
X29769147Y-44628475D01*
X29769147Y-44820973D01*
X29812080Y-44834988D01*
X29848602Y-44866230D01*
X29873388Y-44912598D01*
X29877704Y-44928970D01*
X29882129Y-44968083D01*
X29883312Y-45020132D01*
X29881586Y-45076073D01*
X29877280Y-45126864D01*
X29870725Y-45163459D01*
X29868921Y-45168953D01*
X29846019Y-45195598D01*
X29803469Y-45215120D01*
X29746503Y-45225525D01*
X29717696Y-45226700D01*
X29646232Y-45226700D01*
X29650391Y-45056233D01*
X29652360Y-44986824D01*
X29654857Y-44937978D01*
X29658712Y-44904862D01*
X29664757Y-44882641D01*
X29673823Y-44866482D01*
X29685338Y-44853033D01*
X29725125Y-44826288D01*
X29769147Y-44820973D01*
X29769147Y-44628475D01*
X29720444Y-44632707D01*
X29646441Y-44654878D01*
X29582996Y-44690539D01*
X29556798Y-44713873D01*
X29528492Y-44747951D01*
X29507521Y-44784162D01*
X29492677Y-44827196D01*
X29482754Y-44881742D01*
X29476542Y-44952490D01*
X29472967Y-45039375D01*
X29467631Y-45226700D01*
X29398330Y-45226700D01*
X29354224Y-45224235D01*
X29317355Y-45217934D01*
X29303389Y-45212977D01*
X29274985Y-45184633D01*
X29254214Y-45137065D01*
X29243106Y-45075823D01*
X29241800Y-45044545D01*
X29244766Y-44973652D01*
X29254656Y-44921716D01*
X29272957Y-44882880D01*
X29287517Y-44864582D01*
X29317432Y-44832303D01*
X29258528Y-44756451D01*
X29229110Y-44720102D01*
X29205114Y-44693257D01*
X29191048Y-44680901D01*
X29189951Y-44680600D01*
X29177014Y-44689499D01*
X29153867Y-44712437D01*
X29134370Y-44734234D01*
X29096606Y-44787763D01*
X29071194Y-44848028D01*
X29056922Y-44919964D01*
X29052578Y-45008503D01*
X29053816Y-45062159D01*
G37*
X29053816Y-45062159D02*
X29057451Y-45128252D01*
X29062972Y-45176635D01*
X29071884Y-45214995D01*
X29085694Y-45251020D01*
X29094442Y-45269614D01*
X29139715Y-45339941D01*
X29198461Y-45390403D01*
X29254500Y-45417717D01*
X29277955Y-45423212D01*
X29317839Y-45427844D01*
X29375931Y-45431704D01*
X29454009Y-45434881D01*
X29553851Y-45437469D01*
X29677235Y-45439556D01*
X29683125Y-45439636D01*
X30067300Y-45444830D01*
X30067300Y-45226700D01*
X29988842Y-45226700D01*
X30021232Y-45188205D01*
X30047018Y-45148909D01*
X30065864Y-45105488D01*
X30066741Y-45102480D01*
X30076465Y-45043102D01*
X30078368Y-44971963D01*
X30072696Y-44901389D01*
X30061718Y-44849817D01*
X30025090Y-44767813D01*
X29972710Y-44701446D01*
X29907610Y-44654027D01*
X29866946Y-44637053D01*
X29796711Y-44626080D01*
X29769147Y-44628475D01*
X29769147Y-44820973D01*
X29812080Y-44834988D01*
X29848602Y-44866230D01*
X29873388Y-44912598D01*
X29877704Y-44928970D01*
X29882129Y-44968083D01*
X29883312Y-45020132D01*
X29881586Y-45076073D01*
X29877280Y-45126864D01*
X29870725Y-45163459D01*
X29868921Y-45168953D01*
X29846019Y-45195598D01*
X29803469Y-45215120D01*
X29746503Y-45225525D01*
X29717696Y-45226700D01*
X29646232Y-45226700D01*
X29650391Y-45056233D01*
X29652360Y-44986824D01*
X29654857Y-44937978D01*
X29658712Y-44904862D01*
X29664757Y-44882641D01*
X29673823Y-44866482D01*
X29685338Y-44853033D01*
X29725125Y-44826288D01*
X29769147Y-44820973D01*
X29769147Y-44628475D01*
X29720444Y-44632707D01*
X29646441Y-44654878D01*
X29582996Y-44690539D01*
X29556798Y-44713873D01*
X29528492Y-44747951D01*
X29507521Y-44784162D01*
X29492677Y-44827196D01*
X29482754Y-44881742D01*
X29476542Y-44952490D01*
X29472967Y-45039375D01*
X29467631Y-45226700D01*
X29398330Y-45226700D01*
X29354224Y-45224235D01*
X29317355Y-45217934D01*
X29303389Y-45212977D01*
X29274985Y-45184633D01*
X29254214Y-45137065D01*
X29243106Y-45075823D01*
X29241800Y-45044545D01*
X29244766Y-44973652D01*
X29254656Y-44921716D01*
X29272957Y-44882880D01*
X29287517Y-44864582D01*
X29317432Y-44832303D01*
X29258528Y-44756451D01*
X29229110Y-44720102D01*
X29205114Y-44693257D01*
X29191048Y-44680901D01*
X29189951Y-44680600D01*
X29177014Y-44689499D01*
X29153867Y-44712437D01*
X29134370Y-44734234D01*
X29096606Y-44787763D01*
X29071194Y-44848028D01*
X29056922Y-44919964D01*
X29052578Y-45008503D01*
X29053816Y-45062159D01*
G36*
X30067300Y-47144400D02*
G01*
X30067300Y-46941200D01*
X30022850Y-46941200D01*
X29989539Y-46937831D01*
X29980161Y-46926660D01*
X29994015Y-46906086D01*
X30003533Y-46896990D01*
X30028001Y-46863723D01*
X30050609Y-46813972D01*
X30068306Y-46756628D01*
X30078041Y-46700579D01*
X30078997Y-46677198D01*
X30074043Y-46626767D01*
X30062991Y-46576078D01*
X30059462Y-46565093D01*
X30024173Y-46497772D01*
X29971090Y-46436108D01*
X29907680Y-46388372D01*
X29892641Y-46380341D01*
X29870977Y-46370297D01*
X29849781Y-46362813D01*
X29825005Y-46357514D01*
X29792599Y-46354024D01*
X29748513Y-46351970D01*
X29688699Y-46350975D01*
X29626713Y-46350735D01*
X29626713Y-46549371D01*
X29712169Y-46558609D01*
X29777449Y-46578308D01*
X29824283Y-46609046D01*
X29854402Y-46651404D01*
X29859545Y-46663937D01*
X29874480Y-46730522D01*
X29867133Y-46793045D01*
X29850838Y-46834409D01*
X29829476Y-46870971D01*
X29803305Y-46897698D01*
X29768263Y-46916018D01*
X29720292Y-46927363D01*
X29655330Y-46933161D01*
X29569316Y-46934844D01*
X29565650Y-46934846D01*
X29494569Y-46934320D01*
X29443341Y-46932291D01*
X29406429Y-46928084D01*
X29378300Y-46921027D01*
X29353418Y-46910446D01*
X29349750Y-46908578D01*
X29301155Y-46870739D01*
X29269533Y-46819974D01*
X29254949Y-46761879D01*
X29257464Y-46702051D01*
X29277143Y-46646089D01*
X29314048Y-46599589D01*
X29346013Y-46577754D01*
X29385810Y-46564381D01*
X29446954Y-46555072D01*
X29519352Y-46550014D01*
X29626713Y-46549371D01*
X29626713Y-46350735D01*
X29609107Y-46350666D01*
X29572000Y-46350650D01*
X29468146Y-46351256D01*
X29385917Y-46353695D01*
X29321550Y-46358895D01*
X29271286Y-46367786D01*
X29231364Y-46381297D01*
X29198024Y-46400356D01*
X29167506Y-46425893D01*
X29136601Y-46458221D01*
X29089257Y-46522300D01*
X29061947Y-46590101D01*
X29051690Y-46669692D01*
X29051424Y-46688673D01*
X29057805Y-46744450D01*
X29074526Y-46803465D01*
X29098230Y-46856837D01*
X29125561Y-46895682D01*
X29131828Y-46901480D01*
X29148878Y-46920087D01*
X29152900Y-46929786D01*
X29140837Y-46933277D01*
X29107201Y-46936654D01*
X29055817Y-46939697D01*
X28990511Y-46942190D01*
X28915108Y-46943912D01*
X28902075Y-46944106D01*
X28651250Y-46947550D01*
X28647540Y-47045975D01*
X28643831Y-47144400D01*
X30067300Y-47144400D01*
G37*
X30067300Y-47144400D02*
X30067300Y-46941200D01*
X30022850Y-46941200D01*
X29989539Y-46937831D01*
X29980161Y-46926660D01*
X29994015Y-46906086D01*
X30003533Y-46896990D01*
X30028001Y-46863723D01*
X30050609Y-46813972D01*
X30068306Y-46756628D01*
X30078041Y-46700579D01*
X30078997Y-46677198D01*
X30074043Y-46626767D01*
X30062991Y-46576078D01*
X30059462Y-46565093D01*
X30024173Y-46497772D01*
X29971090Y-46436108D01*
X29907680Y-46388372D01*
X29892641Y-46380341D01*
X29870977Y-46370297D01*
X29849781Y-46362813D01*
X29825005Y-46357514D01*
X29792599Y-46354024D01*
X29748513Y-46351970D01*
X29688699Y-46350975D01*
X29626713Y-46350735D01*
X29626713Y-46549371D01*
X29712169Y-46558609D01*
X29777449Y-46578308D01*
X29824283Y-46609046D01*
X29854402Y-46651404D01*
X29859545Y-46663937D01*
X29874480Y-46730522D01*
X29867133Y-46793045D01*
X29850838Y-46834409D01*
X29829476Y-46870971D01*
X29803305Y-46897698D01*
X29768263Y-46916018D01*
X29720292Y-46927363D01*
X29655330Y-46933161D01*
X29569316Y-46934844D01*
X29565650Y-46934846D01*
X29494569Y-46934320D01*
X29443341Y-46932291D01*
X29406429Y-46928084D01*
X29378300Y-46921027D01*
X29353418Y-46910446D01*
X29349750Y-46908578D01*
X29301155Y-46870739D01*
X29269533Y-46819974D01*
X29254949Y-46761879D01*
X29257464Y-46702051D01*
X29277143Y-46646089D01*
X29314048Y-46599589D01*
X29346013Y-46577754D01*
X29385810Y-46564381D01*
X29446954Y-46555072D01*
X29519352Y-46550014D01*
X29626713Y-46549371D01*
X29626713Y-46350735D01*
X29609107Y-46350666D01*
X29572000Y-46350650D01*
X29468146Y-46351256D01*
X29385917Y-46353695D01*
X29321550Y-46358895D01*
X29271286Y-46367786D01*
X29231364Y-46381297D01*
X29198024Y-46400356D01*
X29167506Y-46425893D01*
X29136601Y-46458221D01*
X29089257Y-46522300D01*
X29061947Y-46590101D01*
X29051690Y-46669692D01*
X29051424Y-46688673D01*
X29057805Y-46744450D01*
X29074526Y-46803465D01*
X29098230Y-46856837D01*
X29125561Y-46895682D01*
X29131828Y-46901480D01*
X29148878Y-46920087D01*
X29152900Y-46929786D01*
X29140837Y-46933277D01*
X29107201Y-46936654D01*
X29055817Y-46939697D01*
X28990511Y-46942190D01*
X28915108Y-46943912D01*
X28902075Y-46944106D01*
X28651250Y-46947550D01*
X28647540Y-47045975D01*
X28643831Y-47144400D01*
X30067300Y-47144400D01*
G36*
X29054008Y-49160611D02*
G01*
X29063418Y-49241197D01*
X29072727Y-49282850D01*
X29101196Y-49350513D01*
X29144335Y-49411617D01*
X29196780Y-49460183D01*
X29253169Y-49490232D01*
X29260850Y-49492561D01*
X29290105Y-49496859D01*
X29342643Y-49500455D01*
X29416356Y-49503281D01*
X29509136Y-49505268D01*
X29618872Y-49506346D01*
X29689475Y-49506529D01*
X30067300Y-49506600D01*
X30067300Y-49303400D01*
X29988842Y-49303400D01*
X30021232Y-49264905D01*
X30047018Y-49225609D01*
X30065864Y-49182188D01*
X30066741Y-49179180D01*
X30076965Y-49116645D01*
X30078576Y-49042588D01*
X30071985Y-48968875D01*
X30057606Y-48907371D01*
X30057246Y-48906360D01*
X30016402Y-48825647D01*
X29959951Y-48763247D01*
X29890875Y-48720719D01*
X29812150Y-48699622D01*
X29765675Y-48700651D01*
X29765675Y-48897403D01*
X29815479Y-48907714D01*
X29852107Y-48937144D01*
X29869632Y-48976051D01*
X29877525Y-49011474D01*
X29881956Y-49030350D01*
X29885704Y-49067406D01*
X29884187Y-49116819D01*
X29878444Y-49169357D01*
X29869514Y-49215788D01*
X29858437Y-49246880D01*
X29857400Y-49248566D01*
X29826366Y-49279607D01*
X29780566Y-49297361D01*
X29715863Y-49303378D01*
X29710873Y-49303400D01*
X29648200Y-49303400D01*
X29648200Y-49143815D01*
X29649967Y-49057498D01*
X29656238Y-48993354D01*
X29668462Y-48948342D01*
X29688090Y-48919416D01*
X29716573Y-48903536D01*
X29755361Y-48897659D01*
X29765675Y-48897403D01*
X29765675Y-48700651D01*
X29726758Y-48701514D01*
X29684092Y-48711099D01*
X29608784Y-48745724D01*
X29547434Y-48801113D01*
X29503577Y-48871600D01*
X29492699Y-48898973D01*
X29484872Y-48929868D01*
X29479442Y-48969445D01*
X29475756Y-49022863D01*
X29473162Y-49095280D01*
X29472629Y-49116075D01*
X29468070Y-49303400D01*
X29394442Y-49303400D01*
X29340003Y-49299717D01*
X29304719Y-49287882D01*
X29295436Y-49281175D01*
X29267493Y-49241977D01*
X29249580Y-49186789D01*
X29241671Y-49122604D01*
X29243742Y-49056416D01*
X29255768Y-48995218D01*
X29277725Y-48946004D01*
X29296705Y-48924250D01*
X29305903Y-48913524D01*
X29305623Y-48899894D01*
X29293808Y-48878219D01*
X29268396Y-48843356D01*
X29259830Y-48832175D01*
X29230690Y-48796010D01*
X29206779Y-48769438D01*
X29192692Y-48757513D01*
X29191735Y-48757300D01*
X29172164Y-48767725D01*
X29146131Y-48794867D01*
X29118129Y-48832524D01*
X29092646Y-48874495D01*
X29074173Y-48914579D01*
X29071066Y-48923948D01*
X29057786Y-48991971D01*
X29052116Y-49074197D01*
X29054008Y-49160611D01*
G37*
X29054008Y-49160611D02*
X29063418Y-49241197D01*
X29072727Y-49282850D01*
X29101196Y-49350513D01*
X29144335Y-49411617D01*
X29196780Y-49460183D01*
X29253169Y-49490232D01*
X29260850Y-49492561D01*
X29290105Y-49496859D01*
X29342643Y-49500455D01*
X29416356Y-49503281D01*
X29509136Y-49505268D01*
X29618872Y-49506346D01*
X29689475Y-49506529D01*
X30067300Y-49506600D01*
X30067300Y-49303400D01*
X29988842Y-49303400D01*
X30021232Y-49264905D01*
X30047018Y-49225609D01*
X30065864Y-49182188D01*
X30066741Y-49179180D01*
X30076965Y-49116645D01*
X30078576Y-49042588D01*
X30071985Y-48968875D01*
X30057606Y-48907371D01*
X30057246Y-48906360D01*
X30016402Y-48825647D01*
X29959951Y-48763247D01*
X29890875Y-48720719D01*
X29812150Y-48699622D01*
X29765675Y-48700651D01*
X29765675Y-48897403D01*
X29815479Y-48907714D01*
X29852107Y-48937144D01*
X29869632Y-48976051D01*
X29877525Y-49011474D01*
X29881956Y-49030350D01*
X29885704Y-49067406D01*
X29884187Y-49116819D01*
X29878444Y-49169357D01*
X29869514Y-49215788D01*
X29858437Y-49246880D01*
X29857400Y-49248566D01*
X29826366Y-49279607D01*
X29780566Y-49297361D01*
X29715863Y-49303378D01*
X29710873Y-49303400D01*
X29648200Y-49303400D01*
X29648200Y-49143815D01*
X29649967Y-49057498D01*
X29656238Y-48993354D01*
X29668462Y-48948342D01*
X29688090Y-48919416D01*
X29716573Y-48903536D01*
X29755361Y-48897659D01*
X29765675Y-48897403D01*
X29765675Y-48700651D01*
X29726758Y-48701514D01*
X29684092Y-48711099D01*
X29608784Y-48745724D01*
X29547434Y-48801113D01*
X29503577Y-48871600D01*
X29492699Y-48898973D01*
X29484872Y-48929868D01*
X29479442Y-48969445D01*
X29475756Y-49022863D01*
X29473162Y-49095280D01*
X29472629Y-49116075D01*
X29468070Y-49303400D01*
X29394442Y-49303400D01*
X29340003Y-49299717D01*
X29304719Y-49287882D01*
X29295436Y-49281175D01*
X29267493Y-49241977D01*
X29249580Y-49186789D01*
X29241671Y-49122604D01*
X29243742Y-49056416D01*
X29255768Y-48995218D01*
X29277725Y-48946004D01*
X29296705Y-48924250D01*
X29305903Y-48913524D01*
X29305623Y-48899894D01*
X29293808Y-48878219D01*
X29268396Y-48843356D01*
X29259830Y-48832175D01*
X29230690Y-48796010D01*
X29206779Y-48769438D01*
X29192692Y-48757513D01*
X29191735Y-48757300D01*
X29172164Y-48767725D01*
X29146131Y-48794867D01*
X29118129Y-48832524D01*
X29092646Y-48874495D01*
X29074173Y-48914579D01*
X29071066Y-48923948D01*
X29057786Y-48991971D01*
X29052116Y-49074197D01*
X29054008Y-49160611D01*
G36*
X29058454Y-50909979D02*
G01*
X29084872Y-51004183D01*
X29132754Y-51085323D01*
X29201598Y-51152502D01*
X29274356Y-51197044D01*
X29314112Y-51215600D01*
X29348416Y-51228016D01*
X29384727Y-51235825D01*
X29430501Y-51240560D01*
X29493197Y-51243755D01*
X29503503Y-51244157D01*
X29648200Y-51249696D01*
X29648200Y-50620855D01*
X29701075Y-50627947D01*
X29765584Y-50648735D01*
X29820310Y-50689954D01*
X29861002Y-50747248D01*
X29883120Y-50814527D01*
X29883582Y-50870890D01*
X29870629Y-50935375D01*
X29847379Y-50996821D01*
X29819995Y-51040572D01*
X29788810Y-51077634D01*
X29847061Y-51146192D01*
X29877148Y-51180623D01*
X29901249Y-51206412D01*
X29914395Y-51218256D01*
X29914719Y-51218404D01*
X29929992Y-51211975D01*
X29953596Y-51188590D01*
X29981489Y-51153475D01*
X30009626Y-51111854D01*
X30033965Y-51068953D01*
X30039938Y-51056579D01*
X30060740Y-50993408D01*
X30073630Y-50917174D01*
X30077945Y-50837555D01*
X30073024Y-50764229D01*
X30062963Y-50719450D01*
X30029816Y-50637789D01*
X29988297Y-50574214D01*
X29932974Y-50521579D01*
X29889500Y-50491396D01*
X29810243Y-50453776D01*
X29714021Y-50428450D01*
X29606604Y-50416396D01*
X29493767Y-50418592D01*
X29472041Y-50420717D01*
X29470400Y-50421032D01*
X29470400Y-50620855D01*
X29470400Y-51042665D01*
X29429125Y-51034799D01*
X29354087Y-51010316D01*
X29297216Y-50970005D01*
X29260091Y-50915780D01*
X29244290Y-50849554D01*
X29244976Y-50811514D01*
X29263036Y-50742027D01*
X29300710Y-50685961D01*
X29354883Y-50646629D01*
X29417524Y-50627947D01*
X29470400Y-50620855D01*
X29470400Y-50421032D01*
X29355352Y-50443177D01*
X29256486Y-50482287D01*
X29176227Y-50537330D01*
X29115358Y-50607588D01*
X29074664Y-50692342D01*
X29054928Y-50790876D01*
X29054004Y-50803608D01*
X29058454Y-50909979D01*
G37*
X29058454Y-50909979D02*
X29084872Y-51004183D01*
X29132754Y-51085323D01*
X29201598Y-51152502D01*
X29274356Y-51197044D01*
X29314112Y-51215600D01*
X29348416Y-51228016D01*
X29384727Y-51235825D01*
X29430501Y-51240560D01*
X29493197Y-51243755D01*
X29503503Y-51244157D01*
X29648200Y-51249696D01*
X29648200Y-50620855D01*
X29701075Y-50627947D01*
X29765584Y-50648735D01*
X29820310Y-50689954D01*
X29861002Y-50747248D01*
X29883120Y-50814527D01*
X29883582Y-50870890D01*
X29870629Y-50935375D01*
X29847379Y-50996821D01*
X29819995Y-51040572D01*
X29788810Y-51077634D01*
X29847061Y-51146192D01*
X29877148Y-51180623D01*
X29901249Y-51206412D01*
X29914395Y-51218256D01*
X29914719Y-51218404D01*
X29929992Y-51211975D01*
X29953596Y-51188590D01*
X29981489Y-51153475D01*
X30009626Y-51111854D01*
X30033965Y-51068953D01*
X30039938Y-51056579D01*
X30060740Y-50993408D01*
X30073630Y-50917174D01*
X30077945Y-50837555D01*
X30073024Y-50764229D01*
X30062963Y-50719450D01*
X30029816Y-50637789D01*
X29988297Y-50574214D01*
X29932974Y-50521579D01*
X29889500Y-50491396D01*
X29810243Y-50453776D01*
X29714021Y-50428450D01*
X29606604Y-50416396D01*
X29493767Y-50418592D01*
X29472041Y-50420717D01*
X29470400Y-50421032D01*
X29470400Y-50620855D01*
X29470400Y-51042665D01*
X29429125Y-51034799D01*
X29354087Y-51010316D01*
X29297216Y-50970005D01*
X29260091Y-50915780D01*
X29244290Y-50849554D01*
X29244976Y-50811514D01*
X29263036Y-50742027D01*
X29300710Y-50685961D01*
X29354883Y-50646629D01*
X29417524Y-50627947D01*
X29470400Y-50620855D01*
X29470400Y-50421032D01*
X29355352Y-50443177D01*
X29256486Y-50482287D01*
X29176227Y-50537330D01*
X29115358Y-50607588D01*
X29074664Y-50692342D01*
X29054928Y-50790876D01*
X29054004Y-50803608D01*
X29058454Y-50909979D01*
G36*
X27461190Y-44193421D02*
G01*
X27482129Y-44272612D01*
X27521542Y-44343596D01*
X27578228Y-44402677D01*
X27650983Y-44446158D01*
X27689031Y-44459763D01*
X27735449Y-44468650D01*
X27800939Y-44475067D01*
X27879313Y-44479012D01*
X27964382Y-44480482D01*
X28049958Y-44479476D01*
X28129853Y-44475992D01*
X28197877Y-44470028D01*
X28247843Y-44461582D01*
X28253981Y-44459933D01*
X28333175Y-44424483D01*
X28398435Y-44370466D01*
X28447398Y-44301927D01*
X28477698Y-44222915D01*
X28486970Y-44137473D01*
X28479336Y-44074425D01*
X28464371Y-44029303D01*
X28440208Y-43978065D01*
X28421946Y-43947175D01*
X28377940Y-43880499D01*
X28766169Y-43880500D01*
X28879377Y-43880699D01*
X28969333Y-43881358D01*
X29038186Y-43882567D01*
X29088081Y-43884415D01*
X29121164Y-43886992D01*
X29139583Y-43890389D01*
X29145484Y-43894695D01*
X29145024Y-43896375D01*
X29131554Y-43916891D01*
X29110915Y-43946228D01*
X29107928Y-43950350D01*
X29069967Y-44023010D01*
X29052145Y-44104569D01*
X29053993Y-44189077D01*
X29075040Y-44270583D01*
X29114820Y-44343137D01*
X29141328Y-44373939D01*
X29167541Y-44399722D01*
X29191240Y-44420481D01*
X29215473Y-44436791D01*
X29243283Y-44449226D01*
X29277717Y-44458357D01*
X29321821Y-44464760D01*
X29378640Y-44469006D01*
X29451220Y-44471671D01*
X29542607Y-44473326D01*
X29655846Y-44474546D01*
X29676775Y-44474744D01*
X30067300Y-44478439D01*
X30067300Y-44274200D01*
X29733925Y-44274180D01*
X29623684Y-44273909D01*
X29535772Y-44272752D01*
X29467119Y-44270173D01*
X29414658Y-44265634D01*
X29375319Y-44258598D01*
X29346033Y-44248527D01*
X29323731Y-44234884D01*
X29305345Y-44217132D01*
X29288931Y-44196275D01*
X29262747Y-44140671D01*
X29256118Y-44077894D01*
X29267715Y-44014937D01*
X29296214Y-43958792D01*
X29340287Y-43916451D01*
X29342251Y-43915208D01*
X29356970Y-43906689D01*
X29372625Y-43900019D01*
X29392452Y-43894926D01*
X29419685Y-43891140D01*
X29457561Y-43888388D01*
X29509315Y-43886401D01*
X29578181Y-43884907D01*
X29667396Y-43883635D01*
X29727575Y-43882917D01*
X30067300Y-43878985D01*
X30067300Y-43677300D01*
X27997728Y-43677300D01*
X27997728Y-43879688D01*
X28078563Y-43886455D01*
X28150950Y-43902280D01*
X28208509Y-43927203D01*
X28225542Y-43939381D01*
X28257250Y-43981200D01*
X28275372Y-44037001D01*
X28279100Y-44098816D01*
X28267626Y-44158677D01*
X28251271Y-44193345D01*
X28230234Y-44221004D01*
X28204380Y-44241046D01*
X28169531Y-44254612D01*
X28121513Y-44262841D01*
X28056148Y-44266871D01*
X27978150Y-44267850D01*
X27902452Y-44267270D01*
X27847176Y-44265195D01*
X27807363Y-44261116D01*
X27778053Y-44254526D01*
X27754364Y-44244955D01*
X27707816Y-44211606D01*
X27679679Y-44165506D01*
X27668571Y-44103620D01*
X27669456Y-44058327D01*
X27674135Y-44012168D01*
X27682335Y-43982503D01*
X27697748Y-43960426D01*
X27717525Y-43942436D01*
X27768344Y-43913353D01*
X27836238Y-43893175D01*
X27914826Y-43881941D01*
X27997728Y-43879688D01*
X27997728Y-43677300D01*
X27463800Y-43677300D01*
X27463800Y-43880500D01*
X27513741Y-43880500D01*
X27563682Y-43880499D01*
X27521234Y-43943577D01*
X27479541Y-44025207D01*
X27459927Y-44109720D01*
X27461190Y-44193421D01*
G37*
X27461190Y-44193421D02*
X27482129Y-44272612D01*
X27521542Y-44343596D01*
X27578228Y-44402677D01*
X27650983Y-44446158D01*
X27689031Y-44459763D01*
X27735449Y-44468650D01*
X27800939Y-44475067D01*
X27879313Y-44479012D01*
X27964382Y-44480482D01*
X28049958Y-44479476D01*
X28129853Y-44475992D01*
X28197877Y-44470028D01*
X28247843Y-44461582D01*
X28253981Y-44459933D01*
X28333175Y-44424483D01*
X28398435Y-44370466D01*
X28447398Y-44301927D01*
X28477698Y-44222915D01*
X28486970Y-44137473D01*
X28479336Y-44074425D01*
X28464371Y-44029303D01*
X28440208Y-43978065D01*
X28421946Y-43947175D01*
X28377940Y-43880499D01*
X28766169Y-43880500D01*
X28879377Y-43880699D01*
X28969333Y-43881358D01*
X29038186Y-43882567D01*
X29088081Y-43884415D01*
X29121164Y-43886992D01*
X29139583Y-43890389D01*
X29145484Y-43894695D01*
X29145024Y-43896375D01*
X29131554Y-43916891D01*
X29110915Y-43946228D01*
X29107928Y-43950350D01*
X29069967Y-44023010D01*
X29052145Y-44104569D01*
X29053993Y-44189077D01*
X29075040Y-44270583D01*
X29114820Y-44343137D01*
X29141328Y-44373939D01*
X29167541Y-44399722D01*
X29191240Y-44420481D01*
X29215473Y-44436791D01*
X29243283Y-44449226D01*
X29277717Y-44458357D01*
X29321821Y-44464760D01*
X29378640Y-44469006D01*
X29451220Y-44471671D01*
X29542607Y-44473326D01*
X29655846Y-44474546D01*
X29676775Y-44474744D01*
X30067300Y-44478439D01*
X30067300Y-44274200D01*
X29733925Y-44274180D01*
X29623684Y-44273909D01*
X29535772Y-44272752D01*
X29467119Y-44270173D01*
X29414658Y-44265634D01*
X29375319Y-44258598D01*
X29346033Y-44248527D01*
X29323731Y-44234884D01*
X29305345Y-44217132D01*
X29288931Y-44196275D01*
X29262747Y-44140671D01*
X29256118Y-44077894D01*
X29267715Y-44014937D01*
X29296214Y-43958792D01*
X29340287Y-43916451D01*
X29342251Y-43915208D01*
X29356970Y-43906689D01*
X29372625Y-43900019D01*
X29392452Y-43894926D01*
X29419685Y-43891140D01*
X29457561Y-43888388D01*
X29509315Y-43886401D01*
X29578181Y-43884907D01*
X29667396Y-43883635D01*
X29727575Y-43882917D01*
X30067300Y-43878985D01*
X30067300Y-43677300D01*
X27997728Y-43677300D01*
X27997728Y-43879688D01*
X28078563Y-43886455D01*
X28150950Y-43902280D01*
X28208509Y-43927203D01*
X28225542Y-43939381D01*
X28257250Y-43981200D01*
X28275372Y-44037001D01*
X28279100Y-44098816D01*
X28267626Y-44158677D01*
X28251271Y-44193345D01*
X28230234Y-44221004D01*
X28204380Y-44241046D01*
X28169531Y-44254612D01*
X28121513Y-44262841D01*
X28056148Y-44266871D01*
X27978150Y-44267850D01*
X27902452Y-44267270D01*
X27847176Y-44265195D01*
X27807363Y-44261116D01*
X27778053Y-44254526D01*
X27754364Y-44244955D01*
X27707816Y-44211606D01*
X27679679Y-44165506D01*
X27668571Y-44103620D01*
X27669456Y-44058327D01*
X27674135Y-44012168D01*
X27682335Y-43982503D01*
X27697748Y-43960426D01*
X27717525Y-43942436D01*
X27768344Y-43913353D01*
X27836238Y-43893175D01*
X27914826Y-43881941D01*
X27997728Y-43879688D01*
X27997728Y-43677300D01*
X27463800Y-43677300D01*
X27463800Y-43880500D01*
X27513741Y-43880500D01*
X27563682Y-43880499D01*
X27521234Y-43943577D01*
X27479541Y-44025207D01*
X27459927Y-44109720D01*
X27461190Y-44193421D01*
G36*
X29071296Y-46237634D02*
G01*
X29082589Y-46264925D01*
X29100983Y-46300848D01*
X29116573Y-46325054D01*
X29124154Y-46331600D01*
X29138075Y-46323984D01*
X29166199Y-46303656D01*
X29203409Y-46274394D01*
X29219475Y-46261213D01*
X29304274Y-46190827D01*
X29279434Y-46150088D01*
X29256648Y-46090288D01*
X29256052Y-46027850D01*
X29275918Y-45968678D01*
X29314514Y-45918672D01*
X29355615Y-45890275D01*
X29373946Y-45881557D01*
X29392380Y-45874818D01*
X29414334Y-45869804D01*
X29443226Y-45866261D01*
X29482470Y-45863934D01*
X29535484Y-45862569D01*
X29605685Y-45861913D01*
X29696489Y-45861710D01*
X29739790Y-45861700D01*
X30067300Y-45861700D01*
X30067300Y-45658500D01*
X29064000Y-45658500D01*
X29064000Y-45861700D01*
X29167579Y-45861700D01*
X29124178Y-45912403D01*
X29079068Y-45983844D01*
X29054802Y-46065379D01*
X29052005Y-46151734D01*
X29071296Y-46237634D01*
G37*
X29071296Y-46237634D02*
X29082589Y-46264925D01*
X29100983Y-46300848D01*
X29116573Y-46325054D01*
X29124154Y-46331600D01*
X29138075Y-46323984D01*
X29166199Y-46303656D01*
X29203409Y-46274394D01*
X29219475Y-46261213D01*
X29304274Y-46190827D01*
X29279434Y-46150088D01*
X29256648Y-46090288D01*
X29256052Y-46027850D01*
X29275918Y-45968678D01*
X29314514Y-45918672D01*
X29355615Y-45890275D01*
X29373946Y-45881557D01*
X29392380Y-45874818D01*
X29414334Y-45869804D01*
X29443226Y-45866261D01*
X29482470Y-45863934D01*
X29535484Y-45862569D01*
X29605685Y-45861913D01*
X29696489Y-45861710D01*
X29739790Y-45861700D01*
X30067300Y-45861700D01*
X30067300Y-45658500D01*
X29064000Y-45658500D01*
X29064000Y-45861700D01*
X29167579Y-45861700D01*
X29124178Y-45912403D01*
X29079068Y-45983844D01*
X29054802Y-46065379D01*
X29052005Y-46151734D01*
X29071296Y-46237634D01*
G36*
X29406327Y-48155965D02*
G01*
X29494140Y-48184749D01*
X29573003Y-48211346D01*
X29639983Y-48234708D01*
X29692148Y-48253784D01*
X29726565Y-48267526D01*
X29740302Y-48274882D01*
X29740293Y-48275512D01*
X29725907Y-48280991D01*
X29690339Y-48292039D01*
X29636948Y-48307686D01*
X29569095Y-48326961D01*
X29490142Y-48348896D01*
X29413250Y-48369872D01*
X29326851Y-48393311D01*
X29248170Y-48414784D01*
X29180650Y-48433339D01*
X29127738Y-48448027D01*
X29092878Y-48457897D01*
X29079875Y-48461840D01*
X29071031Y-48476135D01*
X29065824Y-48511975D01*
X29064006Y-48571134D01*
X29064000Y-48575867D01*
X29064984Y-48630727D01*
X29068272Y-48663483D01*
X29074367Y-48677370D01*
X29079875Y-48677884D01*
X29096529Y-48672313D01*
X29133314Y-48660381D01*
X29186146Y-48643400D01*
X29250941Y-48622684D01*
X29323616Y-48599545D01*
X29324350Y-48599312D01*
X29413486Y-48570951D01*
X29517583Y-48537771D01*
X29627416Y-48502717D01*
X29733761Y-48468730D01*
X29810125Y-48444289D01*
X30067300Y-48361907D01*
X30067300Y-48178771D01*
X29729972Y-48078215D01*
X29641839Y-48051714D01*
X29561939Y-48027250D01*
X29493434Y-48005826D01*
X29439487Y-47988446D01*
X29403260Y-47976114D01*
X29387914Y-47969833D01*
X29387646Y-47969570D01*
X29397992Y-47964018D01*
X29429695Y-47952371D01*
X29479718Y-47935616D01*
X29545027Y-47914740D01*
X29622584Y-47890732D01*
X29709355Y-47864578D01*
X29721798Y-47860881D01*
X30060950Y-47760281D01*
X30064685Y-47668056D01*
X30065272Y-47614940D01*
X30061466Y-47583484D01*
X30052822Y-47570255D01*
X30051985Y-47569909D01*
X30031911Y-47563177D01*
X29991801Y-47550139D01*
X29934787Y-47531788D01*
X29863998Y-47509118D01*
X29782566Y-47483122D01*
X29693620Y-47454793D01*
X29600291Y-47425125D01*
X29505710Y-47395111D01*
X29413007Y-47365744D01*
X29325313Y-47338018D01*
X29245758Y-47312926D01*
X29177473Y-47291461D01*
X29123588Y-47274617D01*
X29087234Y-47263386D01*
X29071542Y-47258763D01*
X29071184Y-47258700D01*
X29067929Y-47270424D01*
X29065443Y-47301698D01*
X29064118Y-47346675D01*
X29064000Y-47366053D01*
X29064000Y-47473406D01*
X29105275Y-47484657D01*
X29128882Y-47491061D01*
X29173070Y-47503019D01*
X29233898Y-47519464D01*
X29307423Y-47539333D01*
X29389704Y-47561559D01*
X29448102Y-47577329D01*
X29531210Y-47600017D01*
X29605535Y-47620784D01*
X29667765Y-47638666D01*
X29714586Y-47652697D01*
X29742684Y-47661912D01*
X29749479Y-47665100D01*
X29737834Y-47670459D01*
X29705034Y-47682438D01*
X29654145Y-47699999D01*
X29588229Y-47722103D01*
X29510350Y-47747713D01*
X29423573Y-47775790D01*
X29409827Y-47780198D01*
X29070350Y-47888947D01*
X29066584Y-47966917D01*
X29062819Y-48044887D01*
X29406327Y-48155965D01*
G37*
X29406327Y-48155965D02*
X29494140Y-48184749D01*
X29573003Y-48211346D01*
X29639983Y-48234708D01*
X29692148Y-48253784D01*
X29726565Y-48267526D01*
X29740302Y-48274882D01*
X29740293Y-48275512D01*
X29725907Y-48280991D01*
X29690339Y-48292039D01*
X29636948Y-48307686D01*
X29569095Y-48326961D01*
X29490142Y-48348896D01*
X29413250Y-48369872D01*
X29326851Y-48393311D01*
X29248170Y-48414784D01*
X29180650Y-48433339D01*
X29127738Y-48448027D01*
X29092878Y-48457897D01*
X29079875Y-48461840D01*
X29071031Y-48476135D01*
X29065824Y-48511975D01*
X29064006Y-48571134D01*
X29064000Y-48575867D01*
X29064984Y-48630727D01*
X29068272Y-48663483D01*
X29074367Y-48677370D01*
X29079875Y-48677884D01*
X29096529Y-48672313D01*
X29133314Y-48660381D01*
X29186146Y-48643400D01*
X29250941Y-48622684D01*
X29323616Y-48599545D01*
X29324350Y-48599312D01*
X29413486Y-48570951D01*
X29517583Y-48537771D01*
X29627416Y-48502717D01*
X29733761Y-48468730D01*
X29810125Y-48444289D01*
X30067300Y-48361907D01*
X30067300Y-48178771D01*
X29729972Y-48078215D01*
X29641839Y-48051714D01*
X29561939Y-48027250D01*
X29493434Y-48005826D01*
X29439487Y-47988446D01*
X29403260Y-47976114D01*
X29387914Y-47969833D01*
X29387646Y-47969570D01*
X29397992Y-47964018D01*
X29429695Y-47952371D01*
X29479718Y-47935616D01*
X29545027Y-47914740D01*
X29622584Y-47890732D01*
X29709355Y-47864578D01*
X29721798Y-47860881D01*
X30060950Y-47760281D01*
X30064685Y-47668056D01*
X30065272Y-47614940D01*
X30061466Y-47583484D01*
X30052822Y-47570255D01*
X30051985Y-47569909D01*
X30031911Y-47563177D01*
X29991801Y-47550139D01*
X29934787Y-47531788D01*
X29863998Y-47509118D01*
X29782566Y-47483122D01*
X29693620Y-47454793D01*
X29600291Y-47425125D01*
X29505710Y-47395111D01*
X29413007Y-47365744D01*
X29325313Y-47338018D01*
X29245758Y-47312926D01*
X29177473Y-47291461D01*
X29123588Y-47274617D01*
X29087234Y-47263386D01*
X29071542Y-47258763D01*
X29071184Y-47258700D01*
X29067929Y-47270424D01*
X29065443Y-47301698D01*
X29064118Y-47346675D01*
X29064000Y-47366053D01*
X29064000Y-47473406D01*
X29105275Y-47484657D01*
X29128882Y-47491061D01*
X29173070Y-47503019D01*
X29233898Y-47519464D01*
X29307423Y-47539333D01*
X29389704Y-47561559D01*
X29448102Y-47577329D01*
X29531210Y-47600017D01*
X29605535Y-47620784D01*
X29667765Y-47638666D01*
X29714586Y-47652697D01*
X29742684Y-47661912D01*
X29749479Y-47665100D01*
X29737834Y-47670459D01*
X29705034Y-47682438D01*
X29654145Y-47699999D01*
X29588229Y-47722103D01*
X29510350Y-47747713D01*
X29423573Y-47775790D01*
X29409827Y-47780198D01*
X29070350Y-47888947D01*
X29066584Y-47966917D01*
X29062819Y-48044887D01*
X29406327Y-48155965D01*
G36*
X29074333Y-50321057D02*
G01*
X29112622Y-50394246D01*
X29122488Y-50399716D01*
X29139952Y-50393851D01*
X29168622Y-50374672D01*
X29212107Y-50340199D01*
X29214033Y-50338616D01*
X29303166Y-50265289D01*
X29277247Y-50215561D01*
X29257060Y-50151921D01*
X29259553Y-50087884D01*
X29282995Y-50028988D01*
X29325652Y-49980771D01*
X29357002Y-49960644D01*
X29372996Y-49953813D01*
X29393066Y-49948520D01*
X29420431Y-49944575D01*
X29458312Y-49941789D01*
X29509931Y-49939972D01*
X29578507Y-49938934D01*
X29667262Y-49938485D01*
X29733925Y-49938419D01*
X30067300Y-49938400D01*
X30067300Y-49735200D01*
X29064000Y-49735200D01*
X29064000Y-49938400D01*
X29154192Y-49938400D01*
X29120308Y-49982824D01*
X29076725Y-50059975D01*
X29054467Y-50145669D01*
X29053637Y-50234500D01*
X29074333Y-50321057D01*
G37*
X29074333Y-50321057D02*
X29112622Y-50394246D01*
X29122488Y-50399716D01*
X29139952Y-50393851D01*
X29168622Y-50374672D01*
X29212107Y-50340199D01*
X29214033Y-50338616D01*
X29303166Y-50265289D01*
X29277247Y-50215561D01*
X29257060Y-50151921D01*
X29259553Y-50087884D01*
X29282995Y-50028988D01*
X29325652Y-49980771D01*
X29357002Y-49960644D01*
X29372996Y-49953813D01*
X29393066Y-49948520D01*
X29420431Y-49944575D01*
X29458312Y-49941789D01*
X29509931Y-49939972D01*
X29578507Y-49938934D01*
X29667262Y-49938485D01*
X29733925Y-49938419D01*
X30067300Y-49938400D01*
X30067300Y-49735200D01*
X29064000Y-49735200D01*
X29064000Y-49938400D01*
X29154192Y-49938400D01*
X29120308Y-49982824D01*
X29076725Y-50059975D01*
X29054467Y-50145669D01*
X29053637Y-50234500D01*
X29074333Y-50321057D01*
G36*
X27460261Y-43156561D02*
G01*
X27483420Y-43244365D01*
X27525087Y-43325004D01*
X27584531Y-43394832D01*
X27661016Y-43450199D01*
X27700630Y-43469354D01*
X27752298Y-43483940D01*
X27822364Y-43494053D01*
X27904222Y-43499698D01*
X27991269Y-43500880D01*
X28076899Y-43497607D01*
X28154509Y-43489882D01*
X28217493Y-43477713D01*
X28244094Y-43468884D01*
X28324122Y-43423140D01*
X28392060Y-43360000D01*
X28442951Y-43284779D01*
X28464271Y-43232800D01*
X28480205Y-43157169D01*
X28485624Y-43074754D01*
X28480032Y-43003189D01*
X28451240Y-42911796D01*
X28398765Y-42828478D01*
X28370443Y-42796871D01*
X28315083Y-42749574D01*
X28252564Y-42714939D01*
X28178672Y-42691668D01*
X28089188Y-42678460D01*
X27979898Y-42674016D01*
X27971800Y-42674000D01*
X27971800Y-42883550D01*
X28053778Y-42885136D01*
X28115353Y-42890905D01*
X28161380Y-42902370D01*
X28196715Y-42921044D01*
X28226213Y-42948442D01*
X28241621Y-42967659D01*
X28268853Y-43023826D01*
X28278226Y-43089797D01*
X28269691Y-43157263D01*
X28243195Y-43217917D01*
X28243149Y-43217989D01*
X28213408Y-43249957D01*
X28170144Y-43272818D01*
X28110257Y-43287461D01*
X28030646Y-43294777D01*
X27971315Y-43296021D01*
X27904704Y-43295524D01*
X27857144Y-43293147D01*
X27822307Y-43288004D01*
X27793864Y-43279209D01*
X27769055Y-43267725D01*
X27716463Y-43228083D01*
X27682130Y-43175812D01*
X27666062Y-43115943D01*
X27668266Y-43053509D01*
X27688746Y-42993542D01*
X27727509Y-42941073D01*
X27768643Y-42909636D01*
X27790911Y-42898434D01*
X27816138Y-42890928D01*
X27849802Y-42886414D01*
X27897383Y-42884191D01*
X27964360Y-42883553D01*
X27971800Y-42883550D01*
X27971800Y-42674000D01*
X27863271Y-42677572D01*
X27774843Y-42689253D01*
X27702104Y-42710491D01*
X27640642Y-42742732D01*
X27586049Y-42787423D01*
X27567387Y-42806664D01*
X27509175Y-42886644D01*
X27472405Y-42974052D01*
X27456345Y-43065240D01*
X27460261Y-43156561D01*
G37*
X27460261Y-43156561D02*
X27483420Y-43244365D01*
X27525087Y-43325004D01*
X27584531Y-43394832D01*
X27661016Y-43450199D01*
X27700630Y-43469354D01*
X27752298Y-43483940D01*
X27822364Y-43494053D01*
X27904222Y-43499698D01*
X27991269Y-43500880D01*
X28076899Y-43497607D01*
X28154509Y-43489882D01*
X28217493Y-43477713D01*
X28244094Y-43468884D01*
X28324122Y-43423140D01*
X28392060Y-43360000D01*
X28442951Y-43284779D01*
X28464271Y-43232800D01*
X28480205Y-43157169D01*
X28485624Y-43074754D01*
X28480032Y-43003189D01*
X28451240Y-42911796D01*
X28398765Y-42828478D01*
X28370443Y-42796871D01*
X28315083Y-42749574D01*
X28252564Y-42714939D01*
X28178672Y-42691668D01*
X28089188Y-42678460D01*
X27979898Y-42674016D01*
X27971800Y-42674000D01*
X27971800Y-42883550D01*
X28053778Y-42885136D01*
X28115353Y-42890905D01*
X28161380Y-42902370D01*
X28196715Y-42921044D01*
X28226213Y-42948442D01*
X28241621Y-42967659D01*
X28268853Y-43023826D01*
X28278226Y-43089797D01*
X28269691Y-43157263D01*
X28243195Y-43217917D01*
X28243149Y-43217989D01*
X28213408Y-43249957D01*
X28170144Y-43272818D01*
X28110257Y-43287461D01*
X28030646Y-43294777D01*
X27971315Y-43296021D01*
X27904704Y-43295524D01*
X27857144Y-43293147D01*
X27822307Y-43288004D01*
X27793864Y-43279209D01*
X27769055Y-43267725D01*
X27716463Y-43228083D01*
X27682130Y-43175812D01*
X27666062Y-43115943D01*
X27668266Y-43053509D01*
X27688746Y-42993542D01*
X27727509Y-42941073D01*
X27768643Y-42909636D01*
X27790911Y-42898434D01*
X27816138Y-42890928D01*
X27849802Y-42886414D01*
X27897383Y-42884191D01*
X27964360Y-42883553D01*
X27971800Y-42883550D01*
X27971800Y-42674000D01*
X27863271Y-42677572D01*
X27774843Y-42689253D01*
X27702104Y-42710491D01*
X27640642Y-42742732D01*
X27586049Y-42787423D01*
X27567387Y-42806664D01*
X27509175Y-42886644D01*
X27472405Y-42974052D01*
X27456345Y-43065240D01*
X27460261Y-43156561D01*
G36*
X27462812Y-45097644D02*
G01*
X27486645Y-45187719D01*
X27530211Y-45270868D01*
X27576277Y-45326477D01*
X27642491Y-45380430D01*
X27719355Y-45418930D01*
X27810391Y-45443134D01*
X27919124Y-45454198D01*
X27968625Y-45455204D01*
X28048000Y-45455300D01*
X28048000Y-44819149D01*
X28095625Y-44827626D01*
X28168470Y-44850643D01*
X28226085Y-44889758D01*
X28263898Y-44940947D01*
X28286234Y-45015086D01*
X28286630Y-45095327D01*
X28265823Y-45176327D01*
X28224550Y-45252746D01*
X28220033Y-45258978D01*
X28211370Y-45273722D01*
X28211480Y-45288586D01*
X28222694Y-45309198D01*
X28247340Y-45341184D01*
X28260932Y-45357758D01*
X28321050Y-45430609D01*
X28374253Y-45372728D01*
X28408870Y-45328066D01*
X28439455Y-45276873D01*
X28452283Y-45248491D01*
X28472065Y-45177142D01*
X28483548Y-45096616D01*
X28485670Y-45018129D01*
X28479381Y-44961673D01*
X28451261Y-44874189D01*
X28406722Y-44794799D01*
X28367095Y-44747741D01*
X28296576Y-44694994D01*
X28209770Y-44656320D01*
X28111495Y-44631659D01*
X28006570Y-44620951D01*
X27899812Y-44624135D01*
X27882900Y-44626907D01*
X27882900Y-44820935D01*
X27882900Y-45239400D01*
X27846797Y-45239400D01*
X27797739Y-45229471D01*
X27745846Y-45203728D01*
X27701191Y-45168233D01*
X27677862Y-45137681D01*
X27658205Y-45079292D01*
X27654644Y-45014458D01*
X27666941Y-44953252D01*
X27683042Y-44920603D01*
X27727487Y-44875333D01*
X27789983Y-44842384D01*
X27841625Y-44828386D01*
X27882900Y-44820935D01*
X27882900Y-44626907D01*
X27796039Y-44641150D01*
X27700069Y-44671937D01*
X27616720Y-44716434D01*
X27566369Y-44757784D01*
X27510490Y-44830713D01*
X27474656Y-44914656D01*
X27458790Y-45005129D01*
X27462812Y-45097644D01*
G37*
X27462812Y-45097644D02*
X27486645Y-45187719D01*
X27530211Y-45270868D01*
X27576277Y-45326477D01*
X27642491Y-45380430D01*
X27719355Y-45418930D01*
X27810391Y-45443134D01*
X27919124Y-45454198D01*
X27968625Y-45455204D01*
X28048000Y-45455300D01*
X28048000Y-44819149D01*
X28095625Y-44827626D01*
X28168470Y-44850643D01*
X28226085Y-44889758D01*
X28263898Y-44940947D01*
X28286234Y-45015086D01*
X28286630Y-45095327D01*
X28265823Y-45176327D01*
X28224550Y-45252746D01*
X28220033Y-45258978D01*
X28211370Y-45273722D01*
X28211480Y-45288586D01*
X28222694Y-45309198D01*
X28247340Y-45341184D01*
X28260932Y-45357758D01*
X28321050Y-45430609D01*
X28374253Y-45372728D01*
X28408870Y-45328066D01*
X28439455Y-45276873D01*
X28452283Y-45248491D01*
X28472065Y-45177142D01*
X28483548Y-45096616D01*
X28485670Y-45018129D01*
X28479381Y-44961673D01*
X28451261Y-44874189D01*
X28406722Y-44794799D01*
X28367095Y-44747741D01*
X28296576Y-44694994D01*
X28209770Y-44656320D01*
X28111495Y-44631659D01*
X28006570Y-44620951D01*
X27899812Y-44624135D01*
X27882900Y-44626907D01*
X27882900Y-44820935D01*
X27882900Y-45239400D01*
X27846797Y-45239400D01*
X27797739Y-45229471D01*
X27745846Y-45203728D01*
X27701191Y-45168233D01*
X27677862Y-45137681D01*
X27658205Y-45079292D01*
X27654644Y-45014458D01*
X27666941Y-44953252D01*
X27683042Y-44920603D01*
X27727487Y-44875333D01*
X27789983Y-44842384D01*
X27841625Y-44828386D01*
X27882900Y-44820935D01*
X27882900Y-44626907D01*
X27796039Y-44641150D01*
X27700069Y-44671937D01*
X27616720Y-44716434D01*
X27566369Y-44757784D01*
X27510490Y-44830713D01*
X27474656Y-44914656D01*
X27458790Y-45005129D01*
X27462812Y-45097644D01*
G36*
X27459875Y-47477638D02*
G01*
X27470863Y-47550050D01*
X27486470Y-47617153D01*
X27502608Y-47663463D01*
X27526094Y-47711513D01*
X27551172Y-47754591D01*
X27574218Y-47787166D01*
X27591609Y-47803705D01*
X27595124Y-47804713D01*
X27609428Y-47797053D01*
X27636951Y-47776833D01*
X27671895Y-47748327D01*
X27673985Y-47746546D01*
X27742171Y-47688293D01*
X27702384Y-47617793D01*
X27675654Y-47555163D01*
X27659054Y-47484333D01*
X27653361Y-47413252D01*
X27659351Y-47349870D01*
X27672460Y-47311220D01*
X27703429Y-47271645D01*
X27741871Y-47251080D01*
X27781954Y-47250063D01*
X27817848Y-47269127D01*
X27838039Y-47296006D01*
X27848632Y-47327308D01*
X27858069Y-47373926D01*
X27864313Y-47425789D01*
X27864329Y-47425997D01*
X27875029Y-47531510D01*
X27889940Y-47615195D01*
X27910528Y-47680474D01*
X27938261Y-47730770D01*
X27974605Y-47769505D01*
X28021027Y-47800102D01*
X28025682Y-47802538D01*
X28090737Y-47825173D01*
X28164710Y-47833981D01*
X28237406Y-47828622D01*
X28293261Y-47811432D01*
X28356159Y-47768115D01*
X28408476Y-47705065D01*
X28448742Y-47626261D01*
X28475490Y-47535678D01*
X28487250Y-47437293D01*
X28482552Y-47335084D01*
X28478652Y-47309500D01*
X28466251Y-47259581D01*
X28446586Y-47201642D01*
X28428766Y-47159040D01*
X28404704Y-47112583D01*
X28376759Y-47066116D01*
X28348633Y-47024970D01*
X28324026Y-46994479D01*
X28306641Y-46979975D01*
X28304107Y-46979460D01*
X28292204Y-46988412D01*
X28268673Y-47011868D01*
X28238340Y-47044984D01*
X28234634Y-47049192D01*
X28173618Y-47118765D01*
X28212923Y-47175893D01*
X28257031Y-47253238D01*
X28281489Y-47332124D01*
X28289291Y-47422350D01*
X28289300Y-47425804D01*
X28283322Y-47508156D01*
X28265224Y-47568434D01*
X28234758Y-47607017D01*
X28191676Y-47624285D01*
X28159793Y-47624585D01*
X28128723Y-47616943D01*
X28105234Y-47598830D01*
X28087757Y-47566872D01*
X28074726Y-47517695D01*
X28064572Y-47447923D01*
X28060772Y-47411506D01*
X28047031Y-47308003D01*
X28026979Y-47226226D01*
X27999008Y-47162938D01*
X27961506Y-47114903D01*
X27912864Y-47078884D01*
X27889250Y-47066803D01*
X27843732Y-47052071D01*
X27791717Y-47043746D01*
X27776423Y-47043078D01*
X27685658Y-47053081D01*
X27609383Y-47083925D01*
X27547670Y-47135540D01*
X27500588Y-47207857D01*
X27468210Y-47300806D01*
X27457449Y-47355695D01*
X27454929Y-47409620D01*
X27459875Y-47477638D01*
G37*
X27459875Y-47477638D02*
X27470863Y-47550050D01*
X27486470Y-47617153D01*
X27502608Y-47663463D01*
X27526094Y-47711513D01*
X27551172Y-47754591D01*
X27574218Y-47787166D01*
X27591609Y-47803705D01*
X27595124Y-47804713D01*
X27609428Y-47797053D01*
X27636951Y-47776833D01*
X27671895Y-47748327D01*
X27673985Y-47746546D01*
X27742171Y-47688293D01*
X27702384Y-47617793D01*
X27675654Y-47555163D01*
X27659054Y-47484333D01*
X27653361Y-47413252D01*
X27659351Y-47349870D01*
X27672460Y-47311220D01*
X27703429Y-47271645D01*
X27741871Y-47251080D01*
X27781954Y-47250063D01*
X27817848Y-47269127D01*
X27838039Y-47296006D01*
X27848632Y-47327308D01*
X27858069Y-47373926D01*
X27864313Y-47425789D01*
X27864329Y-47425997D01*
X27875029Y-47531510D01*
X27889940Y-47615195D01*
X27910528Y-47680474D01*
X27938261Y-47730770D01*
X27974605Y-47769505D01*
X28021027Y-47800102D01*
X28025682Y-47802538D01*
X28090737Y-47825173D01*
X28164710Y-47833981D01*
X28237406Y-47828622D01*
X28293261Y-47811432D01*
X28356159Y-47768115D01*
X28408476Y-47705065D01*
X28448742Y-47626261D01*
X28475490Y-47535678D01*
X28487250Y-47437293D01*
X28482552Y-47335084D01*
X28478652Y-47309500D01*
X28466251Y-47259581D01*
X28446586Y-47201642D01*
X28428766Y-47159040D01*
X28404704Y-47112583D01*
X28376759Y-47066116D01*
X28348633Y-47024970D01*
X28324026Y-46994479D01*
X28306641Y-46979975D01*
X28304107Y-46979460D01*
X28292204Y-46988412D01*
X28268673Y-47011868D01*
X28238340Y-47044984D01*
X28234634Y-47049192D01*
X28173618Y-47118765D01*
X28212923Y-47175893D01*
X28257031Y-47253238D01*
X28281489Y-47332124D01*
X28289291Y-47422350D01*
X28289300Y-47425804D01*
X28283322Y-47508156D01*
X28265224Y-47568434D01*
X28234758Y-47607017D01*
X28191676Y-47624285D01*
X28159793Y-47624585D01*
X28128723Y-47616943D01*
X28105234Y-47598830D01*
X28087757Y-47566872D01*
X28074726Y-47517695D01*
X28064572Y-47447923D01*
X28060772Y-47411506D01*
X28047031Y-47308003D01*
X28026979Y-47226226D01*
X27999008Y-47162938D01*
X27961506Y-47114903D01*
X27912864Y-47078884D01*
X27889250Y-47066803D01*
X27843732Y-47052071D01*
X27791717Y-47043746D01*
X27776423Y-47043078D01*
X27685658Y-47053081D01*
X27609383Y-47083925D01*
X27547670Y-47135540D01*
X27500588Y-47207857D01*
X27468210Y-47300806D01*
X27457449Y-47355695D01*
X27454929Y-47409620D01*
X27459875Y-47477638D01*
G36*
X27462019Y-48437972D02*
G01*
X27487445Y-48525837D01*
X27532865Y-48607557D01*
X27591814Y-48673249D01*
X27636186Y-48709597D01*
X27680259Y-48736526D01*
X27728892Y-48755329D01*
X27786948Y-48767298D01*
X27859288Y-48773726D01*
X27950773Y-48775905D01*
X27978150Y-48775935D01*
X28055134Y-48775342D01*
X28112244Y-48773542D01*
X28154999Y-48769926D01*
X28188917Y-48763883D01*
X28219519Y-48754803D01*
X28240314Y-48746956D01*
X28307308Y-48709494D01*
X28371354Y-48654687D01*
X28424696Y-48590134D01*
X28453920Y-48537808D01*
X28474974Y-48467428D01*
X28484918Y-48385673D01*
X28482530Y-48304565D01*
X28479671Y-48284679D01*
X28451178Y-48191052D01*
X28401403Y-48108412D01*
X28333207Y-48040477D01*
X28255822Y-47993781D01*
X28197692Y-47975332D01*
X28121567Y-47962479D01*
X28034240Y-47955284D01*
X27971315Y-47954272D01*
X27971315Y-48160678D01*
X28063996Y-48163585D01*
X28135087Y-48173014D01*
X28187927Y-48190632D01*
X28225857Y-48218102D01*
X28252218Y-48257090D01*
X28270350Y-48309258D01*
X28270473Y-48309741D01*
X28278302Y-48383972D01*
X28263230Y-48451099D01*
X28241190Y-48489617D01*
X28212934Y-48522223D01*
X28181364Y-48545337D01*
X28141638Y-48560458D01*
X28088916Y-48569089D01*
X28018357Y-48572730D01*
X27971800Y-48573150D01*
X27902732Y-48572624D01*
X27853571Y-48570578D01*
X27818839Y-48566309D01*
X27793057Y-48559112D01*
X27770744Y-48548284D01*
X27768643Y-48547063D01*
X27712640Y-48501301D01*
X27678672Y-48442961D01*
X27667004Y-48372502D01*
X27667000Y-48371048D01*
X27676445Y-48297654D01*
X27705288Y-48240164D01*
X27754283Y-48197228D01*
X27769055Y-48188975D01*
X27797110Y-48176227D01*
X27825981Y-48167912D01*
X27861996Y-48163143D01*
X27911485Y-48161035D01*
X27971315Y-48160678D01*
X27971315Y-47954272D01*
X27942507Y-47953808D01*
X27853161Y-47958114D01*
X27772997Y-47968264D01*
X27708810Y-47984319D01*
X27697417Y-47988688D01*
X27614850Y-48035816D01*
X27548856Y-48098973D01*
X27500006Y-48174462D01*
X27468870Y-48258589D01*
X27456018Y-48347658D01*
X27462019Y-48437972D01*
G37*
X27462019Y-48437972D02*
X27487445Y-48525837D01*
X27532865Y-48607557D01*
X27591814Y-48673249D01*
X27636186Y-48709597D01*
X27680259Y-48736526D01*
X27728892Y-48755329D01*
X27786948Y-48767298D01*
X27859288Y-48773726D01*
X27950773Y-48775905D01*
X27978150Y-48775935D01*
X28055134Y-48775342D01*
X28112244Y-48773542D01*
X28154999Y-48769926D01*
X28188917Y-48763883D01*
X28219519Y-48754803D01*
X28240314Y-48746956D01*
X28307308Y-48709494D01*
X28371354Y-48654687D01*
X28424696Y-48590134D01*
X28453920Y-48537808D01*
X28474974Y-48467428D01*
X28484918Y-48385673D01*
X28482530Y-48304565D01*
X28479671Y-48284679D01*
X28451178Y-48191052D01*
X28401403Y-48108412D01*
X28333207Y-48040477D01*
X28255822Y-47993781D01*
X28197692Y-47975332D01*
X28121567Y-47962479D01*
X28034240Y-47955284D01*
X27971315Y-47954272D01*
X27971315Y-48160678D01*
X28063996Y-48163585D01*
X28135087Y-48173014D01*
X28187927Y-48190632D01*
X28225857Y-48218102D01*
X28252218Y-48257090D01*
X28270350Y-48309258D01*
X28270473Y-48309741D01*
X28278302Y-48383972D01*
X28263230Y-48451099D01*
X28241190Y-48489617D01*
X28212934Y-48522223D01*
X28181364Y-48545337D01*
X28141638Y-48560458D01*
X28088916Y-48569089D01*
X28018357Y-48572730D01*
X27971800Y-48573150D01*
X27902732Y-48572624D01*
X27853571Y-48570578D01*
X27818839Y-48566309D01*
X27793057Y-48559112D01*
X27770744Y-48548284D01*
X27768643Y-48547063D01*
X27712640Y-48501301D01*
X27678672Y-48442961D01*
X27667004Y-48372502D01*
X27667000Y-48371048D01*
X27676445Y-48297654D01*
X27705288Y-48240164D01*
X27754283Y-48197228D01*
X27769055Y-48188975D01*
X27797110Y-48176227D01*
X27825981Y-48167912D01*
X27861996Y-48163143D01*
X27911485Y-48161035D01*
X27971315Y-48160678D01*
X27971315Y-47954272D01*
X27942507Y-47953808D01*
X27853161Y-47958114D01*
X27772997Y-47968264D01*
X27708810Y-47984319D01*
X27697417Y-47988688D01*
X27614850Y-48035816D01*
X27548856Y-48098973D01*
X27500006Y-48174462D01*
X27468870Y-48258589D01*
X27456018Y-48347658D01*
X27462019Y-48437972D01*
G36*
X27811642Y-49166298D02*
G01*
X27915312Y-49167507D01*
X27996674Y-49168802D01*
X28058818Y-49170426D01*
X28104834Y-49172618D01*
X28137813Y-49175620D01*
X28160847Y-49179673D01*
X28177026Y-49185018D01*
X28189440Y-49191895D01*
X28195537Y-49196234D01*
X28242651Y-49239209D01*
X28268881Y-49285187D01*
X28278309Y-49341821D01*
X28278527Y-49351743D01*
X28269809Y-49422195D01*
X28241517Y-49477286D01*
X28192273Y-49519376D01*
X28175193Y-49528825D01*
X28156956Y-49537542D01*
X28138603Y-49544280D01*
X28116721Y-49549294D01*
X28087896Y-49552837D01*
X28048715Y-49555164D01*
X27995762Y-49556529D01*
X27925626Y-49557186D01*
X27834893Y-49557389D01*
X27791309Y-49557400D01*
X27463800Y-49557400D01*
X27463800Y-49760600D01*
X28479800Y-49760600D01*
X28479800Y-49557400D01*
X28379917Y-49557400D01*
X28422365Y-49494322D01*
X28465571Y-49411129D01*
X28486645Y-49324940D01*
X28484609Y-49240358D01*
X28480583Y-49220850D01*
X28446720Y-49132924D01*
X28392289Y-49059475D01*
X28318604Y-49002080D01*
X28282950Y-48983471D01*
X28263884Y-48975093D01*
X28245192Y-48968493D01*
X28223695Y-48963457D01*
X28196216Y-48959773D01*
X28159576Y-48957230D01*
X28110598Y-48955615D01*
X28046104Y-48954716D01*
X27962916Y-48954321D01*
X27857856Y-48954218D01*
X27844800Y-48954215D01*
X27470150Y-48954150D01*
X27466470Y-49058348D01*
X27462791Y-49162546D01*
X27811642Y-49166298D01*
G37*
X27811642Y-49166298D02*
X27915312Y-49167507D01*
X27996674Y-49168802D01*
X28058818Y-49170426D01*
X28104834Y-49172618D01*
X28137813Y-49175620D01*
X28160847Y-49179673D01*
X28177026Y-49185018D01*
X28189440Y-49191895D01*
X28195537Y-49196234D01*
X28242651Y-49239209D01*
X28268881Y-49285187D01*
X28278309Y-49341821D01*
X28278527Y-49351743D01*
X28269809Y-49422195D01*
X28241517Y-49477286D01*
X28192273Y-49519376D01*
X28175193Y-49528825D01*
X28156956Y-49537542D01*
X28138603Y-49544280D01*
X28116721Y-49549294D01*
X28087896Y-49552837D01*
X28048715Y-49555164D01*
X27995762Y-49556529D01*
X27925626Y-49557186D01*
X27834893Y-49557389D01*
X27791309Y-49557400D01*
X27463800Y-49557400D01*
X27463800Y-49760600D01*
X28479800Y-49760600D01*
X28479800Y-49557400D01*
X28379917Y-49557400D01*
X28422365Y-49494322D01*
X28465571Y-49411129D01*
X28486645Y-49324940D01*
X28484609Y-49240358D01*
X28480583Y-49220850D01*
X28446720Y-49132924D01*
X28392289Y-49059475D01*
X28318604Y-49002080D01*
X28282950Y-48983471D01*
X28263884Y-48975093D01*
X28245192Y-48968493D01*
X28223695Y-48963457D01*
X28196216Y-48959773D01*
X28159576Y-48957230D01*
X28110598Y-48955615D01*
X28046104Y-48954716D01*
X27962916Y-48954321D01*
X27857856Y-48954218D01*
X27844800Y-48954215D01*
X27470150Y-48954150D01*
X27466470Y-49058348D01*
X27462791Y-49162546D01*
X27811642Y-49166298D01*
G36*
X27455773Y-51127261D02*
G01*
X27464154Y-51175323D01*
X27469172Y-51195778D01*
X27498513Y-51278448D01*
X27540900Y-51355814D01*
X27591025Y-51418384D01*
X27596773Y-51423946D01*
X27619134Y-51443284D01*
X27633796Y-51446066D01*
X27651400Y-51433308D01*
X27655566Y-51429563D01*
X27680413Y-51404232D01*
X27710099Y-51370175D01*
X27719563Y-51358512D01*
X27756628Y-51311775D01*
X27715376Y-51253251D01*
X27691238Y-51214656D01*
X27677691Y-51178188D01*
X27671076Y-51132357D01*
X27669586Y-51109489D01*
X27673426Y-51028287D01*
X27695395Y-50963642D01*
X27736745Y-50913130D01*
X27788385Y-50879336D01*
X27823036Y-50863726D01*
X27856753Y-50854159D01*
X27897597Y-50849234D01*
X27953628Y-50847552D01*
X27971800Y-50847472D01*
X28034284Y-50848488D01*
X28079392Y-50852586D01*
X28115084Y-50861054D01*
X28149320Y-50875183D01*
X28152533Y-50876743D01*
X28210307Y-50918082D01*
X28251108Y-50974342D01*
X28274112Y-51040837D01*
X28278497Y-51112883D01*
X28263437Y-51185794D01*
X28228109Y-51254886D01*
X28220788Y-51264924D01*
X28185994Y-51310541D01*
X28223548Y-51357895D01*
X28252521Y-51392364D01*
X28280177Y-51422058D01*
X28287900Y-51429443D01*
X28308324Y-51445643D01*
X28323145Y-51444530D01*
X28341578Y-51429443D01*
X28385997Y-51379057D01*
X28427694Y-51313313D01*
X28460738Y-51242049D01*
X28469027Y-51218053D01*
X28484174Y-51160562D01*
X28489929Y-51109305D01*
X28486854Y-51053048D01*
X28479688Y-51004331D01*
X28457148Y-50927311D01*
X28418156Y-50849533D01*
X28368633Y-50782267D01*
X28356163Y-50769258D01*
X28283623Y-50714553D01*
X28193732Y-50673853D01*
X28091045Y-50648303D01*
X27980113Y-50639047D01*
X27868746Y-50646748D01*
X27753634Y-50673223D01*
X27657543Y-50716469D01*
X27580190Y-50776754D01*
X27521289Y-50854343D01*
X27480556Y-50949504D01*
X27462662Y-51026946D01*
X27455453Y-51082407D01*
X27455773Y-51127261D01*
G37*
X27455773Y-51127261D02*
X27464154Y-51175323D01*
X27469172Y-51195778D01*
X27498513Y-51278448D01*
X27540900Y-51355814D01*
X27591025Y-51418384D01*
X27596773Y-51423946D01*
X27619134Y-51443284D01*
X27633796Y-51446066D01*
X27651400Y-51433308D01*
X27655566Y-51429563D01*
X27680413Y-51404232D01*
X27710099Y-51370175D01*
X27719563Y-51358512D01*
X27756628Y-51311775D01*
X27715376Y-51253251D01*
X27691238Y-51214656D01*
X27677691Y-51178188D01*
X27671076Y-51132357D01*
X27669586Y-51109489D01*
X27673426Y-51028287D01*
X27695395Y-50963642D01*
X27736745Y-50913130D01*
X27788385Y-50879336D01*
X27823036Y-50863726D01*
X27856753Y-50854159D01*
X27897597Y-50849234D01*
X27953628Y-50847552D01*
X27971800Y-50847472D01*
X28034284Y-50848488D01*
X28079392Y-50852586D01*
X28115084Y-50861054D01*
X28149320Y-50875183D01*
X28152533Y-50876743D01*
X28210307Y-50918082D01*
X28251108Y-50974342D01*
X28274112Y-51040837D01*
X28278497Y-51112883D01*
X28263437Y-51185794D01*
X28228109Y-51254886D01*
X28220788Y-51264924D01*
X28185994Y-51310541D01*
X28223548Y-51357895D01*
X28252521Y-51392364D01*
X28280177Y-51422058D01*
X28287900Y-51429443D01*
X28308324Y-51445643D01*
X28323145Y-51444530D01*
X28341578Y-51429443D01*
X28385997Y-51379057D01*
X28427694Y-51313313D01*
X28460738Y-51242049D01*
X28469027Y-51218053D01*
X28484174Y-51160562D01*
X28489929Y-51109305D01*
X28486854Y-51053048D01*
X28479688Y-51004331D01*
X28457148Y-50927311D01*
X28418156Y-50849533D01*
X28368633Y-50782267D01*
X28356163Y-50769258D01*
X28283623Y-50714553D01*
X28193732Y-50673853D01*
X28091045Y-50648303D01*
X27980113Y-50639047D01*
X27868746Y-50646748D01*
X27753634Y-50673223D01*
X27657543Y-50716469D01*
X27580190Y-50776754D01*
X27521289Y-50854343D01*
X27480556Y-50949504D01*
X27462662Y-51026946D01*
X27455453Y-51082407D01*
X27455773Y-51127261D01*
G36*
X27473304Y-52042629D02*
G01*
X27513766Y-52133681D01*
X27571449Y-52210065D01*
X27622811Y-52258278D01*
X27676401Y-52292856D01*
X27737916Y-52315952D01*
X27813054Y-52329722D01*
X27905125Y-52336234D01*
X28048000Y-52341441D01*
X28048000Y-51716400D01*
X28083409Y-51716400D01*
X28126772Y-51724917D01*
X28176906Y-51746830D01*
X28223563Y-51776680D01*
X28255983Y-51808304D01*
X28273874Y-51847926D01*
X28284847Y-51902563D01*
X28288010Y-51962557D01*
X28282469Y-52018248D01*
X28277250Y-52038279D01*
X28259794Y-52079210D01*
X28235875Y-52122201D01*
X28231149Y-52129415D01*
X28199957Y-52175380D01*
X28258871Y-52244340D01*
X28289197Y-52278276D01*
X28313740Y-52302894D01*
X28327528Y-52313237D01*
X28328018Y-52313300D01*
X28341548Y-52304315D01*
X28363924Y-52281604D01*
X28375230Y-52268437D01*
X28435146Y-52176346D01*
X28473433Y-52073825D01*
X28488950Y-51965450D01*
X28480560Y-51855800D01*
X28479367Y-51849750D01*
X28447605Y-51751499D01*
X28395903Y-51668736D01*
X28325005Y-51602203D01*
X28235653Y-51552646D01*
X28156887Y-51527042D01*
X28102870Y-51518330D01*
X28033081Y-51513326D01*
X27956888Y-51512101D01*
X27883658Y-51514727D01*
X27846797Y-51518689D01*
X27846797Y-51716400D01*
X27882900Y-51716400D01*
X27882900Y-52138326D01*
X27835275Y-52129603D01*
X27762256Y-52105642D01*
X27706589Y-52064836D01*
X27670120Y-52009253D01*
X27654698Y-51940963D01*
X27654300Y-51927048D01*
X27660493Y-51869140D01*
X27676904Y-51819944D01*
X27677862Y-51818118D01*
X27709885Y-51779226D01*
X27756997Y-51745357D01*
X27809130Y-51722574D01*
X27846797Y-51716400D01*
X27846797Y-51518689D01*
X27822758Y-51521273D01*
X27806592Y-51524389D01*
X27698837Y-51559152D01*
X27610031Y-51610209D01*
X27540660Y-51677106D01*
X27491211Y-51759387D01*
X27464199Y-51845920D01*
X27456489Y-51945717D01*
X27473304Y-52042629D01*
G37*
X27473304Y-52042629D02*
X27513766Y-52133681D01*
X27571449Y-52210065D01*
X27622811Y-52258278D01*
X27676401Y-52292856D01*
X27737916Y-52315952D01*
X27813054Y-52329722D01*
X27905125Y-52336234D01*
X28048000Y-52341441D01*
X28048000Y-51716400D01*
X28083409Y-51716400D01*
X28126772Y-51724917D01*
X28176906Y-51746830D01*
X28223563Y-51776680D01*
X28255983Y-51808304D01*
X28273874Y-51847926D01*
X28284847Y-51902563D01*
X28288010Y-51962557D01*
X28282469Y-52018248D01*
X28277250Y-52038279D01*
X28259794Y-52079210D01*
X28235875Y-52122201D01*
X28231149Y-52129415D01*
X28199957Y-52175380D01*
X28258871Y-52244340D01*
X28289197Y-52278276D01*
X28313740Y-52302894D01*
X28327528Y-52313237D01*
X28328018Y-52313300D01*
X28341548Y-52304315D01*
X28363924Y-52281604D01*
X28375230Y-52268437D01*
X28435146Y-52176346D01*
X28473433Y-52073825D01*
X28488950Y-51965450D01*
X28480560Y-51855800D01*
X28479367Y-51849750D01*
X28447605Y-51751499D01*
X28395903Y-51668736D01*
X28325005Y-51602203D01*
X28235653Y-51552646D01*
X28156887Y-51527042D01*
X28102870Y-51518330D01*
X28033081Y-51513326D01*
X27956888Y-51512101D01*
X27883658Y-51514727D01*
X27846797Y-51518689D01*
X27846797Y-51716400D01*
X27882900Y-51716400D01*
X27882900Y-52138326D01*
X27835275Y-52129603D01*
X27762256Y-52105642D01*
X27706589Y-52064836D01*
X27670120Y-52009253D01*
X27654698Y-51940963D01*
X27654300Y-51927048D01*
X27660493Y-51869140D01*
X27676904Y-51819944D01*
X27677862Y-51818118D01*
X27709885Y-51779226D01*
X27756997Y-51745357D01*
X27809130Y-51722574D01*
X27846797Y-51716400D01*
X27846797Y-51518689D01*
X27822758Y-51521273D01*
X27806592Y-51524389D01*
X27698837Y-51559152D01*
X27610031Y-51610209D01*
X27540660Y-51677106D01*
X27491211Y-51759387D01*
X27464199Y-51845920D01*
X27456489Y-51945717D01*
X27473304Y-52042629D01*
G36*
X27463971Y-46147918D02*
G01*
X27484753Y-46220361D01*
X27492282Y-46236350D01*
X27537717Y-46307215D01*
X27594275Y-46359934D01*
X27660650Y-46397594D01*
X27679812Y-46405975D01*
X27698930Y-46412630D01*
X27721166Y-46417797D01*
X27749684Y-46421716D01*
X27787646Y-46424626D01*
X27838216Y-46426767D01*
X27904556Y-46428377D01*
X27989829Y-46429696D01*
X28097199Y-46430964D01*
X28102504Y-46431022D01*
X28480859Y-46435195D01*
X28477154Y-46329422D01*
X28473450Y-46223650D01*
X28130550Y-46217300D01*
X28026721Y-46215228D01*
X27945150Y-46213144D01*
X27882693Y-46210798D01*
X27836210Y-46207942D01*
X27802557Y-46204327D01*
X27778594Y-46199703D01*
X27761179Y-46193823D01*
X27748096Y-46187003D01*
X27701572Y-46146759D01*
X27675007Y-46093188D01*
X27667000Y-46027384D01*
X27674701Y-45958988D01*
X27699429Y-45906606D01*
X27743616Y-45865462D01*
X27752417Y-45859751D01*
X27767601Y-45850814D01*
X27783142Y-45843822D01*
X27802291Y-45838490D01*
X27828299Y-45834533D01*
X27864416Y-45831668D01*
X27913892Y-45829609D01*
X27979978Y-45828073D01*
X28065925Y-45826776D01*
X28140075Y-45825853D01*
X28479800Y-45821756D01*
X28479800Y-45620400D01*
X27463800Y-45620400D01*
X27463800Y-45823600D01*
X27514600Y-45823600D01*
X27550809Y-45826238D01*
X27563135Y-45835897D01*
X27552579Y-45855193D01*
X27533969Y-45874099D01*
X27495053Y-45926671D01*
X27469897Y-45994328D01*
X27459277Y-46070325D01*
X27463971Y-46147918D01*
G37*
X27463971Y-46147918D02*
X27484753Y-46220361D01*
X27492282Y-46236350D01*
X27537717Y-46307215D01*
X27594275Y-46359934D01*
X27660650Y-46397594D01*
X27679812Y-46405975D01*
X27698930Y-46412630D01*
X27721166Y-46417797D01*
X27749684Y-46421716D01*
X27787646Y-46424626D01*
X27838216Y-46426767D01*
X27904556Y-46428377D01*
X27989829Y-46429696D01*
X28097199Y-46430964D01*
X28102504Y-46431022D01*
X28480859Y-46435195D01*
X28477154Y-46329422D01*
X28473450Y-46223650D01*
X28130550Y-46217300D01*
X28026721Y-46215228D01*
X27945150Y-46213144D01*
X27882693Y-46210798D01*
X27836210Y-46207942D01*
X27802557Y-46204327D01*
X27778594Y-46199703D01*
X27761179Y-46193823D01*
X27748096Y-46187003D01*
X27701572Y-46146759D01*
X27675007Y-46093188D01*
X27667000Y-46027384D01*
X27674701Y-45958988D01*
X27699429Y-45906606D01*
X27743616Y-45865462D01*
X27752417Y-45859751D01*
X27767601Y-45850814D01*
X27783142Y-45843822D01*
X27802291Y-45838490D01*
X27828299Y-45834533D01*
X27864416Y-45831668D01*
X27913892Y-45829609D01*
X27979978Y-45828073D01*
X28065925Y-45826776D01*
X28140075Y-45825853D01*
X28479800Y-45821756D01*
X28479800Y-45620400D01*
X27463800Y-45620400D01*
X27463800Y-45823600D01*
X27514600Y-45823600D01*
X27550809Y-45826238D01*
X27563135Y-45835897D01*
X27552579Y-45855193D01*
X27533969Y-45874099D01*
X27495053Y-45926671D01*
X27469897Y-45994328D01*
X27459277Y-46070325D01*
X27463971Y-46147918D01*
G36*
X27461134Y-50488935D02*
G01*
X27477606Y-50564888D01*
X27503664Y-50620704D01*
X27529480Y-50662476D01*
X27563315Y-50637693D01*
X27592306Y-50615048D01*
X27629787Y-50583985D01*
X27652860Y-50564129D01*
X27708570Y-50515349D01*
X27687785Y-50475155D01*
X27671617Y-50424496D01*
X27667727Y-50366213D01*
X27675957Y-50311138D01*
X27690656Y-50277425D01*
X27705751Y-50255261D01*
X27720540Y-50237693D01*
X27738059Y-50224125D01*
X27761342Y-50213962D01*
X27793425Y-50206608D01*
X27837342Y-50201470D01*
X27896130Y-50197950D01*
X27972824Y-50195454D01*
X28070457Y-50193388D01*
X28124200Y-50192400D01*
X28473450Y-50186050D01*
X28477138Y-50081275D01*
X28480827Y-49976500D01*
X27462772Y-49976500D01*
X27470150Y-50186050D01*
X27519873Y-50192400D01*
X27550372Y-50197433D01*
X27559322Y-50203748D01*
X27550509Y-50214459D01*
X27548602Y-50216052D01*
X27505106Y-50267258D01*
X27475571Y-50333932D01*
X27460685Y-50409887D01*
X27461134Y-50488935D01*
G37*
X27461134Y-50488935D02*
X27477606Y-50564888D01*
X27503664Y-50620704D01*
X27529480Y-50662476D01*
X27563315Y-50637693D01*
X27592306Y-50615048D01*
X27629787Y-50583985D01*
X27652860Y-50564129D01*
X27708570Y-50515349D01*
X27687785Y-50475155D01*
X27671617Y-50424496D01*
X27667727Y-50366213D01*
X27675957Y-50311138D01*
X27690656Y-50277425D01*
X27705751Y-50255261D01*
X27720540Y-50237693D01*
X27738059Y-50224125D01*
X27761342Y-50213962D01*
X27793425Y-50206608D01*
X27837342Y-50201470D01*
X27896130Y-50197950D01*
X27972824Y-50195454D01*
X28070457Y-50193388D01*
X28124200Y-50192400D01*
X28473450Y-50186050D01*
X28477138Y-50081275D01*
X28480827Y-49976500D01*
X27462772Y-49976500D01*
X27470150Y-50186050D01*
X27519873Y-50192400D01*
X27550372Y-50197433D01*
X27559322Y-50203748D01*
X27550509Y-50214459D01*
X27548602Y-50216052D01*
X27505106Y-50267258D01*
X27475571Y-50333932D01*
X27460685Y-50409887D01*
X27461134Y-50488935D01*
D11*
%TO.C,D12*%
X86630000Y-78876500D02*
X86630000Y-75906500D01*
X88630000Y-78886500D02*
X88620000Y-75896500D01*
X86630000Y-75896500D02*
X88620000Y-75896500D01*
X87640000Y-75686500D02*
X87640000Y-76806500D01*
X87640000Y-79146500D02*
X87640000Y-77866500D01*
X86630000Y-78886500D02*
X88630000Y-78886500D01*
X87640000Y-77756500D02*
X88180000Y-76806500D01*
X87630000Y-77746500D02*
X87100000Y-76836500D01*
X87100000Y-76806500D02*
X88180000Y-76806500D01*
X87100000Y-77856500D02*
X88180000Y-77856500D01*
%TO.C,D11*%
X67580000Y-78876500D02*
X67580000Y-75906500D01*
X69580000Y-78886500D02*
X69570000Y-75896500D01*
X67580000Y-75896500D02*
X69570000Y-75896500D01*
X68590000Y-75686500D02*
X68590000Y-76806500D01*
X68590000Y-79146500D02*
X68590000Y-77866500D01*
X67580000Y-78886500D02*
X69580000Y-78886500D01*
X68590000Y-77756500D02*
X69130000Y-76806500D01*
X68580000Y-77746500D02*
X68050000Y-76836500D01*
X68050000Y-76806500D02*
X69130000Y-76806500D01*
X68050000Y-77856500D02*
X69130000Y-77856500D01*
%TO.C,D10*%
X48530000Y-78876500D02*
X48530000Y-75906500D01*
X50530000Y-78886500D02*
X50520000Y-75896500D01*
X48530000Y-75896500D02*
X50520000Y-75896500D01*
X49540000Y-75686500D02*
X49540000Y-76806500D01*
X49540000Y-79146500D02*
X49540000Y-77866500D01*
X48530000Y-78886500D02*
X50530000Y-78886500D01*
X49540000Y-77756500D02*
X50080000Y-76806500D01*
X49530000Y-77746500D02*
X49000000Y-76836500D01*
X49000000Y-76806500D02*
X50080000Y-76806500D01*
X49000000Y-77856500D02*
X50080000Y-77856500D01*
%TO.C,D9*%
X29480000Y-78876500D02*
X29480000Y-75906500D01*
X31480000Y-78886500D02*
X31470000Y-75896500D01*
X29480000Y-75896500D02*
X31470000Y-75896500D01*
X30490000Y-75686500D02*
X30490000Y-76806500D01*
X30490000Y-79146500D02*
X30490000Y-77866500D01*
X29480000Y-78886500D02*
X31480000Y-78886500D01*
X30490000Y-77756500D02*
X31030000Y-76806500D01*
X30480000Y-77746500D02*
X29950000Y-76836500D01*
X29950000Y-76806500D02*
X31030000Y-76806500D01*
X29950000Y-77856500D02*
X31030000Y-77856500D01*
%TO.C,D8*%
X86630000Y-59826500D02*
X86630000Y-56856500D01*
X88630000Y-59836500D02*
X88620000Y-56846500D01*
X86630000Y-56846500D02*
X88620000Y-56846500D01*
X87640000Y-56636500D02*
X87640000Y-57756500D01*
X87640000Y-60096500D02*
X87640000Y-58816500D01*
X86630000Y-59836500D02*
X88630000Y-59836500D01*
X87640000Y-58706500D02*
X88180000Y-57756500D01*
X87630000Y-58696500D02*
X87100000Y-57786500D01*
X87100000Y-57756500D02*
X88180000Y-57756500D01*
X87100000Y-58806500D02*
X88180000Y-58806500D01*
%TO.C,D7*%
X67580000Y-59826500D02*
X67580000Y-56856500D01*
X69580000Y-59836500D02*
X69570000Y-56846500D01*
X67580000Y-56846500D02*
X69570000Y-56846500D01*
X68590000Y-56636500D02*
X68590000Y-57756500D01*
X68590000Y-60096500D02*
X68590000Y-58816500D01*
X67580000Y-59836500D02*
X69580000Y-59836500D01*
X68590000Y-58706500D02*
X69130000Y-57756500D01*
X68580000Y-58696500D02*
X68050000Y-57786500D01*
X68050000Y-57756500D02*
X69130000Y-57756500D01*
X68050000Y-58806500D02*
X69130000Y-58806500D01*
%TO.C,D6*%
X48593500Y-59826500D02*
X48593500Y-56856500D01*
X50593500Y-59836500D02*
X50583500Y-56846500D01*
X48593500Y-56846500D02*
X50583500Y-56846500D01*
X49603500Y-56636500D02*
X49603500Y-57756500D01*
X49603500Y-60096500D02*
X49603500Y-58816500D01*
X48593500Y-59836500D02*
X50593500Y-59836500D01*
X49603500Y-58706500D02*
X50143500Y-57756500D01*
X49593500Y-58696500D02*
X49063500Y-57786500D01*
X49063500Y-57756500D02*
X50143500Y-57756500D01*
X49063500Y-58806500D02*
X50143500Y-58806500D01*
%TO.C,D5*%
X29480000Y-59826500D02*
X29480000Y-56856500D01*
X31480000Y-59836500D02*
X31470000Y-56846500D01*
X29480000Y-56846500D02*
X31470000Y-56846500D01*
X30490000Y-56636500D02*
X30490000Y-57756500D01*
X30490000Y-60096500D02*
X30490000Y-58816500D01*
X29480000Y-59836500D02*
X31480000Y-59836500D01*
X30490000Y-58706500D02*
X31030000Y-57756500D01*
X30480000Y-58696500D02*
X29950000Y-57786500D01*
X29950000Y-57756500D02*
X31030000Y-57756500D01*
X29950000Y-58806500D02*
X31030000Y-58806500D01*
%TO.C,D4*%
X101171500Y-38046000D02*
X101171500Y-35076000D01*
X103171500Y-38056000D02*
X103161500Y-35066000D01*
X101171500Y-35066000D02*
X103161500Y-35066000D01*
X102181500Y-34856000D02*
X102181500Y-35976000D01*
X102181500Y-38316000D02*
X102181500Y-37036000D01*
X101171500Y-38056000D02*
X103171500Y-38056000D01*
X102181500Y-36926000D02*
X102721500Y-35976000D01*
X102171500Y-36916000D02*
X101641500Y-36006000D01*
X101641500Y-35976000D02*
X102721500Y-35976000D01*
X101641500Y-37026000D02*
X102721500Y-37026000D01*
%TO.C,D3*%
X43132500Y-38046000D02*
X43132500Y-35076000D01*
X45132500Y-38056000D02*
X45122500Y-35066000D01*
X43132500Y-35066000D02*
X45122500Y-35066000D01*
X44142500Y-34856000D02*
X44142500Y-35976000D01*
X44142500Y-38316000D02*
X44142500Y-37036000D01*
X43132500Y-38056000D02*
X45132500Y-38056000D01*
X44142500Y-36926000D02*
X44682500Y-35976000D01*
X44132500Y-36916000D02*
X43602500Y-36006000D01*
X43602500Y-35976000D02*
X44682500Y-35976000D01*
X43602500Y-37026000D02*
X44682500Y-37026000D01*
%TO.C,R6*%
X63703000Y-37782500D02*
X62753000Y-37782500D01*
X57963000Y-37782500D02*
X58913000Y-37782500D01*
X62753000Y-38702500D02*
X58913000Y-38702500D01*
X62753000Y-36862500D02*
X62753000Y-38702500D01*
X58913000Y-36862500D02*
X62753000Y-36862500D01*
X58913000Y-38702500D02*
X58913000Y-36862500D01*
%TO.C,R5*%
X70790000Y-40005000D02*
X71740000Y-40005000D01*
X76530000Y-40005000D02*
X75580000Y-40005000D01*
X71740000Y-39085000D02*
X75580000Y-39085000D01*
X71740000Y-40925000D02*
X71740000Y-39085000D01*
X75580000Y-40925000D02*
X71740000Y-40925000D01*
X75580000Y-39085000D02*
X75580000Y-40925000D01*
%TO.C,R4*%
X68123000Y-37782500D02*
X69073000Y-37782500D01*
X73863000Y-37782500D02*
X72913000Y-37782500D01*
X69073000Y-36862500D02*
X72913000Y-36862500D01*
X69073000Y-38702500D02*
X69073000Y-36862500D01*
X72913000Y-38702500D02*
X69073000Y-38702500D01*
X72913000Y-36862500D02*
X72913000Y-38702500D01*
%TO.C,R3*%
X76187500Y-29210000D02*
X77137500Y-29210000D01*
X81927500Y-29210000D02*
X80977500Y-29210000D01*
X77137500Y-28290000D02*
X80977500Y-28290000D01*
X77137500Y-30130000D02*
X77137500Y-28290000D01*
X80977500Y-30130000D02*
X77137500Y-30130000D01*
X80977500Y-28290000D02*
X80977500Y-30130000D01*
%TO.C,R2*%
X61226500Y-29210000D02*
X60276500Y-29210000D01*
X55486500Y-29210000D02*
X56436500Y-29210000D01*
X60276500Y-30130000D02*
X56436500Y-30130000D01*
X60276500Y-28290000D02*
X60276500Y-30130000D01*
X56436500Y-28290000D02*
X60276500Y-28290000D01*
X56436500Y-30130000D02*
X56436500Y-28290000D01*
%TO.C,D2*%
X71364500Y-31131000D02*
X74334500Y-31131000D01*
X71354500Y-33131000D02*
X74344500Y-33121000D01*
X74344500Y-31131000D02*
X74344500Y-33121000D01*
X74554500Y-32141000D02*
X73434500Y-32141000D01*
X71094500Y-32141000D02*
X72374500Y-32141000D01*
X71354500Y-31131000D02*
X71354500Y-33131000D01*
X72484500Y-32141000D02*
X73434500Y-32681000D01*
X72494500Y-32131000D02*
X73404500Y-31601000D01*
X73434500Y-31601000D02*
X73434500Y-32681000D01*
X72384500Y-31601000D02*
X72384500Y-32681000D01*
%TO.C,D1*%
X65795500Y-33131000D02*
X62825500Y-33131000D01*
X65805500Y-31131000D02*
X62815500Y-31141000D01*
X62815500Y-33131000D02*
X62815500Y-31141000D01*
X62605500Y-32121000D02*
X63725500Y-32121000D01*
X66065500Y-32121000D02*
X64785500Y-32121000D01*
X65805500Y-33131000D02*
X65805500Y-31131000D01*
X64675500Y-32121000D02*
X63725500Y-31581000D01*
X64665500Y-32131000D02*
X63755500Y-32661000D01*
X63725500Y-32661000D02*
X63725500Y-31581000D01*
X64775500Y-32661000D02*
X64775500Y-31581000D01*
D12*
%TO.C,USB1*%
X63955000Y-23622000D02*
X73205000Y-23622000D01*
X64105000Y-30282000D02*
X73055000Y-30282000D01*
X73060000Y-21872000D02*
X73055000Y-21112000D01*
X64105000Y-21112000D02*
X73055000Y-21112000D01*
X64105000Y-21112000D02*
X64100000Y-21872000D01*
X68580000Y-23622000D02*
X68580000Y-24892000D01*
D11*
%TO.C,D13*%
X83980000Y-52232000D02*
X91280000Y-52232000D01*
X83980000Y-46732000D02*
X91280000Y-46732000D01*
X91280000Y-46732000D02*
X91280000Y-47882000D01*
%TO.C,D14*%
X83980000Y-71282000D02*
X91280000Y-71282000D01*
X83980000Y-65782000D02*
X91280000Y-65782000D01*
X91280000Y-65782000D02*
X91280000Y-66932000D01*
%TO.C,D15*%
X53180000Y-65782000D02*
X53180000Y-66932000D01*
X45880000Y-65782000D02*
X53180000Y-65782000D01*
X45880000Y-71282000D02*
X53180000Y-71282000D01*
%TO.C,D16*%
X53180000Y-46732000D02*
X53180000Y-47882000D01*
X45880000Y-46732000D02*
X53180000Y-46732000D01*
X45880000Y-52232000D02*
X53180000Y-52232000D01*
%TO.C,D12*%
D12*
X89833404Y-79038571D02*
X89033404Y-79038571D01*
X89033404Y-79229047D01*
X89071500Y-79343333D01*
X89147690Y-79419523D01*
X89223880Y-79457619D01*
X89376261Y-79495714D01*
X89490547Y-79495714D01*
X89642928Y-79457619D01*
X89719119Y-79419523D01*
X89795309Y-79343333D01*
X89833404Y-79229047D01*
X89833404Y-79038571D01*
X89833404Y-80257619D02*
X89833404Y-79800476D01*
X89833404Y-80029047D02*
X89033404Y-80029047D01*
X89147690Y-79952857D01*
X89223880Y-79876666D01*
X89261976Y-79800476D01*
X89109595Y-80562380D02*
X89071500Y-80600476D01*
X89033404Y-80676666D01*
X89033404Y-80867142D01*
X89071500Y-80943333D01*
X89109595Y-80981428D01*
X89185785Y-81019523D01*
X89261976Y-81019523D01*
X89376261Y-80981428D01*
X89833404Y-80524285D01*
X89833404Y-81019523D01*
%TO.C,D11*%
X70783404Y-79038571D02*
X69983404Y-79038571D01*
X69983404Y-79229047D01*
X70021500Y-79343333D01*
X70097690Y-79419523D01*
X70173880Y-79457619D01*
X70326261Y-79495714D01*
X70440547Y-79495714D01*
X70592928Y-79457619D01*
X70669119Y-79419523D01*
X70745309Y-79343333D01*
X70783404Y-79229047D01*
X70783404Y-79038571D01*
X70783404Y-80257619D02*
X70783404Y-79800476D01*
X70783404Y-80029047D02*
X69983404Y-80029047D01*
X70097690Y-79952857D01*
X70173880Y-79876666D01*
X70211976Y-79800476D01*
X70783404Y-81019523D02*
X70783404Y-80562380D01*
X70783404Y-80790952D02*
X69983404Y-80790952D01*
X70097690Y-80714761D01*
X70173880Y-80638571D01*
X70211976Y-80562380D01*
%TO.C,D10*%
X51733404Y-79038571D02*
X50933404Y-79038571D01*
X50933404Y-79229047D01*
X50971500Y-79343333D01*
X51047690Y-79419523D01*
X51123880Y-79457619D01*
X51276261Y-79495714D01*
X51390547Y-79495714D01*
X51542928Y-79457619D01*
X51619119Y-79419523D01*
X51695309Y-79343333D01*
X51733404Y-79229047D01*
X51733404Y-79038571D01*
X51733404Y-80257619D02*
X51733404Y-79800476D01*
X51733404Y-80029047D02*
X50933404Y-80029047D01*
X51047690Y-79952857D01*
X51123880Y-79876666D01*
X51161976Y-79800476D01*
X50933404Y-80752857D02*
X50933404Y-80829047D01*
X50971500Y-80905238D01*
X51009595Y-80943333D01*
X51085785Y-80981428D01*
X51238166Y-81019523D01*
X51428642Y-81019523D01*
X51581023Y-80981428D01*
X51657214Y-80943333D01*
X51695309Y-80905238D01*
X51733404Y-80829047D01*
X51733404Y-80752857D01*
X51695309Y-80676666D01*
X51657214Y-80638571D01*
X51581023Y-80600476D01*
X51428642Y-80562380D01*
X51238166Y-80562380D01*
X51085785Y-80600476D01*
X51009595Y-80638571D01*
X50971500Y-80676666D01*
X50933404Y-80752857D01*
%TO.C,D9*%
X32683404Y-79800523D02*
X31883404Y-79800523D01*
X31883404Y-79991000D01*
X31921500Y-80105285D01*
X31997690Y-80181476D01*
X32073880Y-80219571D01*
X32226261Y-80257666D01*
X32340547Y-80257666D01*
X32492928Y-80219571D01*
X32569119Y-80181476D01*
X32645309Y-80105285D01*
X32683404Y-79991000D01*
X32683404Y-79800523D01*
X32683404Y-80638619D02*
X32683404Y-80791000D01*
X32645309Y-80867190D01*
X32607214Y-80905285D01*
X32492928Y-80981476D01*
X32340547Y-81019571D01*
X32035785Y-81019571D01*
X31959595Y-80981476D01*
X31921500Y-80943380D01*
X31883404Y-80867190D01*
X31883404Y-80714809D01*
X31921500Y-80638619D01*
X31959595Y-80600523D01*
X32035785Y-80562428D01*
X32226261Y-80562428D01*
X32302452Y-80600523D01*
X32340547Y-80638619D01*
X32378642Y-80714809D01*
X32378642Y-80867190D01*
X32340547Y-80943380D01*
X32302452Y-80981476D01*
X32226261Y-81019571D01*
%TO.C,D8*%
X89833404Y-60750523D02*
X89033404Y-60750523D01*
X89033404Y-60941000D01*
X89071500Y-61055285D01*
X89147690Y-61131476D01*
X89223880Y-61169571D01*
X89376261Y-61207666D01*
X89490547Y-61207666D01*
X89642928Y-61169571D01*
X89719119Y-61131476D01*
X89795309Y-61055285D01*
X89833404Y-60941000D01*
X89833404Y-60750523D01*
X89376261Y-61664809D02*
X89338166Y-61588619D01*
X89300071Y-61550523D01*
X89223880Y-61512428D01*
X89185785Y-61512428D01*
X89109595Y-61550523D01*
X89071500Y-61588619D01*
X89033404Y-61664809D01*
X89033404Y-61817190D01*
X89071500Y-61893380D01*
X89109595Y-61931476D01*
X89185785Y-61969571D01*
X89223880Y-61969571D01*
X89300071Y-61931476D01*
X89338166Y-61893380D01*
X89376261Y-61817190D01*
X89376261Y-61664809D01*
X89414357Y-61588619D01*
X89452452Y-61550523D01*
X89528642Y-61512428D01*
X89681023Y-61512428D01*
X89757214Y-61550523D01*
X89795309Y-61588619D01*
X89833404Y-61664809D01*
X89833404Y-61817190D01*
X89795309Y-61893380D01*
X89757214Y-61931476D01*
X89681023Y-61969571D01*
X89528642Y-61969571D01*
X89452452Y-61931476D01*
X89414357Y-61893380D01*
X89376261Y-61817190D01*
%TO.C,D7*%
X70910404Y-60750523D02*
X70110404Y-60750523D01*
X70110404Y-60941000D01*
X70148500Y-61055285D01*
X70224690Y-61131476D01*
X70300880Y-61169571D01*
X70453261Y-61207666D01*
X70567547Y-61207666D01*
X70719928Y-61169571D01*
X70796119Y-61131476D01*
X70872309Y-61055285D01*
X70910404Y-60941000D01*
X70910404Y-60750523D01*
X70110404Y-61474333D02*
X70110404Y-62007666D01*
X70910404Y-61664809D01*
%TO.C,D6*%
X51860404Y-60687023D02*
X51060404Y-60687023D01*
X51060404Y-60877500D01*
X51098500Y-60991785D01*
X51174690Y-61067976D01*
X51250880Y-61106071D01*
X51403261Y-61144166D01*
X51517547Y-61144166D01*
X51669928Y-61106071D01*
X51746119Y-61067976D01*
X51822309Y-60991785D01*
X51860404Y-60877500D01*
X51860404Y-60687023D01*
X51060404Y-61829880D02*
X51060404Y-61677500D01*
X51098500Y-61601309D01*
X51136595Y-61563214D01*
X51250880Y-61487023D01*
X51403261Y-61448928D01*
X51708023Y-61448928D01*
X51784214Y-61487023D01*
X51822309Y-61525119D01*
X51860404Y-61601309D01*
X51860404Y-61753690D01*
X51822309Y-61829880D01*
X51784214Y-61867976D01*
X51708023Y-61906071D01*
X51517547Y-61906071D01*
X51441357Y-61867976D01*
X51403261Y-61829880D01*
X51365166Y-61753690D01*
X51365166Y-61601309D01*
X51403261Y-61525119D01*
X51441357Y-61487023D01*
X51517547Y-61448928D01*
%TO.C,D5*%
X32746904Y-60750523D02*
X31946904Y-60750523D01*
X31946904Y-60941000D01*
X31985000Y-61055285D01*
X32061190Y-61131476D01*
X32137380Y-61169571D01*
X32289761Y-61207666D01*
X32404047Y-61207666D01*
X32556428Y-61169571D01*
X32632619Y-61131476D01*
X32708809Y-61055285D01*
X32746904Y-60941000D01*
X32746904Y-60750523D01*
X31946904Y-61931476D02*
X31946904Y-61550523D01*
X32327857Y-61512428D01*
X32289761Y-61550523D01*
X32251666Y-61626714D01*
X32251666Y-61817190D01*
X32289761Y-61893380D01*
X32327857Y-61931476D01*
X32404047Y-61969571D01*
X32594523Y-61969571D01*
X32670714Y-61931476D01*
X32708809Y-61893380D01*
X32746904Y-61817190D01*
X32746904Y-61626714D01*
X32708809Y-61550523D01*
X32670714Y-61512428D01*
%TO.C,D4*%
X100691904Y-33001023D02*
X99891904Y-33001023D01*
X99891904Y-33191500D01*
X99930000Y-33305785D01*
X100006190Y-33381976D01*
X100082380Y-33420071D01*
X100234761Y-33458166D01*
X100349047Y-33458166D01*
X100501428Y-33420071D01*
X100577619Y-33381976D01*
X100653809Y-33305785D01*
X100691904Y-33191500D01*
X100691904Y-33001023D01*
X100158571Y-34143880D02*
X100691904Y-34143880D01*
X99853809Y-33953404D02*
X100425238Y-33762928D01*
X100425238Y-34258166D01*
%TO.C,D3*%
X42716404Y-33001023D02*
X41916404Y-33001023D01*
X41916404Y-33191500D01*
X41954500Y-33305785D01*
X42030690Y-33381976D01*
X42106880Y-33420071D01*
X42259261Y-33458166D01*
X42373547Y-33458166D01*
X42525928Y-33420071D01*
X42602119Y-33381976D01*
X42678309Y-33305785D01*
X42716404Y-33191500D01*
X42716404Y-33001023D01*
X41916404Y-33724833D02*
X41916404Y-34220071D01*
X42221166Y-33953404D01*
X42221166Y-34067690D01*
X42259261Y-34143880D01*
X42297357Y-34181976D01*
X42373547Y-34220071D01*
X42564023Y-34220071D01*
X42640214Y-34181976D01*
X42678309Y-34143880D01*
X42716404Y-34067690D01*
X42716404Y-33839119D01*
X42678309Y-33762928D01*
X42640214Y-33724833D01*
%TO.C,R6*%
X55005266Y-38209480D02*
X55338600Y-37733290D01*
X55576695Y-38209480D02*
X55576695Y-37209480D01*
X55195742Y-37209480D01*
X55100504Y-37257100D01*
X55052885Y-37304719D01*
X55005266Y-37399957D01*
X55005266Y-37542814D01*
X55052885Y-37638052D01*
X55100504Y-37685671D01*
X55195742Y-37733290D01*
X55576695Y-37733290D01*
X54148123Y-37209480D02*
X54338600Y-37209480D01*
X54433838Y-37257100D01*
X54481457Y-37304719D01*
X54576695Y-37447576D01*
X54624314Y-37638052D01*
X54624314Y-38019004D01*
X54576695Y-38114242D01*
X54529076Y-38161861D01*
X54433838Y-38209480D01*
X54243361Y-38209480D01*
X54148123Y-38161861D01*
X54100504Y-38114242D01*
X54052885Y-38019004D01*
X54052885Y-37780909D01*
X54100504Y-37685671D01*
X54148123Y-37638052D01*
X54243361Y-37590433D01*
X54433838Y-37590433D01*
X54529076Y-37638052D01*
X54576695Y-37685671D01*
X54624314Y-37780909D01*
%TO.C,R5*%
X79821066Y-40457380D02*
X80154400Y-39981190D01*
X80392495Y-40457380D02*
X80392495Y-39457380D01*
X80011542Y-39457380D01*
X79916304Y-39505000D01*
X79868685Y-39552619D01*
X79821066Y-39647857D01*
X79821066Y-39790714D01*
X79868685Y-39885952D01*
X79916304Y-39933571D01*
X80011542Y-39981190D01*
X80392495Y-39981190D01*
X78916304Y-39457380D02*
X79392495Y-39457380D01*
X79440114Y-39933571D01*
X79392495Y-39885952D01*
X79297257Y-39838333D01*
X79059161Y-39838333D01*
X78963923Y-39885952D01*
X78916304Y-39933571D01*
X78868685Y-40028809D01*
X78868685Y-40266904D01*
X78916304Y-40362142D01*
X78963923Y-40409761D01*
X79059161Y-40457380D01*
X79297257Y-40457380D01*
X79392495Y-40409761D01*
X79440114Y-40362142D01*
%TO.C,R4*%
X77154066Y-38234880D02*
X77487400Y-37758690D01*
X77725495Y-38234880D02*
X77725495Y-37234880D01*
X77344542Y-37234880D01*
X77249304Y-37282500D01*
X77201685Y-37330119D01*
X77154066Y-37425357D01*
X77154066Y-37568214D01*
X77201685Y-37663452D01*
X77249304Y-37711071D01*
X77344542Y-37758690D01*
X77725495Y-37758690D01*
X76296923Y-37568214D02*
X76296923Y-38234880D01*
X76535019Y-37187261D02*
X76773114Y-37901547D01*
X76154066Y-37901547D01*
%TO.C,R3*%
X83059566Y-31516580D02*
X83392900Y-31040390D01*
X83630995Y-31516580D02*
X83630995Y-30516580D01*
X83250042Y-30516580D01*
X83154804Y-30564200D01*
X83107185Y-30611819D01*
X83059566Y-30707057D01*
X83059566Y-30849914D01*
X83107185Y-30945152D01*
X83154804Y-30992771D01*
X83250042Y-31040390D01*
X83630995Y-31040390D01*
X82726233Y-30516580D02*
X82107185Y-30516580D01*
X82440519Y-30897533D01*
X82297661Y-30897533D01*
X82202423Y-30945152D01*
X82154804Y-30992771D01*
X82107185Y-31088009D01*
X82107185Y-31326104D01*
X82154804Y-31421342D01*
X82202423Y-31468961D01*
X82297661Y-31516580D01*
X82583376Y-31516580D01*
X82678614Y-31468961D01*
X82726233Y-31421342D01*
%TO.C,R2*%
X54522666Y-31440380D02*
X54856000Y-30964190D01*
X55094095Y-31440380D02*
X55094095Y-30440380D01*
X54713142Y-30440380D01*
X54617904Y-30488000D01*
X54570285Y-30535619D01*
X54522666Y-30630857D01*
X54522666Y-30773714D01*
X54570285Y-30868952D01*
X54617904Y-30916571D01*
X54713142Y-30964190D01*
X55094095Y-30964190D01*
X54141714Y-30535619D02*
X54094095Y-30488000D01*
X53998857Y-30440380D01*
X53760761Y-30440380D01*
X53665523Y-30488000D01*
X53617904Y-30535619D01*
X53570285Y-30630857D01*
X53570285Y-30726095D01*
X53617904Y-30868952D01*
X54189333Y-31440380D01*
X53570285Y-31440380D01*
%TO.C,D2*%
X78384976Y-32492904D02*
X78384976Y-31692904D01*
X78194500Y-31692904D01*
X78080214Y-31731000D01*
X78004023Y-31807190D01*
X77965928Y-31883380D01*
X77927833Y-32035761D01*
X77927833Y-32150047D01*
X77965928Y-32302428D01*
X78004023Y-32378619D01*
X78080214Y-32454809D01*
X78194500Y-32492904D01*
X78384976Y-32492904D01*
X77623071Y-31769095D02*
X77584976Y-31731000D01*
X77508785Y-31692904D01*
X77318309Y-31692904D01*
X77242119Y-31731000D01*
X77204023Y-31769095D01*
X77165928Y-31845285D01*
X77165928Y-31921476D01*
X77204023Y-32035761D01*
X77661166Y-32492904D01*
X77165928Y-32492904D01*
%TO.C,D1*%
X59955976Y-32492904D02*
X59955976Y-31692904D01*
X59765500Y-31692904D01*
X59651214Y-31731000D01*
X59575023Y-31807190D01*
X59536928Y-31883380D01*
X59498833Y-32035761D01*
X59498833Y-32150047D01*
X59536928Y-32302428D01*
X59575023Y-32378619D01*
X59651214Y-32454809D01*
X59765500Y-32492904D01*
X59955976Y-32492904D01*
X58736928Y-32492904D02*
X59194071Y-32492904D01*
X58965500Y-32492904D02*
X58965500Y-31692904D01*
X59041690Y-31807190D01*
X59117880Y-31883380D01*
X59194071Y-31921476D01*
%TO.C,USB1*%
X70318095Y-21224380D02*
X70318095Y-22033904D01*
X70270476Y-22129142D01*
X70222857Y-22176761D01*
X70127619Y-22224380D01*
X69937142Y-22224380D01*
X69841904Y-22176761D01*
X69794285Y-22129142D01*
X69746666Y-22033904D01*
X69746666Y-21224380D01*
X69318095Y-22176761D02*
X69175238Y-22224380D01*
X68937142Y-22224380D01*
X68841904Y-22176761D01*
X68794285Y-22129142D01*
X68746666Y-22033904D01*
X68746666Y-21938666D01*
X68794285Y-21843428D01*
X68841904Y-21795809D01*
X68937142Y-21748190D01*
X69127619Y-21700571D01*
X69222857Y-21652952D01*
X69270476Y-21605333D01*
X69318095Y-21510095D01*
X69318095Y-21414857D01*
X69270476Y-21319619D01*
X69222857Y-21272000D01*
X69127619Y-21224380D01*
X68889523Y-21224380D01*
X68746666Y-21272000D01*
X67984761Y-21700571D02*
X67841904Y-21748190D01*
X67794285Y-21795809D01*
X67746666Y-21891047D01*
X67746666Y-22033904D01*
X67794285Y-22129142D01*
X67841904Y-22176761D01*
X67937142Y-22224380D01*
X68318095Y-22224380D01*
X68318095Y-21224380D01*
X67984761Y-21224380D01*
X67889523Y-21272000D01*
X67841904Y-21319619D01*
X67794285Y-21414857D01*
X67794285Y-21510095D01*
X67841904Y-21605333D01*
X67889523Y-21652952D01*
X67984761Y-21700571D01*
X68318095Y-21700571D01*
X66794285Y-22224380D02*
X67365714Y-22224380D01*
X67080000Y-22224380D02*
X67080000Y-21224380D01*
X67175238Y-21367238D01*
X67270476Y-21462476D01*
X67365714Y-21510095D01*
%TO.C,D13*%
X88844285Y-53434380D02*
X88844285Y-52434380D01*
X88606190Y-52434380D01*
X88463333Y-52482000D01*
X88368095Y-52577238D01*
X88320476Y-52672476D01*
X88272857Y-52862952D01*
X88272857Y-53005809D01*
X88320476Y-53196285D01*
X88368095Y-53291523D01*
X88463333Y-53386761D01*
X88606190Y-53434380D01*
X88844285Y-53434380D01*
X87320476Y-53434380D02*
X87891904Y-53434380D01*
X87606190Y-53434380D02*
X87606190Y-52434380D01*
X87701428Y-52577238D01*
X87796666Y-52672476D01*
X87891904Y-52720095D01*
X86987142Y-52434380D02*
X86368095Y-52434380D01*
X86701428Y-52815333D01*
X86558571Y-52815333D01*
X86463333Y-52862952D01*
X86415714Y-52910571D01*
X86368095Y-53005809D01*
X86368095Y-53243904D01*
X86415714Y-53339142D01*
X86463333Y-53386761D01*
X86558571Y-53434380D01*
X86844285Y-53434380D01*
X86939523Y-53386761D01*
X86987142Y-53339142D01*
X83194285Y-51534380D02*
X83765714Y-51534380D01*
X83480000Y-51534380D02*
X83480000Y-50534380D01*
X83575238Y-50677238D01*
X83670476Y-50772476D01*
X83765714Y-50820095D01*
%TO.C,D14*%
X88844285Y-72484380D02*
X88844285Y-71484380D01*
X88606190Y-71484380D01*
X88463333Y-71532000D01*
X88368095Y-71627238D01*
X88320476Y-71722476D01*
X88272857Y-71912952D01*
X88272857Y-72055809D01*
X88320476Y-72246285D01*
X88368095Y-72341523D01*
X88463333Y-72436761D01*
X88606190Y-72484380D01*
X88844285Y-72484380D01*
X87320476Y-72484380D02*
X87891904Y-72484380D01*
X87606190Y-72484380D02*
X87606190Y-71484380D01*
X87701428Y-71627238D01*
X87796666Y-71722476D01*
X87891904Y-71770095D01*
X86463333Y-71817714D02*
X86463333Y-72484380D01*
X86701428Y-71436761D02*
X86939523Y-72151047D01*
X86320476Y-72151047D01*
X83194285Y-70584380D02*
X83765714Y-70584380D01*
X83480000Y-70584380D02*
X83480000Y-69584380D01*
X83575238Y-69727238D01*
X83670476Y-69822476D01*
X83765714Y-69870095D01*
%TO.C,D15*%
X50744285Y-72484380D02*
X50744285Y-71484380D01*
X50506190Y-71484380D01*
X50363333Y-71532000D01*
X50268095Y-71627238D01*
X50220476Y-71722476D01*
X50172857Y-71912952D01*
X50172857Y-72055809D01*
X50220476Y-72246285D01*
X50268095Y-72341523D01*
X50363333Y-72436761D01*
X50506190Y-72484380D01*
X50744285Y-72484380D01*
X49220476Y-72484380D02*
X49791904Y-72484380D01*
X49506190Y-72484380D02*
X49506190Y-71484380D01*
X49601428Y-71627238D01*
X49696666Y-71722476D01*
X49791904Y-71770095D01*
X48315714Y-71484380D02*
X48791904Y-71484380D01*
X48839523Y-71960571D01*
X48791904Y-71912952D01*
X48696666Y-71865333D01*
X48458571Y-71865333D01*
X48363333Y-71912952D01*
X48315714Y-71960571D01*
X48268095Y-72055809D01*
X48268095Y-72293904D01*
X48315714Y-72389142D01*
X48363333Y-72436761D01*
X48458571Y-72484380D01*
X48696666Y-72484380D01*
X48791904Y-72436761D01*
X48839523Y-72389142D01*
X45094285Y-70584380D02*
X45665714Y-70584380D01*
X45380000Y-70584380D02*
X45380000Y-69584380D01*
X45475238Y-69727238D01*
X45570476Y-69822476D01*
X45665714Y-69870095D01*
%TO.C,D16*%
X50744285Y-53434380D02*
X50744285Y-52434380D01*
X50506190Y-52434380D01*
X50363333Y-52482000D01*
X50268095Y-52577238D01*
X50220476Y-52672476D01*
X50172857Y-52862952D01*
X50172857Y-53005809D01*
X50220476Y-53196285D01*
X50268095Y-53291523D01*
X50363333Y-53386761D01*
X50506190Y-53434380D01*
X50744285Y-53434380D01*
X49220476Y-53434380D02*
X49791904Y-53434380D01*
X49506190Y-53434380D02*
X49506190Y-52434380D01*
X49601428Y-52577238D01*
X49696666Y-52672476D01*
X49791904Y-52720095D01*
X48363333Y-52434380D02*
X48553809Y-52434380D01*
X48649047Y-52482000D01*
X48696666Y-52529619D01*
X48791904Y-52672476D01*
X48839523Y-52862952D01*
X48839523Y-53243904D01*
X48791904Y-53339142D01*
X48744285Y-53386761D01*
X48649047Y-53434380D01*
X48458571Y-53434380D01*
X48363333Y-53386761D01*
X48315714Y-53339142D01*
X48268095Y-53243904D01*
X48268095Y-53005809D01*
X48315714Y-52910571D01*
X48363333Y-52862952D01*
X48458571Y-52815333D01*
X48649047Y-52815333D01*
X48744285Y-52862952D01*
X48791904Y-52910571D01*
X48839523Y-53005809D01*
X45094285Y-51534380D02*
X45665714Y-51534380D01*
X45380000Y-51534380D02*
X45380000Y-50534380D01*
X45475238Y-50677238D01*
X45570476Y-50772476D01*
X45665714Y-50820095D01*
%TD*%
M02*
