G04 #@! TF.GenerationSoftware,KiCad,Pcbnew,(5.1.9-0-10_14)*
G04 #@! TF.CreationDate,2021-01-08T08:42:04+00:00*
G04 #@! TF.ProjectId,Draytronics-Daisy-PCB V1,44726179-7472-46f6-9e69-63732d446169,rev?*
G04 #@! TF.SameCoordinates,Original*
G04 #@! TF.FileFunction,Soldermask,Top*
G04 #@! TF.FilePolarity,Negative*
%FSLAX46Y46*%
G04 Gerber Fmt 4.6, Leading zero omitted, Abs format (unit mm)*
G04 Created by KiCad (PCBNEW (5.1.9-0-10_14)) date 2021-01-08 08:42:04*
%MOMM*%
%LPD*%
G01*
G04 APERTURE LIST*
%ADD10C,1.700000*%
%ADD11C,2.000000*%
%ADD12C,4.200000*%
%ADD13O,1.400000X1.400000*%
%ADD14C,1.400000*%
%ADD15C,3.987800*%
%ADD16C,1.750000*%
%ADD17O,1.600000X1.600000*%
%ADD18R,1.600000X1.600000*%
%ADD19C,1.600000*%
%ADD20C,1.200000*%
%ADD21R,1.200000X1.200000*%
%ADD22C,1.500000*%
%ADD23R,2.000000X2.000000*%
%ADD24R,3.200000X2.000000*%
%ADD25O,0.900000X1.700000*%
%ADD26O,0.900000X2.400000*%
%ADD27C,0.650000*%
G04 APERTURE END LIST*
D10*
X111442500Y-64579500D03*
X111442500Y-67119500D03*
X111442500Y-69659500D03*
X113982500Y-64579500D03*
X113982500Y-67119500D03*
G36*
G01*
X114832500Y-69059500D02*
X114832500Y-70259500D01*
G75*
G02*
X114582500Y-70509500I-250000J0D01*
G01*
X113382500Y-70509500D01*
G75*
G02*
X113132500Y-70259500I0J250000D01*
G01*
X113132500Y-69059500D01*
G75*
G02*
X113382500Y-68809500I250000J0D01*
G01*
X114582500Y-68809500D01*
G75*
G02*
X114832500Y-69059500I0J-250000D01*
G01*
G37*
D11*
X115974000Y-42862500D03*
X115974000Y-47362500D03*
X109474000Y-42862500D03*
X109474000Y-47362500D03*
X115974000Y-52768500D03*
X115974000Y-57268500D03*
X109474000Y-52768500D03*
X109474000Y-57268500D03*
D12*
X113650000Y-38546000D03*
X23650000Y-38546000D03*
X23650000Y-78546000D03*
X113650000Y-78546000D03*
X113650000Y-28546000D03*
X23650000Y-28546000D03*
D13*
X116522500Y-50038000D03*
D14*
X108902500Y-50038000D03*
D15*
X59055000Y-72771000D03*
D16*
X53975000Y-72771000D03*
X64135000Y-72771000D03*
D13*
X83756500Y-45466000D03*
D14*
X91376500Y-45466000D03*
D17*
X87630000Y-74866500D03*
D18*
X87630000Y-79946500D03*
D17*
X68580000Y-74866500D03*
D18*
X68580000Y-79946500D03*
D17*
X49530000Y-74866500D03*
D18*
X49530000Y-79946500D03*
D17*
X30480000Y-74866500D03*
D18*
X30480000Y-79946500D03*
D17*
X87630000Y-55816500D03*
D18*
X87630000Y-60896500D03*
D17*
X68580000Y-55816500D03*
D18*
X68580000Y-60896500D03*
D17*
X49593500Y-55816500D03*
D18*
X49593500Y-60896500D03*
D17*
X30480000Y-55816500D03*
D18*
X30480000Y-60896500D03*
D17*
X102171500Y-34036000D03*
D18*
X102171500Y-39116000D03*
D17*
X44132500Y-34036000D03*
D18*
X44132500Y-39116000D03*
D13*
X64643000Y-37782500D03*
D14*
X57023000Y-37782500D03*
D13*
X69850000Y-40005000D03*
D14*
X77470000Y-40005000D03*
D13*
X67183000Y-37782500D03*
D14*
X74803000Y-37782500D03*
D13*
X75247500Y-29210000D03*
D14*
X82867500Y-29210000D03*
D13*
X62166500Y-29210000D03*
D14*
X54546500Y-29210000D03*
X77460000Y-25971500D03*
X82560000Y-25971500D03*
D17*
X75374500Y-32131000D03*
D18*
X70294500Y-32131000D03*
D17*
X61785500Y-32131000D03*
D18*
X66865500Y-32131000D03*
D19*
X86082500Y-25527000D03*
X88582500Y-25527000D03*
X88606000Y-28067000D03*
X86106000Y-28067000D03*
X32766000Y-28344500D03*
X32766000Y-25844500D03*
X46799500Y-25884500D03*
X46799500Y-28384500D03*
D20*
X94805500Y-26860500D03*
D21*
X96305500Y-26860500D03*
D22*
X37347500Y-26606500D03*
X42227500Y-26606500D03*
D17*
X85026500Y-42735500D03*
X52006500Y-35115500D03*
X82486500Y-42735500D03*
X54546500Y-35115500D03*
X79946500Y-42735500D03*
X57086500Y-35115500D03*
X77406500Y-42735500D03*
X59626500Y-35115500D03*
X74866500Y-42735500D03*
X62166500Y-35115500D03*
X72326500Y-42735500D03*
X64706500Y-35115500D03*
X69786500Y-42735500D03*
X67246500Y-35115500D03*
X67246500Y-42735500D03*
X69786500Y-35115500D03*
X64706500Y-42735500D03*
X72326500Y-35115500D03*
X62166500Y-42735500D03*
X74866500Y-35115500D03*
X59626500Y-42735500D03*
X77406500Y-35115500D03*
X57086500Y-42735500D03*
X79946500Y-35115500D03*
X54546500Y-42735500D03*
X82486500Y-35115500D03*
X52006500Y-42735500D03*
D18*
X85026500Y-35115500D03*
D15*
X97155000Y-53721000D03*
D16*
X92075000Y-53721000D03*
X102235000Y-53721000D03*
D15*
X40005000Y-53721000D03*
D16*
X34925000Y-53721000D03*
X45085000Y-53721000D03*
X64135000Y-53721000D03*
X53975000Y-53721000D03*
D15*
X59055000Y-53721000D03*
D16*
X83185000Y-53721000D03*
X73025000Y-53721000D03*
D15*
X78105000Y-53721000D03*
D16*
X45085000Y-72771000D03*
X34925000Y-72771000D03*
D15*
X40005000Y-72771000D03*
D16*
X83185000Y-72771000D03*
X73025000Y-72771000D03*
D15*
X78105000Y-72771000D03*
X97155000Y-72771000D03*
D16*
X92075000Y-72771000D03*
X102235000Y-72771000D03*
D23*
X32385000Y-34046000D03*
D11*
X32385000Y-36546000D03*
X32385000Y-39046000D03*
D24*
X39885000Y-30946000D03*
X39885000Y-42146000D03*
D11*
X46885000Y-34046000D03*
X46885000Y-39046000D03*
X104830000Y-39046000D03*
X104830000Y-34046000D03*
D24*
X97830000Y-42146000D03*
X97830000Y-30946000D03*
D11*
X90330000Y-39046000D03*
X90330000Y-36546000D03*
D23*
X90330000Y-34046000D03*
D25*
X72905000Y-25362000D03*
X64255000Y-25362000D03*
D26*
X72905000Y-28742000D03*
X64255000Y-28742000D03*
D27*
X71560000Y-28397000D03*
X70710000Y-28397000D03*
X69860000Y-28397000D03*
X69010000Y-28397000D03*
X68160000Y-28397000D03*
X67310000Y-28397000D03*
X66460000Y-28397000D03*
X65605000Y-28397000D03*
X71555000Y-29722000D03*
X70705000Y-29722000D03*
X69855000Y-29722000D03*
X69005000Y-29722000D03*
X68155000Y-29722000D03*
X66455000Y-29722000D03*
X65605000Y-29722000D03*
X67305000Y-29722000D03*
M02*
